<svg xmlns="http://www.w3.org/2000/svg" viewBox="0 0 258.67 258.67"><g data-name="Layer 2"><g data-name="au map"><circle cx="129.33" cy="129.33" r="129.33" fill="#0fb5ea"/><path d="M186.55 34c-7-1.9-4.69 9.23-8.21 12.31-.81 10-1.79 19.8-5 27.36-3.89.71-8.94 1-9.12-3.19 2.34 0 3.44-1.13 3.64-3.2-3.24-.62-5.27 1.23-5 2.74-6.39-4.55-13.72-8.16-20.51-12.31 2.9-.29 2.51-3.87 4.1-5.47.54 2 1.48 3.68 4.1 3.64.8-1.72.21-3.72 0-5-2-1.1-4.67.82-5-2.28.77-1 3.48-.17 5-.46-.19-2.82 1.45-5.06.46-7.29a3.81 3.81 0 0 0-5 1.36c-.32-3.38-4.14-.91-6.84-1.36-1.88-4.19-11.36-.79-12.31-5.93-1.46-.4-.94 1.18-1.82 1.37-1.45-1.13-2.66-2.5-5.47-2.28a3.42 3.42 0 0 0-.91 3.19c2.38-.4 3.55.4 3.19 2.74-3.81 3.79-15.62-.42-14.14 8.66-3.76.71-6.41 7.33-2.73 10-2.48-.21-3.75.81-6.38.46-3.1-1.19-2.91-6.37-6.39-7.3-4.44-1.19-9.48 2-10.94 5.93-1.14.07-1.41-.72-2.28-.91-.28 1.23.58 3.62-.46 4.1h-3.69c-1.69 3-2.71 4.23-.9 7.75h-4.56v5.47a6.42 6.42 0 0 1-2.74-3.19c-5.3 1.35-3.76 5.32-4.56 10.49a13.71 13.71 0 0 1-11.85 11.4c-5.09.54-6.36 1-8.67 4.1-8.27 4-18.51 6.1-21.43 15.5a4.19 4.19 0 0 0-1.82-2.74c-.37 7-4.16 18.59 1.82 21.43v3.65c.8.26 2.68-.55 2.74.46-.25.66.53 2.35-.45 2.28-1.78-1.07-3.33-4.43-6.39-2.74 2.33 5.42 7.45 8.05 8.66 14.59a45.11 45.11 0 0 0 3.65 2.74v2.73c5.2 2.56 2.6 12.91 8.21 15.05.8 1.93.34 5.13.46 7.75-2.63 1.91-4.19 5.21-1.83 8.66h3.65c3.71 3.67 18.44 3.61 18.24-3.65 5.11-4.76 16.7-3.05 25.53-4.1v-5c2.83-5.07 11.76-4 16-7.75 9.68.71 14.19-7.55 23.25-4.56-.33 1.39.47 1.66.46 2.74 3.43.52 7.13.76 10.48 1.37-.78 1.37-.86 3.43 1.37 2.28-1.22 1.27.43 2.25.46 3.65 8.82-.52 1.62 12.27 10.48 11.39-.81-7.5 7-6.33 8.21-11.85 1.11 3.48-2.94 5.09-1.82 10-3.21-.78-2.9 2-3.65 3.65 2.42 0 5.14.28 6.38-.91.84-1-.08-3.74.91-4.56 1.06.76 1.18 2.47 1.83 3.64-1 1.1-1.7 2.56-3.19 3.2-1.42-1.46-7.53-.84-7.3 2.27 3.72 3.42 8.79-.16 12.31-1.82 3.22 1.64 4.9 4.83 4.1 10.49 1.81 3.81 5.74 5.5 9.12 7.75 4.9-1.68 10.66 7 15 0 3 2.05 6.49 3.09 9.12 6.38.8-.72.6-2.44 1.36-3.19 3 0 4.24-3.48 7.3-4.56 5.45-1.92 8.55.64 10.49-3.65.67-1.49.17-6 .9-7.74 1.3-1.37 3-2.21 4.11-3.66 2.94-4 4.19-10.58 7.3-14.13 1.64-1.89 5-2.43 6.38-4.56 1.25-1.92.87-4.65 1.37-7.3 1-5.54 5.29-11.28 4.55-17.32a5.86 5.86 0 0 0 1.38-3.65c-.42-1.33-1.68-.13-1.83-.91.43-6.36.56-10.26 3.19-14.13-1.31-.06-.23-2.5-1.82-2.28-2.22.6-.15 2.67-2.28 3.19-3.1-3.8-5.62-10.41-9.58-11.85a23.32 23.32 0 0 0 .46-6.39c-2.34-.77-2.78-1.38-5-2.73-1.26-.2-.44 1.7-1.37 1.82.44-5.45-1.62-7.22-3.19-10-.92-1.64-1.22-3.77-1.83-4.56-1.59-2.06-5.59-2-5.47-5.47-7.43-.17-6.72-8.47-7.29-15.5-5.08-2.82-2.26-13.55-7.3-16.42-1.69-.29-4.69.44-5 0 1-6.78-4-9.41-2.28-15.5-.8-.26-2.67.55-2.73-.45a9.41 9.41 0 0 0-1.39-5.93zm4.12 179.83c2 2 4.05 4.87 6 5 1.28.09 4.5-2.5 4.5-2.5l-1.75 6.25s-1.94 5.43-3.5 5.25c-3.72-.42-5.25-14-5.25-14z" fill="#fff"/></g></g></svg>