<?xml version="1.0" encoding="utf-8"?>
<!-- Generator: Adobe Illustrator 23.0.0, SVG Export Plug-In . SVG Version: 6.00 Build 0)  -->
<svg version="1.1" id="Layer_1" xmlns="http://www.w3.org/2000/svg" xmlns:xlink="http://www.w3.org/1999/xlink" x="0px" y="0px"
	 viewBox="0 0 258.7 258.7" style="enable-background:new 0 0 258.7 258.7;" xml:space="preserve">
<style type="text/css">
	.st0{display:none;fill:none;stroke:#000000;stroke-width:14.0166;stroke-miterlimit:10;}
	.st1{fill:#FBC833;}
	.st2{fill:none;stroke:#000000;stroke-width:11.6805;stroke-miterlimit:10;}
	.st3{fill:none;stroke:#000000;stroke-width:6.611;stroke-miterlimit:10;}
</style>
<title>au map</title>
<g>
	<g id="au_map">
		<circle class="st0" cx="132.1" cy="128.7" r="142.5"/>
		<path class="st1" d="M195.9,37.8c-7.1-1.9-4.7,9.3-8.2,12.3c-0.8,10-1.8,19.8-5,27.3c-3.9,0.7-8.9,1-9.1-3.2
			c2.3,0,3.4-1.1,3.6-3.2c-3.2-0.7-5.3,1.2-5,2.8c-6.4-4.5-13.7-8.2-20.5-12.3c2.9-0.3,2.5-3.9,4.1-5.5c0.6,2,1.4,3.6,4.1,3.6
			c0.8-1.8,0.2-3.7,0-5c-2-1.1-4.6,0.8-5-2.3c0.8-1,3.5-0.2,5-0.4c-0.2-2.9,1.4-5.1,0.4-7.3c-1.8-0.9-4-0.3-5,1.3
			c-0.3-3.4-4.2-0.9-6.8-1.3c-1.9-4.2-11.3-0.8-12.3-5.9c-1.4-0.4-1,1.2-1.9,1.3c-1.4-1.1-2.6-2.5-5.5-2.3c-0.9,0.9-1.2,2.1-0.9,3.2
			c2.4-0.4,3.5,0.4,3.2,2.8c-3.9,3.7-15.6-0.4-14.1,8.7c-3.7,0.7-6.4,7.4-2.8,10c-2.5-0.2-3.7,0.8-6.4,0.4c-3.1-1.2-2.9-6.4-6.4-7.3
			c-4.4-1.2-9.5,2-10.9,5.9c-1.1,0.1-1.4-0.8-2.3-0.9c-0.3,1.2,0.6,3.6-0.4,4.1h-3.6c-1.7,3-2.8,4.2-0.9,7.7h-4.5v5.5
			c-1.2-0.8-2.2-1.9-2.8-3.2c-5.3,1.3-3.7,5.3-4.5,10.5c-1,6.1-5.8,10.7-11.9,11.3c-5.1,0.6-6.4,1-8.7,4.1
			c-8.3,4-18.5,6.1-21.4,15.5c-0.2-1.1-0.9-2.1-1.9-2.8c-0.3,7.1-4.2,18.6,1.9,21.4v3.6c0.8,0.2,2.6-0.6,2.8,0.4
			c-0.2,0.7,0.6,2.3-0.4,2.3c-1.8-1.1-3.3-4.4-6.4-2.8c2.3,5.4,7.5,8,8.7,14.5c1.2,1,2.4,1.9,3.6,2.8v2.8c5.2,2.5,2.6,12.9,8.2,15.1
			c0.8,2,0.3,5.2,0.4,7.7c-2.6,1.9-4.2,5.2-1.9,8.7h3.6c3.7,3.6,18.4,3.6,18.2-3.6c5.1-4.7,16.7-3.1,25.6-4.1v-5
			c2.9-5.1,11.8-4,16-7.7c9.7,0.7,14.2-7.6,23.2-4.5c-0.3,1.4,0.4,1.7,0.4,2.8c3.4,0.6,7.2,0.8,10.5,1.3c-0.8,1.3-0.9,3.4,1.3,2.3
			c-1.2,1.3,0.4,2.2,0.4,3.6c8.8-0.6,1.7,12.2,10.5,11.3c-0.8-7.5,7.1-6.3,8.2-11.9c1.1,3.5-3,5.1-1.9,10c-3.2-0.8-2.9,2-3.6,3.6
			c2.4,0,5.2,0.3,6.4-0.9c0.9-1-0.1-3.7,0.9-4.5c1.1,0.8,1.2,2.4,1.9,3.6c-1,1.1-1.7,2.5-3.2,3.2c-1.4-1.4-7.5-0.9-7.3,2.3
			c3.7,3.4,8.8-0.1,12.3-1.9c3.2,1.7,4.8,4.8,4.1,10.5c1.8,3.9,5.7,5.5,9.1,7.7c4.8-1.7,10.7,7.1,15,0c3,2.1,6.5,3.1,9.1,6.4
			c0.8-0.8,0.6-2.4,1.3-3.2c3,0,4.2-3.5,7.3-4.5c5.4-1.9,8.6,0.7,10.5-3.6c0.7-1.5,0.2-5.9,0.9-7.7c1.3-1.3,3-2.2,4.1-3.6
			c3-4,4.2-10.6,7.3-14.1c1.7-1.9,5-2.4,6.4-4.5c1.2-1.9,0.9-4.6,1.3-7.3c1-5.5,5.3-11.2,4.5-17.3c0.9-1,1.3-2.3,1.4-3.6
			c-0.4-1.3-1.7-0.1-1.9-0.9c0.4-6.4,0.6-10.2,3.2-14.1c-1.3-0.1-0.2-2.5-1.9-2.3c-2.2,0.6-0.1,2.6-2.3,3.2
			c-3.1-3.7-5.6-10.4-9.6-11.9c0.4-2.1,0.6-4.3,0.4-6.4c-2.3-0.8-2.8-1.4-5-2.8c-1.2-0.2-0.4,1.7-1.3,1.9c0.4-5.4-1.7-7.3-3.2-10
			c-0.9-1.7-1.2-3.7-1.9-4.5c-1.5-2.1-5.6-2-5.5-5.5c-7.4-0.2-6.7-8.5-7.3-15.5c-5.1-2.9-2.3-13.6-7.3-16.4c-1.7-0.3-4.7,0.4-5,0
			c1-6.8-4-9.4-2.3-15.5c-0.8-0.2-2.6,0.6-2.8-0.4C197.4,41.6,197,39.5,195.9,37.8z"/>
		<path class="st2" d="M182.9,23.7c-7.1-1.9-4.7,9.3-8.2,12.3c-0.8,10-1.8,19.8-5,27.3c-3.9,0.7-8.9,1-9.1-3.2
			c2.3,0,3.4-1.1,3.6-3.2c-3.2-0.7-5.3,1.2-5,2.8c-6.4-4.5-13.7-8.2-20.5-12.3c2.9-0.3,2.5-3.9,4.1-5.5c0.6,2,1.4,3.6,4.1,3.6
			c0.8-1.8,0.2-3.7,0-5c-2-1.1-4.6,0.8-5-2.3c0.8-1,3.5-0.2,5-0.4c-0.2-2.9,1.4-5.1,0.4-7.3c-1.8-0.9-4-0.3-5,1.3
			c-0.3-3.4-4.2-0.9-6.8-1.3c-1.9-4.2-11.3-0.8-12.3-5.9c-1.4-0.4-1,1.2-1.9,1.3c-1.4-1.1-2.6-2.5-5.5-2.3c-0.9,0.9-1.2,2.1-0.9,3.2
			c2.4-0.4,3.5,0.4,3.2,2.8c-3.9,3.7-15.6-0.4-14.1,8.7c-3.7,0.7-6.4,7.4-2.8,10c-2.5-0.2-3.7,0.8-6.4,0.4c-3.1-1.2-2.9-6.4-6.4-7.3
			c-4.4-1.2-9.5,2-10.9,5.9c-1.1,0.1-1.4-0.8-2.3-0.9c-0.3,1.2,0.6,3.6-0.4,4.1h-3.7c-1.7,3-2.8,4.2-0.9,7.7h-4.6v5.5
			c-1.2-0.8-2.2-1.9-2.8-3.2c-5.3,1.3-3.7,5.3-4.5,10.5c-1,6.1-5.8,10.7-11.9,11.3c-5.1,0.6-6.4,1-8.7,4.1
			c-8.3,4-18.5,6.1-21.4,15.5c-0.2-1.1-0.9-2.1-1.9-2.8c-0.3,7.1-4.2,18.6,1.9,21.4v3.6c0.8,0.2,2.6-0.6,2.8,0.4
			c-0.2,0.7,0.6,2.3-0.4,2.3c-1.8-1.1-3.3-4.4-6.4-2.8c2.3,5.4,7.5,8,8.7,14.5c1.2,1,2.4,1.9,3.6,2.8v2.8c5.2,2.5,2.6,12.9,8.2,15.1
			c0.8,2,0.3,5.2,0.4,7.7c-2.6,1.9-4.2,5.2-1.9,8.7H35c3.7,3.6,18.4,3.6,18.2-3.6c5.1-4.7,16.7-3.1,25.6-4.1v-5
			c2.9-5.1,11.8-4,16-7.7c9.7,0.7,14.2-7.6,23.2-4.5c-0.3,1.4,0.4,1.7,0.4,2.8c3.4,0.6,7.2,0.8,10.5,1.3c-0.8,1.3-0.9,3.4,1.3,2.3
			c-1.2,1.3,0.4,2.2,0.4,3.6c8.8-0.6,1.7,12.2,10.5,11.3c-0.8-7.5,7.1-6.3,8.2-11.9c1.1,3.5-3,5.1-1.9,10c-3.2-0.8-2.9,2-3.6,3.6
			c2.4,0,5.2,0.3,6.4-0.9c0.9-1-0.1-3.7,0.9-4.5c1.1,0.8,1.2,2.4,1.9,3.6c-1,1.1-1.7,2.5-3.2,3.2c-1.4-1.4-7.5-0.9-7.3,2.3
			c3.7,3.4,8.8-0.1,12.3-1.9c3.2,1.7,4.8,4.8,4.1,10.5c1.8,3.9,5.7,5.5,9.1,7.7c4.8-1.7,10.7,7.1,15,0c3,2.1,6.5,3.1,9.1,6.4
			c0.8-0.8,0.6-2.4,1.3-3.2c3,0,4.2-3.5,7.3-4.5c5.4-1.9,8.6,0.7,10.5-3.6c0.7-1.5,0.2-5.9,0.9-7.7c1.3-1.3,3-2.2,4.1-3.6
			c3-4,4.2-10.6,7.3-14.1c1.7-1.9,5-2.4,6.4-4.5c1.2-1.9,0.9-4.6,1.3-7.3c1-5.5,5.3-11.2,4.5-17.3c0.9-1,1.3-2.3,1.4-3.6
			c-0.4-1.3-1.7-0.1-1.9-0.9c0.4-6.4,0.6-10.2,3.2-14.1c-1.3-0.1-0.2-2.5-1.9-2.3c-2.2,0.6-0.1,2.6-2.3,3.2
			c-3.1-3.7-5.6-10.4-9.6-11.9c0.4-2.1,0.6-4.3,0.4-6.4c-2.3-0.8-2.8-1.4-5-2.8c-1.2-0.2-0.4,1.7-1.3,1.9c0.4-5.4-1.7-7.3-3.2-10
			c-0.9-1.7-1.2-3.7-1.9-4.5c-1.5-2.1-5.6-2-5.5-5.5c-7.4-0.2-6.7-8.5-7.3-15.5c-5.1-2.9-2.3-13.6-7.3-16.4c-1.7-0.3-4.7,0.4-5,0
			c1-6.8-4-9.4-2.3-15.5c-0.8-0.2-2.6,0.6-2.8-0.4C184.4,27.6,184,25.5,182.9,23.7z"/>
		<path class="st1" d="M192.1,221c2,2,4.1,4.8,5.9,5c1.3,0.1,4.5-2.5,4.5-2.5l-1.8,6.3c0,0-2,5.4-3.5,5.3
			C193.6,234.5,192.1,221,192.1,221z"/>
		<path class="st3" d="M187,212.3c2,2,4.1,4.8,5.9,5c1.3,0.1,4.5-2.5,4.5-2.5l-1.8,6.3c0,0-2,5.4-3.5,5.3
			C188.5,225.9,187,212.3,187,212.3z"/>
	</g>
</g>
</svg>
