<svg xmlns="http://www.w3.org/2000/svg" viewBox="0 0 91 59.07"><g data-name="Layer 2"><path d="M81.4 58.61H10.55a2.64 2.64 0 0 1-2.44-2.74V50.7h3.25v1.78a1.71 1.71 0 0 0 1.55 1.77h14.78a1.67 1.67 0 0 0 1.55-1.77V50.7h9.38a31.54 31.54 0 0 0 16-4.43l.07-.07a34.48 34.48 0 0 1 13-4.51L91 38.51l-3.47 14.7a6.44 6.44 0 0 1-6.13 5.4z" fill="#42c4ee"/><path d="M88.86 35.89a1.64 1.64 0 0 0-1.26-.52l-9.53 1.18V2a1.48 1.48 0 1 0-2.95 0v34.92l-4.73.59V22.74a1.48 1.48 0 0 0-1.48-1.48H30.57a1.47 1.47 0 0 0-1.18 2.36l4.06 5.54-2.36 16.77h-3.7v-5.61a1.48 1.48 0 0 0-1.48-1.48h-5.54v-21a1.55 1.55 0 0 0-.81-1.33l-16.84-9A1.55 1.55 0 0 0 .5 8.85v5.24a1.48 1.48 0 0 0 3 0v-2.8l13.88 7.38v20.25H11.8a1.47 1.47 0 0 0-1.47 1.47V46H5.75a1.48 1.48 0 0 0-1.48 1.48v5.83a5.27 5.27 0 0 0 5.24 5.25h67a9 9 0 0 0 8.72-6.73l3.84-14.55a1.37 1.37 0 0 0-.21-1.39zM76.59 55.61H9.66a2.3 2.3 0 0 1-2.29-2.29V49h3.1v1.48A1.49 1.49 0 0 0 12 51.92h14a1.48 1.48 0 0 0 1.48-1.48V49h8.87a32.41 32.41 0 0 0 14.98-3.8l.07-.08a36.13 36.13 0 0 1 12.27-3.84l22.08-2.66L82.5 51a6.09 6.09 0 0 1-5.91 4.61zM24.44 41.87V49h-11v-7.13zm11.74-14l-2.73-3.7h33.91v13.71l-4.06.52A40.15 40.15 0 0 0 50 42.54l-.08.07A29.43 29.43 0 0 1 36.26 46H34l2.4-17a1.24 1.24 0 0 0-.22-1.09z" stroke="#231f20" stroke-miterlimit="10"/><path d="M57.24 35.89h5.54a1.49 1.49 0 0 0 1.48-1.48V28.8a1.48 1.48 0 0 0-1.48-1.48h-5.54a1.48 1.48 0 0 0-1.48 1.48v5.61a1.49 1.49 0 0 0 1.48 1.48zm1.48-5.62h2.58v2.66h-2.58zm-13.08 5.62h5.54a1.49 1.49 0 0 0 1.48-1.48V28.8a1.48 1.48 0 0 0-1.48-1.48h-5.54a1.48 1.48 0 0 0-1.48 1.48v5.61a1.49 1.49 0 0 0 1.48 1.48zm1.48-5.62h2.58v2.66h-2.58z"/></g></svg>