<svg xmlns="http://www.w3.org/2000/svg" viewBox="0 0 90.5 58.11"><g data-name="Layer 2"><path d="M80.9 58.11H10.05a2.64 2.64 0 0 1-2.44-2.74V50.2h3.25V52a1.71 1.71 0 0 0 1.55 1.77h14.78A1.67 1.67 0 0 0 28.74 52v-1.8h9.38a31.54 31.54 0 0 0 16-4.43l.07-.07a34.48 34.48 0 0 1 13-4.51L90.5 38 87 52.71a6.44 6.44 0 0 1-6.1 5.4z" fill="#42c4ee"/><path d="M88.36 35.39a1.64 1.64 0 0 0-1.26-.52l-9.53 1.18V1.48a1.48 1.48 0 1 0-2.95 0v34.94l-4.73.58V22.24a1.48 1.48 0 0 0-1.48-1.48H30.07a1.47 1.47 0 0 0-1.18 2.36L33 28.66l-2.41 16.77h-3.7v-5.61a1.48 1.48 0 0 0-1.48-1.48h-5.54v-21a1.55 1.55 0 0 0-.81-1.34L2.22 7A1.55 1.55 0 0 0 0 8.35v5.24a1.48 1.48 0 0 0 3 0v-2.8l13.88 7.38v20.25H11.3a1.47 1.47 0 0 0-1.47 1.47v5.62H5.25A1.48 1.48 0 0 0 3.77 47v5.83A5.27 5.27 0 0 0 9 58.07h67a9 9 0 0 0 8.72-6.73l3.84-14.55a1.37 1.37 0 0 0-.2-1.4zM76.09 55.11H9.16a2.3 2.3 0 0 1-2.29-2.29v-4.36H10v1.48a1.49 1.49 0 0 0 1.48 1.48h14a1.48 1.48 0 0 0 1.48-1.48v-1.48h8.87a32.41 32.41 0 0 0 15-3.76l.07-.08a36.13 36.13 0 0 1 12.27-3.84l22.08-2.66L82 50.53a6.09 6.09 0 0 1-5.91 4.58zM23.94 41.37v7.09h-11v-7.09zm11.74-14L33 23.71h33.86v13.67l-4.06.52A40.15 40.15 0 0 0 49.5 42l-.08.07a29.43 29.43 0 0 1-13.66 3.4h-2.22l2.36-17a1.24 1.24 0 0 0-.22-1.06z"/><path d="M56.74 35.39h5.54a1.49 1.49 0 0 0 1.48-1.48V28.3a1.48 1.48 0 0 0-1.48-1.48h-5.54a1.48 1.48 0 0 0-1.48 1.48v5.61a1.49 1.49 0 0 0 1.48 1.48zm1.48-5.62h2.58v2.66h-2.58zm-13.08 5.62h5.54a1.49 1.49 0 0 0 1.48-1.48V28.3a1.48 1.48 0 0 0-1.48-1.48h-5.54a1.48 1.48 0 0 0-1.48 1.48v5.61a1.49 1.49 0 0 0 1.48 1.48zm1.48-5.62h2.58v2.66h-2.58z"/></g></svg>