<svg xmlns="http://www.w3.org/2000/svg" viewBox="0 0 89 74.46"><g data-name="Layer 2"><path d="M49.2 35.46a21.34 21.34 0 0 1 11.5 3.1c2.9 1.9 4.5 4.3 4.5 6.8v29.1h-32v-29.1c0-2.5 1.6-5 4.5-6.8a22 22 0 0 1 11.5-3.1z" fill="#d75186"/><path d="M18.5.5a9 9 0 0 0 0 18 8.48 8.48 0 0 0 4.2-1.1 7.49 7.49 0 0 0-.2 2.1 5.7 5.7 0 0 0 .1 1.3 27.28 27.28 0 0 0-4.1-.3 23.61 23.61 0 0 0-12.6 3.4C2.6 26 .5 29 .5 32.4v13.1a1.08 1.08 0 0 0 1 1c4.4.1 6.9 0 12 0v9a1.08 1.08 0 0 0 1 1h12v15a1.08 1.08 0 0 0 1 1h34a1.08 1.08 0 0 0 1-1v-15h12a1.08 1.08 0 0 0 1-1v-9c5.1 0 7.6.1 12 0a1.08 1.08 0 0 0 1-1V32.4c0-3.4-2.2-6.4-5.4-8.5a23.36 23.36 0 0 0-12.6-3.4 27.28 27.28 0 0 0-4.1.3 5.28 5.28 0 0 0 .1-1.3 14.92 14.92 0 0 0-.2-2.1 8.77 8.77 0 0 0 4.2 1.1 9 9 0 1 0-9-9 14.92 14.92 0 0 0 .2 2.1 8.86 8.86 0 0 0-4.3-1.1 9.39 9.39 0 0 0-5.2 1.6 8.84 8.84 0 0 0-7.8-4.6 9 9 0 0 0-7.8 4.6 9.15 9.15 0 0 0-5.2-1.6 8.48 8.48 0 0 0-4.2 1.1 7.49 7.49 0 0 0 .2-2.1 8.82 8.82 0 0 0-8.9-9zm0 2a7 7 0 1 1-7 7 7 7 0 0 1 7-7zm52 0a7 7 0 1 1-7 7 7 7 0 0 1 7-7zm-26 7a7 7 0 1 1-7 7 7 7 0 0 1 7-7zm-13 3a7.23 7.23 0 0 1 4.3 1.5 10.07 10.07 0 0 0-.3 2.5 9.12 9.12 0 0 0 2.3 6 6.87 6.87 0 0 1-6.3 4 7 7 0 0 1 0-14zm26 0a7 7 0 0 1 0 14 6.87 6.87 0 0 1-6.3-4 9.12 9.12 0 0 0 2.3-6 10.07 10.07 0 0 0-.3-2.5 6.63 6.63 0 0 1 4.3-1.5zm-39 10a24.16 24.16 0 0 1 4.7.5 9.13 9.13 0 0 0 8.3 5.5 8.81 8.81 0 0 0 7.8-4.7 9.48 9.48 0 0 0 5.2 1.7 8.75 8.75 0 0 0 5.2-1.7 8.81 8.81 0 0 0 7.8 4.7 9 9 0 0 0 8.3-5.5 23.35 23.35 0 0 1 4.7-.5A21.34 21.34 0 0 1 82 25.6c2.9 1.9 4.5 4.3 4.5 6.8v12.1h-11v-2.1c0-3.4-2.2-6.4-5.4-8.5a23.36 23.36 0 0 0-12.6-3.4 14.66 14.66 0 0 0-4.4.4 26.28 26.28 0 0 0-8.6-1.4 25.85 25.85 0 0 0-8.6 1.4 14.66 14.66 0 0 0-4.4-.4 23.61 23.61 0 0 0-12.6 3.4c-3.3 2.1-5.4 5.1-5.4 8.5v2.1h-11V32.4c0-2.5 1.6-5 4.5-6.8a21.34 21.34 0 0 1 11.5-3.1zm26 9A21.34 21.34 0 0 1 56 34.6c2.9 1.9 4.5 4.3 4.5 6.8v29.1h-32V41.4c0-2.5 1.6-5 4.5-6.8a22.26 22.26 0 0 1 11.5-3.1zm-13 1h1l-.6.3c-3.3 2.1-5.4 5.1-5.4 8.5v13.1h-11V42.3c0-2.5 1.6-5 4.5-6.8a22.25 22.25 0 0 1 11.5-3zm26 0A21.34 21.34 0 0 1 69 35.6c2.9 1.9 4.5 4.3 4.5 6.8v12.1h-11V41.4c0-3.4-2.2-6.4-5.4-8.5l-.6-.3a3.08 3.08 0 0 1 1-.1z" stroke="#000" stroke-miterlimit="10"/></g></svg>