<svg xmlns="http://www.w3.org/2000/svg" viewBox="0 0 90.66 66.45"><defs><style>.cls-2{stroke:#231f20;stroke-miterlimit:10}</style></defs><g id="Layer_2" data-name="Layer 2"><g id="rf"><path d="M50.1 39.87L90 39.4l-.06-15.32a1.31 1.31 0 0 0-1.19-1.39l-25.2.1a1.12 1.12 0 0 0-.93.55l.94.85-.94-.84z" fill="#fbc833"/><path class="cls-2" d="M17.48 40.57l27.07-.11 44.2-.19a1.41 1.41 0 0 1 1.41 1.4 1.86 1.86 0 0 1 0 .33l-4.35 22.55-1.38-.26 1.38.26a1.4 1.4 0 0 1-1.39 1.14L22 66a1.4 1.4 0 0 1-1.39-1.19L16.1 42.24a1.4 1.4 0 0 1 1.1-1.64zm27.08 2.69l-25.39.1 3.95 19.79 60.16-.25 3.78-19.82z"/><path class="cls-2" d="M43.44 41a1.4 1.4 0 0 0 2.23 1.69l11.27-14.81 27.8-.11.06 13.92a1.4 1.4 0 0 0 2.8 0l-.06-15.32A1.41 1.41 0 0 0 86.13 25l-29.89.12a1.43 1.43 0 0 0-1.11.56l1.11.85-1.11-.85zM19.72 51.86a1.4 1.4 0 1 0 0 2.8l66.87-.28a1.4 1.4 0 1 0 0-2.8zM26.78 17h6.14a1.39 1.39 0 0 1 1.4 1.39l.1 23.58A1.4 1.4 0 0 1 33 43.3h-6.11a1.4 1.4 0 0 1-1.4-1.39l-.1-23.58A1.39 1.39 0 0 1 26.78 17zm2.92 2.79h-1.5l.08 20.77h3.33l-.08-20.78zM4.69 42.61a4.27 4.27 0 0 1 3 1.22 4.21 4.21 0 0 1-5.93 6 4.2 4.2 0 0 1 0-6 4.2 4.2 0 0 1 2.93-1.22zm1 3.21a1.39 1.39 0 0 0-1-.4 1.4 1.4 0 0 0-1.39 1.41 1.37 1.37 0 0 0 .42 1 1.41 1.41 0 0 0 2.4-1 1.44 1.44 0 0 0-.41-1.01z"/><path class="cls-2" d="M28.49 18.34a1.4 1.4 0 1 0 2.8 0l-.07-16.45A1.4 1.4 0 0 0 29.82.5a1.29 1.29 0 0 0-.35.05C27.58.92-6.51 8.2 3.35 44.38a1.4 1.4 0 0 0 2.7-.73C-2 14 21.8 5.45 28.43 3.67zM6.12 49.63a1.4 1.4 0 1 0-2.79 0 48.34 48.34 0 0 0 .91 10.18c1.28 5 3.71 7.47 8.31-.58a1.4 1.4 0 1 0-2.42-1.39C8.22 61.18 7.34 60.67 7 59.13a46.49 46.49 0 0 1-.88-9.5z"/></g></g></svg>