<svg xmlns="http://www.w3.org/2000/svg" viewBox="0 0 120.07 120"><g data-name="Layer 2"><path d="M64.85 66.73l39.87-.47-.06-15.32a1.32 1.32 0 0 0-1.19-1.4l-25.2.11a1.12 1.12 0 0 0-.93.55l.94.85-.94-.85z" fill="#fbc833"/><path d="M32.23 67.42l27.07-.11 44.2-.18a1.41 1.41 0 0 1 1.41 1.39 1.86 1.86 0 0 1 0 .34l-4.31 22.55-1.37-.26 1.37.26a1.4 1.4 0 0 1-1.39 1.14l-62.44.26a1.41 1.41 0 0 1-1.39-1.19L30.85 69.1A1.39 1.39 0 0 1 32 67.45a1.33 1.33 0 0 1 .23-.03zm27.08 2.69l-25.38.11 4 19.78L98 89.75l3.78-19.81z"/><path d="M58.19 67.87a1.39 1.39 0 0 0 .27 2 1.41 1.41 0 0 0 2-.27l11.23-14.86 27.8-.12.06 13.93a1.4 1.4 0 0 0 2.8 0l-.06-15.32a1.39 1.39 0 0 0-1.41-1.39l-29.88.1a1.39 1.39 0 0 0-1.11.55l1.11.85-1.11-.84zM34.47 78.72a1.4 1.4 0 0 0-1.4 1.4 1.41 1.41 0 0 0 1.41 1.4l66.87-.28a1.4 1.4 0 1 0 0-2.8zm7.06-34.91h6.14a1.4 1.4 0 0 1 1.4 1.4l.1 23.57a1.4 1.4 0 0 1-1.39 1.41h-6.14a1.4 1.4 0 0 1-1.4-1.4l-.1-23.58a1.4 1.4 0 0 1 1.39-1.4zm2.92 2.79H43v20.78h3.33l-.08-20.78zm-25 22.87a4.2 4.2 0 0 1 3 7.17 4.21 4.21 0 1 1-6-5.92 4.21 4.21 0 0 1 3-1.25zm1 3.21a1.44 1.44 0 0 0-1-.41 1.41 1.41 0 0 0-1 .42 1.42 1.42 0 0 0-.41 1 1.37 1.37 0 0 0 .42 1 1.44 1.44 0 0 0 1 .41 1.37 1.37 0 0 0 1-.42 1.38 1.38 0 0 0 .41-1 1.42 1.42 0 0 0-.41-1z"/><path d="M43.24 45.2a1.4 1.4 0 1 0 2.8 0L46 28.75a1.39 1.39 0 0 0-1.4-1.39 1.34 1.34 0 0 0-.35 0c-1.89.38-36 7.65-26.12 43.84a1.4 1.4 0 0 0 2.7-.74c-8.07-29.61 15.75-38.19 22.38-40zM20.87 76.48a1.38 1.38 0 0 0-1.4-1.38 1.4 1.4 0 0 0-1.39 1.4A49 49 0 0 0 19 86.68c1.28 5 3.71 7.46 8.31-.58a1.4 1.4 0 1 0-2.42-1.4C23 88 22.09 87.52 21.7 86a46.63 46.63 0 0 1-.83-9.52z"/><path fill="none" d="M.001.499l119.569-.5.5 119.508-119.568.5z"/></g></svg>