<svg xmlns="http://www.w3.org/2000/svg" viewBox="0 0 84.5 84.5"><g data-name="Layer 2"><path d="M26.39 47.49a21.11 21.11 0 1 1 21.1 21.11 21.16 21.16 0 0 1-21.1-21.11z" fill="#7eceb6"/><path d="M79.16 3.52h-2.11A5.14 5.14 0 0 0 72.12 0H47.49a1.61 1.61 0 0 0-1.23.53l-4 4-4-4A1.6 1.6 0 0 0 36.94 0H12.31a5.12 5.12 0 0 0-4.92 3.52H5.28A5.18 5.18 0 0 0 0 8.8v45.73a5.19 5.19 0 0 0 5.28 5.28h12.31v-3.52H5.28a1.66 1.66 0 0 1-1.76-1.76V8.8A1.66 1.66 0 0 1 5.28 7H7v40.49a5.18 5.18 0 0 0 5.27 5.28h3.52v-3.52h-3.48a1.66 1.66 0 0 1-1.76-1.76V5.28a1.66 1.66 0 0 1 1.76-1.76h23.93l4.22 4.22v6.33H44V7.74l4.2-4.22h23.92a1.66 1.66 0 0 1 1.76 1.76v42.21a1.66 1.66 0 0 1-1.76 1.76H68.6v3.52h3.52a5.19 5.19 0 0 0 5.28-5.28V7h1.76a1.66 1.66 0 0 1 1.76 1.8v45.73a1.66 1.66 0 0 1-1.76 1.76H66.84v3.52h12.32a5.18 5.18 0 0 0 5.27-5.28V8.8a5.17 5.17 0 0 0-5.27-5.28z"/><path d="M14.07 12.31h22.87v3.52H14.07zm33.42 0h22.87v3.52H47.49zm-33.42 8.8h7.04v3.52h-7.04zm49.25 0h7.04v3.52h-7.04zm-21.1 5.28v3.51a12.24 12.24 0 0 1 12.31 12.32h3.52a15.76 15.76 0 0 0-15.83-15.83z"/><path d="M68.78 62.09a1.7 1.7 0 0 0-2.46 0l-.88.88-4.58-4.57a24.69 24.69 0 1 0-2.46 2.46l4.6 4.58-.88.88a1.7 1.7 0 0 0 0 2.46L76.34 83a4.73 4.73 0 0 0 6.86-6.51l-.2-.15zM21.11 42.22a21.11 21.11 0 1 1 21.11 21.1 21.17 21.17 0 0 1-21.11-21.1zm59.45 38.34a1.17 1.17 0 0 1-1.76 0l-13-13 1.76-1.76 13 13a1.17 1.17 0 0 1 0 1.76z"/></g></svg>