<svg xmlns="http://www.w3.org/2000/svg" viewBox="0 0 70.1 84.5"><g data-name="Layer 2"><path fill="#60a7b1" d="M12.36 17.84l25.51 10.95L65.41 18 37.87 6.73 12.36 17.84z"/><path d="M70.1 84.5H0V63.38l.16-.32c3.91-9.39 14.71-12.52 20-13.61a21.38 21.38 0 0 1-6.42-15.18 20.18 20.18 0 0 1 2.82-10.48l.78-1.26 17.06 7.36 18.3-7.51.79 1.25a21.32 21.32 0 0 1-3.6 25.82C55.24 50.54 66 53.67 70 63.06l.15.32zm-34.42-3.29h31.14V64c-3.91-8.61-15.34-11.11-18.94-11.58zm-32.39 0h31.14L22.22 52.42C18.46 53.05 7 55.55 3.29 64zm23-27.54l8.76 20.66 8.76-20.66a23 23 0 0 1-8.76 1.88 23 23 0 0 1-8.76-1.88zM18.78 26.6a18 18 0 0 0 16.27 25.66 18.1 18.1 0 0 0 18-18 18.41 18.41 0 0 0-1.72-7.67l-16.9 6.89zM6.57 42.72a5.94 5.94 0 0 1-5.94-5.95 6.25 6.25 0 0 1 4.22-5.63V12.83L34.43 0 69 14.24 34.43 27.7l-26-11v14.6a5.72 5.72 0 0 1 3.91 5.47 5.81 5.81 0 0 1-5.77 5.95zm-.15-8.45a2.66 2.66 0 0 0-2.51 2.66 2.74 2.74 0 0 0 2.66 2.66 2.74 2.74 0 0 0 2.66-2.66 2.7 2.7 0 0 0-2.34-2.66zm4.06-20.19l24 10.17 25.66-10L34.27 3.6z"/></g></svg>