<?xml version="1.0" encoding="utf-8"?>
<!-- Generator: Adobe Illustrator 23.0.0, SVG Export Plug-In . SVG Version: 6.00 Build 0)  -->
<svg version="1.1" id="Layer_1" xmlns="http://www.w3.org/2000/svg" xmlns:xlink="http://www.w3.org/1999/xlink" x="0px" y="0px"
	 viewBox="0 0 258.7 258.7" style="enable-background:new 0 0 258.7 258.7;" xml:space="preserve">
<style type="text/css">
	.st0{fill:#13B5EA;}
	.st1{fill:none;stroke:#000000;stroke-width:12;stroke-miterlimit:10;}
	.st2{fill:#FFFFFF;}
	.st3{fill:none;stroke:#000000;stroke-width:10;stroke-miterlimit:10;}
	.st4{display:none;}
	.st5{display:inline;fill:#FFFFFF;stroke:#000000;stroke-width:3.8243;stroke-miterlimit:10;}
	.st6{fill:#FFFFFF;stroke:#000000;stroke-width:10;stroke-miterlimit:10;}
</style>
<title>world map</title>
<g>
	<g id="world_map">
		<ellipse class="st0" cx="130.1" cy="134.9" rx="115.8" ry="113.6"/>
		<circle class="st1" cx="130.3" cy="129.3" r="123.6"/>
		<path class="st2" d="M253.4,119.5c-1.6,1.1-0.7,1.2-2.1,2.7c-1.4,1.4-1.3,0.9-2.4,2.2c-0.6,1-1.3,1.6-2.3,2.1c-1.7,1.1,0,1,0,2
			c0,2-0.3,3.9-0.9,5.8c-0.9,2.7-0.9,3.1-1.1,3.7c-0.6,0.8-1.2,1.4-2,2c-0.4-0.7-0.7-1.3-0.8-2.1c0.1-1.4,0-2.9-0.5-4.3
			c-0.9-1.8-1.6-3.7-2.2-5.6c-0.7-3.3-1.1-6.4-1.4-9.8c-0.1-0.6-0.8-2-1.4-2h-0.3c-0.5,0.4-1,0.6-1.5,0.7H234
			c-0.5-0.3-0.4-2.1,0-2.7c0.4-0.6,0.1-0.8-0.2-0.8h-0.4c-0.6,0-1.4-0.6-2.3-2.4c-0.9-1.8-0.4-1.6-3.2-1.8c-2.8-0.2-2.1-0.5-5.4-2.1
			c-1.1-0.7-2.4-1.1-3.6-1.4c-1.1,0.2-2,0.3-3.1,0.3h-1c-1.4-0.3-2-1.3-4.2-3.3s-1.2-1.7-1.7-2.7c-0.1-0.3-0.4-0.5-0.7-0.5
			c-0.7,0.1-1.1,0.5-1.4,1.1c-0.4,0.9,1,3.3,1.1,4.3c0.7,2.7,2,5.1,3.9,7c0.8,0.8,1.2,1.1,1.6,1.1c1,0,0.7-2.2,1.1-2.4
			c0.5-0.2,0.9-2,0.9-2c0.8,1.1,1.8,2,3,2.7c1.1,0.8,2,1.8,2.4,3.2c0,0,0,0.1,0.1,0.1c0.6,1.1,0.2,2.6-0.9,3.3s-1.6,1.8-1.6,3.1
			c-0.6,1.7-2.1,3-3.9,3.2c-2.7,0.6-2.2,1.7-3,2.5c-1.7,1.5-3.7,2.9-5.9,3.7c-0.8,0.3-1.6,0.5-2.4,0.5c-1,0-1.6-0.2-1.6-0.5v-3.3
			c-0.4-1.8-0.9-3.5-1.5-5.3c-0.6-1.3-1.4-2.5-2.6-3.3c-0.9-1.1-0.3-1.5-0.7-4.3c-0.4-2.8-1.3-1.4-2-3.3c-0.4-1.5-0.9-3.1-1.4-4.5
			c-0.7-1.1-1.6-2.1-2.9-2.7c-0.5,0-0.6,1.3-0.5,2s2.8,8.4,2.8,9.9c1,3.5,2.4,6.9,4.1,10c1.2,1.8,2,3.8,2.5,6c1.1,4,1.8,2,3.6,3.3
			c0.4,0.3,0.9,0.5,1.3,0.5c1.1,0,2-0.9,3.5-1.2c0.7-0.2,1.4-0.3,2.1-0.4c0,0,0.4,2.9,0.8,3.8c0.4,1-2.6,5-3.6,7
			c-1.1,2-7.5,11.9-8.2,12.9c-1.3,4.5-1.7,9.3-1.1,14c1.1,4,0,4.4,0,9c0,4.6-3.4,5.5-5.2,7.6c-1.7,2-0.5,4-0.5,6.6
			c-0.2,2-1.2,3.9-2.9,5.2c-0.6,0.4-1.3,2.6-1.9,3.3c-1,1.3-1.4,3-1.3,4.6c0.1,1.5-0.5,3.2-1.5,4.3c-0.9,0.7-3.3,1.1-5.7,2.7
			c-1,0.6-2,0.9-3.1,0.8c-1.8,0-3.5-0.4-5.3-1.1c-1.1-0.7,0.2-0.9,0.8-3.3c0.6-2.5-2.6-5.4-3.4-6.8c-0.9-1.4-1.6-0.6-1.6-3.6
			c0.1-2.3,0-4.7-0.2-7c-0.7-2.7-1.5-5.4-2.6-8c-0.1-3.3,0.4-6.5,1.4-9.6c0.8-1.3,1.1-2.8,1-4.3c-0.2-1.1-4.7-10.8-5.4-12.8
			c-0.8-2-0.5-2.4-0.7-4.3s0.2-2,0.7-3.8c0.1-1.8-0.6-3.6-1.9-4.9h-0.4c-0.4,0-0.8,0.4-2,0.9h-0.8c-0.7,0,0-0.7-0.3-1.3
			s-0.7-0.8-1.9-2.7c-0.4-0.7-0.5-0.9-1-0.9c-0.5,0-0.8,1-1.5,1.5c-0.9,0.7-1.7,1.3-2.5,2.1c-0.4,0.3-0.8,0.6-1.2,0.6
			c-0.6,0-1-0.6-1.8-0.9c-0.3-0.2-0.7-0.3-1-0.3s-0.5,0.3-1.5,0.8c-1.1,0.6-2.2,0.9-3.4,0.8h-1c-2.3,0-1.9-1.3-3.3-3.3
			s-2.8-3.9-4.3-5.7c-0.9-1.1-1.4-2.3-1.7-3.5c-0.2-1.1-0.3-3-0.5-3.6c-0.3-2.6-0.3-5.1-0.2-7.6c0.1-1.7,0.2-2.3-0.2-3
			c-0.4-0.7,0.9-5,1.1-6c0.2-1,1.2-3.3,1.4-4.3c0.8-2.1,1.9-3.9,3.3-5.6c0.9-0.6,1.8-1.1,2.9-1.5c0.4-0.3-0.5-3.5,0-4.5
			s1.8-1.9,3.2-3.8c0.8-1,1.4-2.1,2-3.3c0.4-0.9-1.1-1.7-1.6-1.7c-1.1-0.7-1.8-1.7-2.2-2.9c-0.7-1.5,0.2-1.6,0.8-2.4
			c0.5-1.4,0.4-3-0.2-4.3c-0.2-1.1-0.1-2.4,0.4-3.5c0,0,2.5,0.5,4.5,1.1c0.4,0.1,0.8,0.2,1.1,0.2c0.8,0,0.5-0.4,2.2-1.2
			s0.9-2.1,0.5-3.4c-0.4-1.3-2.9-2.2-3.6-2.6c-0.8-0.4-1-1.8,1.1-2c2-0.2,1.4-0.8,4.2-1.7c2.8-1,2-1.7,2.8-2.9
			c0.7-1.1,1.7-1.7,2.9-1.8c1.1,0,1.6-1.2,2.7-1.7c0.9-0.7,1.3-1.8,1.1-2.9c-0.1-0.9,0-3.6,0.9-4.3c0.4-0.3,1-0.5,1.4-0.5
			c0.5,0,0.9-0.1,1.1,0.5s0.8,1.5,1.2,1.5c0.6-0.5,0.8-1.3,0.5-2c-0.7-1.1-1.2-2.2-1.6-3.4c-0.2-0.5,0.1-0.5-0.2-0.5
			s-0.8,1.9-2.1,1.9h-1.9c-0.2,0.1-0.4,0.1-0.7,0c-0.6-1.1-1-2.4-1-3.6c-0.1-1.2-0.6-0.5-1.4-2.5c-0.9-2,1.5-1.3,2.5-2.1
			c1-0.8,3.1-1.4,4.8-2.4c1.2-0.7,2.4-1.7,3.2-2.9c0.5-1.2,0.8-2.6,1-3.9c0.5-0.9,1.3-1.2,2.3-1.1h1.8c0.5,0.1,1.1,0.1,1.5,0
			c2.4-0.7,1.5-0.5,3.9-2c0.7-0.5,1.5-0.8,2.4-0.8c2,0.3,4,0.7,5.9,1.1c0.8,0.2,1.6,0.3,2.5,0.4c0.5,0.1,0.9,0.1,1.3,0
			c0.4-0.1,0.9-0.1,1.2,0c0.8,0,1.4,0.1,2.2,0.3c3.1,0.5,5.8,1.8,8.2,3.7c0.7,1-0.5,1-0.7,1.1c-2.3,0.5-4.6,0.8-7,0.8h-0.2
			c-0.6,0.1-1.1-0.1-1.6-0.4c-0.3-0.4-0.4-0.4-0.7-0.4h-0.6c-1.3,0.5-0.2,0.3,1.4,2.9c0.7,1.1,1.1,1.4,1.4,1.4
			c0.4,0,0.4-0.6,0.7-0.6s4.2,1.3,5.4,1.6c1.1,0,0.6-2.3,1.1-3.3s3.9-1,3.9-1.5c-0.3-1.1-0.1-2.2,0.4-3.3c0.4-0.6,0.4-0.9,1-0.9
			s1,0.5,0,1.4c-1,1-0.3,1.9,0,1.9c0.1-0.3,3.7-0.8,5.2-1.2c-26.3-21.3-60-31.2-93.6-27.2c2.1,0.3,4.2,0.9,6.3,1.6
			c0.7,0.3,1.4,0.4,2.2,0.4h3.1c1.8-0.2,3.7,0.1,5.4,0.7c0.1,0.4-0.4,0.6-1.9,1.2c-1.5,0.7-4,0.6-6.1,1.1c-2.1,0.6-1.1,1.8-1.1,3.2
			c0.1,1.8-0.4,3.5-1.1,5.2c-0.7,1.1-3.2,2.6-3.2,3.1c0.5,0.9,1,1.7,1.6,2.6c0.5,0.9,0.5,0.9,0,0.9c-0.9-0.2-1.8-0.4-2.8-0.5h-0.5
			c-0.2,0-0.4,0-0.5,0.1c-0.6,0.3-1,1-0.8,1.5c0,0,3.2,1.9,3.6,3.1c0.5,1.1-1.6,1.3-5.3,2c-3.6,0.7-3,1.1-3.9,1.8
			c-2.1,1.3-4.6,2.1-7.1,2.3c-3.4,0.2-3.1,1.9-3.9,2.6c-0.9,0.7-1.2,2.9-1.4,3.8c-0.6,1.3-1.6,2.5-3,3.2h-0.4
			c-1.3-0.2-2.6-0.7-3.7-1.4c-2.4-1.3-2.5-0.7-3.1-1.3c-0.6-0.7-1.9-2.4-3-3.5c-1.1-1.1-3.3-2.7-3.3-3.4c-0.1-0.8,1-1.3,1.6-2.2
			c0.7-0.9,2.6-2.4,2.8-3.4c0.3-1.1-0.3-2.3-1.3-2.9c-0.3-0.1-0.6-0.1-0.8,0h-0.9c-0.7,0-1.2-0.2-1.7-0.7c-1.1-1,1-1.1,1.6-1.1
			c-0.8-0.1-1.4-0.3-2.1-0.5c-1.5-0.5-1.8-2.7-3.1-4.8c-0.8-1.5-1.3-1.5-1.9-1.5h-1c-0.2,0-0.5-0.1-0.9-0.2
			c-4.7,2.4-9.3,5.2-13.7,8.1c0.2,0.1,0.3,0.3,0.5,0.4c0.7,0.4,1.9,1.1,1.9,1.1c0.5,0.6,1,1.1,1.3,1.7c0.8,1.1,1.1,1.5,3,2
			c1.8,0.5,2.1,1.3,4.6,1.9c2.5,0.6,0.5,1.1,0,1.6c-0.5,0.5-1.3,2.1-1.7,2.1c-1.3-0.5-2.5-1.3-3.4-2.4c-0.3-0.5-0.8-0.9-1.3-1
			c-0.4,0-0.4,0.2-0.4,0.8c0.5,1.2,1.3,2.3,2.5,3c0.7,0.4,1.1,1.9,1.1,1.9c-0.7,0.3-1.4,0.5-2.2,0.5h-0.5c-0.3,0-0.7,0-1,0
			c-0.4,0-0.8,0.2-0.4,0.6c0.6,0.6,1.2,1,1.9,1.3c-0.7,0.2-1.3,0.3-2,0.3c-0.6,0.1-1.1-0.1-1.6-0.5c-0.8-0.9-1.7-1.4-2.9-1.7
			c-1.9-0.8-2.5-1.6-3-1.6h-3.3c0,0-0.6-1.2,1.1-1.4c1.6-0.4,3-1.3,3.9-2.7c0.4-0.7,1.8-2,1.1-2.4c-0.7-0.4,2.6,0-2.5-1.6
			c-0.6-0.2-1.1-0.4-1.6-0.5c-7.8,5.9-14.9,12.8-21.1,20.5c0.3,0.7,0,1.3,2.1,2c2.3,0.8,2-0.1,3.9,0.7c1.2,0.4,2.4,0.9,3.5,1.4
			c1.1,0.7,1,0.4,2,2.2c0.9,1.7,1.9,3.3,3.1,4.9c0.4,0.3,0,0.6,0.4,0.6h1.5c0.4,0,0.4,0.5,0.7-0.9c0.3-1.3,0.7,0.2,0.4-2.2
			c-0.1-1.1-0.3-2-0.6-3c0.2,0,0.3,0.5,1.2-1.5c1-2,2.2-0.7,1.2-3.3c-1-2.6-0.7-2.6-1.1-3.3s-1.5-1.8-1-2.9c0.6-1.1-2.1-2.9,1.1-2.9
			c0.8,0,1.5-0.1,2.3-0.3c0.7,0.1,1.2,0.2,1.8,0.4c0.6,0.2,1.1,0.3,1.6,0.3h1.8c0.6,0,1.1,0.2,1.7,1.1c1.6,2.2,2.3,2.6,2.6,3.1
			c0.3,0.5,0.5,1.7,1.2,1.7c0.4-0.1,0.8-0.3,1.1-0.6c1.7-1.6,1.8-2.4,2.1-2.4c0.3,0,2.6,0.4,3.1,1.9c0.5,1.5,0.8,4.2,1.1,4.8
			c0.4,0.6,4.7,2.7,5.4,3.5c0.8,1,1.3,2.1,1.7,3.3c0,0.7-0.1,1.3-0.4,1.9c-0.2,0.6-0.7,3.2-0.2,3.5c0.4,1,0.7,2,0.8,3.1l-6.3,2.1
			h-0.2c-0.3,0-0.9-0.3,0.4-2.2c0.9-1.2,1.7-2.6,2.4-3.9c0.3-0.8,1.1-2.1,0.6-2.1c-0.2,0-0.4,0-0.5,0c-1.3,0.7-1.5,1.8-3.9,2.1h-0.9
			c-0.9,0-1.6,0-2.5,0h-2.4c-0.7,0-1.3,0.1-1.9,0.5c-0.3,0.2-0.5,0.5-0.6,0.8C64.6,66.9,65,68,66,68.6h1.8c0.4,0,0.8,0.1,1.1,0.4
			c0.8,0.9,1.5,1.8,2.2,2.8c0.4,0.4,1.1,1.1,1.1,1.1c-0.4,1.9-2,3.4-3.9,3.6c-1.6,0.1-3.3,0-4.8-0.4c-0.5,0,1.4,1,0,3.3
			c-1.4,2.3-1.3,2.5-3.6,3.1c-1.6,0.3-3.1,1.2-3.9,2.6c-0.2,0.6-1.8,2-1.2,3.2s-0.1,2.8-1,4.9c-0.2,0.7-0.4,0.7-0.6,0.7
			s-0.5-0.1-0.7-0.3c-0.2-0.2-0.5-0.3-0.8-0.3c-0.5,0-0.9,0.4-1.5,1.9c-1.6,4.1-1.6,5.6-1.6,5.8c0.6,0.8,1,1.7,1.1,2.7
			c0,1,1.4,5.5,0.7,5.5c-1.3-0.3-2.5-1.2-3.1-2.6c-0.6-1.5-1.4-3-2.5-4.3c-1.2-1-2.7-1.6-4.2-2h-0.2c-0.6,0.4-1.4,2.3-3.2,2.3h-0.8
			c-0.6-0.2-1.2-0.3-1.9-0.3c-1,0-2,0.4-2.8,1c-1,0.7-2.9,2.9-2.7,3.6c0.1,1.1,0.1,2.3,0,3.4v4.2c0.2,1.1,0.6,2.4,1.1,3.4
			c0.5,0.6,1.2,3.2,2,3.2h2.3c0.5-0.2,2.5-1,2.7-1.6c0.2-0.7,0-1.7,0.6-2.4c0.6-0.7,1.5-1.7,2.2-1.7h0.3c0.5,0.5,1.3,1.9,1,2.6
			c-0.5,1-0.9,1.9-1.1,3c-0.2,1.3-0.4,2.6-0.4,3.9c0,1.1,0.5,1.1,1,1.1c0.3,0,0.7,0,1,0c0.5-0.1,1.3-0.9,2.1-0.9
			c0.3,0,0.7,0.2,0.8,0.5c0.8,1.7,1.4,3.5,1.9,5.4c0.1,0.6,0.5,4.7,1.4,5.4c0.8,0.6,1.6,1,2.6,1.1h0.1c0.8-0.8,1.8-1.1,2.9-1.1
			c2.2,0,3.3-0.9,3.4-1.5c0.2-0.7,2.7-1.7,3.1-1.7c0.6-0.3,1.1-0.7,1.4-1.1c0,0-1.5,4.9-1.1,5.6l0.3,0.3c0.4,0,0.4-0.7,0.4-0.7
			l0.7-3.5c0.3-0.1,0.6-0.3,0.9-0.5l2,1.1c0.6,0.4,1.2,0.7,1.9,0.8c0.4-0.1,0-0.9,1.1-0.9c0.7,0,1.3,0.2,1.9,0.4
			c3.3,1.1,4.3,0.4,4.6,2c0.2,1.1,0.7,2.3,1.2,3.3c1.1,1.1,2.3,1.9,3.6,2.6c1,0.6,1.9,1.1,3,1.4h1.5c0.5,0,0.9,0.2,1.1,0.5
			c0.9,1.6,1.5,3.4,1.9,5.3c0,0.3-0.2-0.2,0.5,1.6s1.1,2.7,1.8,2.7l1.8,0.3c1.1,0.7,2,1.4,3,2.3c0.1,0.3-0.2,1.2,0.4,1.2h2.5
			c0.9,0.1,0.9,0.9,2.3,0.9c1.4,0,2.2,1.5,3.1,2.3s1.6,1.4,2.3,1.4h0.5c0.5,0,0.9-0.6,0.9,0c0,0.6,0.3,3.2,0.3,4.3
			c0,1.2-0.4,2.5-1.1,3.4c-1.1,1.8-1.1,1.7-2,3.2c-1.4,1.6-2.2,3.7-2.2,5.8c-0.2,3.1-0.9,6.1-1.9,9c-0.4,1.4-0.9,2.9-1.4,4.3
			c-0.8,1.5-3.8,1.4-5.1,2.3c-1.5,2-2.4,4.4-2.5,6.9c0,1.1-0.3,2.3-0.9,3.3c-0.5,1.3-1.2,2.6-2.1,3.6c-1,1.3-2,2.6-3.2,3.7
			c-0.9,1.1-2.1,2.1-3.4,2.6c-0.8-0.1-1.4-0.3-2.2-0.5c-0.2,0-0.4,0.1,0,0.9c0.4,0.7,0.7,1.4,1,2.2c0.4,0.9,0.1,1.9-0.7,2.5
			c-0.6,0.8-1.3,1.4-2.3,1.7c-1,0.1-4.2-0.1-3.9,1c0.2,0.9,0.3,1.8,0.2,2.7c0,0.6-0.7,0.6-1.3,0.6h-0.9c-0.4,0-0.7,0-1.1,0
			c-0.3,0-0.4-0.3-0.5,0.6c-0.1,0.9,0.2,2.4,0.6,2.4s0,0.9-0.4,2.1c-0.4,1.2,0.3,1.4-1.1,2.3c-0.6,0.5-1.1,1-1.3,1.6
			c58.4,35.4,134.5,16.6,169.8-41.8c11.7-19.3,17.9-41.4,17.9-64C253.7,126.1,253.6,122.7,253.4,119.5L253.4,119.5z M210.2,186.6
			c-0.4,1.6-0.4,5.1-1,6.2c-0.8,1.5-1.4,3.1-2,4.6c-0.8,0.9-1.8,1.4-3,1.6c-1.1,0-0.7-1.8-1.3-2.1c-0.7-0.3,0-4.8,0-5.2
			c-0.4-1.5-0.9-3-1.6-4.3c-0.5-1.1,1.9-3.1,3-5c0.5-1,0.9-1,0.9-1h0.7c0.8-0.3,2.8-5.1,2.8-5.4s0.3-0.4,0.6-0.4
			c0.2,0,0.5,0.1,0.5,0.4c0.1,0.5-0.5,1.7-0.5,2.3l0,0c0.4,1.3,1.1,2.5,1.9,3.5C211.7,182.7,210.7,184.9,210.2,186.6z M248.9,143.4
			c-0.7-0.1-1.3-0.3-2-0.6c-0.5-0.2-0.5-1-0.5-2.3c0-1.3,0.3-0.8,0.5-1.8c0.1-0.8,0.1-1.5,0-2.3c0.4,0.2,0.7,0.5,0.8,0.9l0,0
			c0.5,0.9,0.8,1.7,1,2.7c0.3,1,0.6,1.9,0.9,2.9C249.4,143.4,249.1,143.4,248.9,143.4z"/>
		<path class="st3" d="M253.4,119.5c-1.6,1.1-0.7,1.2-2.1,2.7c-1.4,1.4-1.3,0.9-2.4,2.2c-0.6,1-1.3,1.6-2.3,2.1c-1.7,1.1,0,1,0,2
			c0,2-0.3,3.9-0.9,5.8c-0.9,2.7-0.9,3.1-1.1,3.7c-0.6,0.8-1.2,1.4-2,2c-0.4-0.7-0.7-1.3-0.8-2.1c0.1-1.4,0-2.9-0.5-4.3
			c-0.9-1.8-1.6-3.7-2.2-5.6c-0.7-3.3-1.1-6.4-1.4-9.8c-0.1-0.6-0.8-2-1.4-2h-0.3c-0.5,0.4-1,0.6-1.5,0.7H234
			c-0.5-0.3-0.4-2.1,0-2.7c0.4-0.6,0.1-0.8-0.2-0.8h-0.4c-0.6,0-1.4-0.6-2.3-2.4c-0.9-1.8-0.4-1.6-3.2-1.8c-2.8-0.2-2.1-0.5-5.4-2.1
			c-1.1-0.7-2.4-1.1-3.6-1.4c-1.1,0.2-2,0.3-3.1,0.3h-1c-1.4-0.3-2-1.3-4.2-3.3s-1.2-1.7-1.7-2.7c-0.1-0.3-0.4-0.5-0.7-0.5
			c-0.7,0.1-1.1,0.5-1.4,1.1c-0.4,0.9,1,3.3,1.1,4.3c0.7,2.7,2,5.1,3.9,7c0.8,0.8,1.2,1.1,1.6,1.1c1,0,0.7-2.2,1.1-2.4
			c0.5-0.2,0.9-2,0.9-2c0.8,1.1,1.8,2,3,2.7c1.1,0.8,2,1.8,2.4,3.2c0,0,0,0.1,0.1,0.1c0.6,1.1,0.2,2.6-0.9,3.3s-1.6,1.8-1.6,3.1
			c-0.6,1.7-2.1,3-3.9,3.2c-2.7,0.6-2.2,1.7-3,2.5c-1.7,1.5-3.7,2.9-5.9,3.7c-0.8,0.3-1.6,0.5-2.4,0.5c-1,0-1.6-0.2-1.6-0.5v-3.3
			c-0.4-1.8-0.9-3.5-1.5-5.3c-0.6-1.3-1.4-2.5-2.6-3.3c-0.9-1.1-0.3-1.5-0.7-4.3c-0.4-2.8-1.3-1.4-2-3.3c-0.4-1.5-0.9-3.1-1.4-4.5
			c-0.7-1.1-1.6-2.1-2.9-2.7c-0.5,0-0.6,1.3-0.5,2s2.8,8.4,2.8,9.9c1,3.5,2.4,6.9,4.1,10c1.2,1.8,2,3.8,2.5,6c1.1,4,1.8,2,3.6,3.3
			c0.4,0.3,0.9,0.5,1.3,0.5c1.1,0,2-0.9,3.5-1.2c0.7-0.2,1.4-0.3,2.1-0.4c0,0,0.4,2.9,0.8,3.8c0.4,1-2.6,5-3.6,7
			c-1.1,2-7.5,11.9-8.2,12.9c-1.3,4.5-1.7,9.3-1.1,14c1.1,4,0,4.4,0,9c0,4.6-3.4,5.5-5.2,7.6c-1.7,2-0.5,4-0.5,6.6
			c-0.2,2-1.2,3.9-2.9,5.2c-0.6,0.4-1.3,2.6-1.9,3.3c-1,1.3-1.4,3-1.3,4.6c0.1,1.5-0.5,3.2-1.5,4.3c-0.9,0.7-3.3,1.1-5.7,2.7
			c-1,0.6-2,0.9-3.1,0.8c-1.8,0-3.5-0.4-5.3-1.1c-1.1-0.7,0.2-0.9,0.8-3.3c0.6-2.5-2.6-5.4-3.4-6.8c-0.9-1.4-1.6-0.6-1.6-3.6
			c0.1-2.3,0-4.7-0.2-7c-0.7-2.7-1.5-5.4-2.6-8c-0.1-3.3,0.4-6.5,1.4-9.6c0.8-1.3,1.1-2.8,1-4.3c-0.2-1.1-4.7-10.8-5.4-12.8
			c-0.8-2-0.5-2.4-0.7-4.3s0.2-2,0.7-3.8c0.1-1.8-0.6-3.6-1.9-4.9h-0.4c-0.4,0-0.8,0.4-2,0.9h-0.8c-0.7,0,0-0.7-0.3-1.3
			s-0.7-0.8-1.9-2.7c-0.4-0.7-0.5-0.9-1-0.9c-0.5,0-0.8,1-1.5,1.5c-0.9,0.7-1.7,1.3-2.5,2.1c-0.4,0.3-0.8,0.6-1.2,0.6
			c-0.6,0-1-0.6-1.8-0.9c-0.3-0.2-0.7-0.3-1-0.3s-0.5,0.3-1.5,0.8c-1.1,0.6-2.2,0.9-3.4,0.8h-1c-2.3,0-1.9-1.3-3.3-3.3
			s-2.8-3.9-4.3-5.7c-0.9-1.1-1.4-2.3-1.7-3.5c-0.2-1.1-0.3-3-0.5-3.6c-0.3-2.6-0.3-5.1-0.2-7.6c0.1-1.7,0.2-2.3-0.2-3
			c-0.4-0.7,0.9-5,1.1-6c0.2-1,1.2-3.3,1.4-4.3c0.8-2.1,1.9-3.9,3.3-5.6c0.9-0.6,1.8-1.1,2.9-1.5c0.4-0.3-0.5-3.5,0-4.5
			s1.8-1.9,3.2-3.8c0.8-1,1.4-2.1,2-3.3c0.4-0.9-1.1-1.7-1.6-1.7c-1.1-0.7-1.8-1.7-2.2-2.9c-0.7-1.5,0.2-1.6,0.8-2.4
			c0.5-1.4,0.4-3-0.2-4.3c-0.2-1.1-0.1-2.4,0.4-3.5c0,0,2.5,0.5,4.5,1.1c0.4,0.1,0.8,0.2,1.1,0.2c0.8,0,0.5-0.4,2.2-1.2
			s0.9-2.1,0.5-3.4c-0.4-1.3-2.9-2.2-3.6-2.6c-0.8-0.4-1-1.8,1.1-2c2-0.2,1.4-0.8,4.2-1.7c2.8-1,2-1.7,2.8-2.9
			c0.7-1.1,1.7-1.7,2.9-1.8c1.1,0,1.6-1.2,2.7-1.7c0.9-0.7,1.3-1.8,1.1-2.9c-0.1-0.9,0-3.6,0.9-4.3c0.4-0.3,1-0.5,1.4-0.5
			c0.5,0,0.9-0.1,1.1,0.5s0.8,1.5,1.2,1.5c0.6-0.5,0.8-1.3,0.5-2c-0.7-1.1-1.2-2.2-1.6-3.4c-0.2-0.5,0.1-0.5-0.2-0.5
			s-0.8,1.9-2.1,1.9h-1.9c-0.2,0.1-0.4,0.1-0.7,0c-0.6-1.1-1-2.4-1-3.6c-0.1-1.2-0.6-0.5-1.4-2.5c-0.9-2,1.5-1.3,2.5-2.1
			c1-0.8,3.1-1.4,4.8-2.4c1.2-0.7,2.4-1.7,3.2-2.9c0.5-1.2,0.8-2.6,1-3.9c0.5-0.9,1.3-1.2,2.3-1.1h1.8c0.5,0.1,1.1,0.1,1.5,0
			c2.4-0.7,1.5-0.5,3.9-2c0.7-0.5,1.5-0.8,2.4-0.8c2,0.3,4,0.7,5.9,1.1c0.8,0.2,1.6,0.3,2.5,0.4c0.5,0.1,0.9,0.1,1.3,0
			c0.4-0.1,0.9-0.1,1.2,0c0.8,0,1.4,0.1,2.2,0.3c3.1,0.5,5.8,1.8,8.2,3.7c0.7,1-0.5,1-0.7,1.1c-2.3,0.5-4.6,0.8-7,0.8h-0.2
			c-0.6,0.1-1.1-0.1-1.6-0.4c-0.3-0.4-0.4-0.4-0.7-0.4h-0.6c-1.3,0.5-0.2,0.3,1.4,2.9c0.7,1.1,1.1,1.4,1.4,1.4
			c0.4,0,0.4-0.6,0.7-0.6s4.2,1.3,5.4,1.6c1.1,0,0.6-2.3,1.1-3.3s3.9-1,3.9-1.5c-0.3-1.1-0.1-2.2,0.4-3.3c0.4-0.6,0.4-0.9,1-0.9
			s1,0.5,0,1.4c-1,1-0.3,1.9,0,1.9c0.1-0.3,3.7-0.8,5.2-1.2c-26.3-21.3-60-31.2-93.6-27.2c2.1,0.3,4.2,0.9,6.3,1.6
			c0.7,0.3,1.4,0.4,2.2,0.4h3.1c1.8-0.2,3.7,0.1,5.4,0.7c0.1,0.4-0.4,0.6-1.9,1.2c-1.5,0.7-4,0.6-6.1,1.1c-2.1,0.6-1.1,1.8-1.1,3.2
			c0.1,1.8-0.4,3.5-1.1,5.2c-0.7,1.1-3.2,2.6-3.2,3.1c0.5,0.9,1,1.7,1.6,2.6c0.5,0.9,0.5,0.9,0,0.9c-0.9-0.2-1.8-0.4-2.8-0.5h-0.5
			c-0.2,0-0.4,0-0.5,0.1c-0.6,0.3-1,1-0.8,1.5c0,0,3.2,1.9,3.6,3.1c0.5,1.1-1.6,1.3-5.3,2c-3.6,0.7-3,1.1-3.9,1.8
			c-2.1,1.3-4.6,2.1-7.1,2.3c-3.4,0.2-3.1,1.9-3.9,2.6c-0.9,0.7-1.2,2.9-1.4,3.8c-0.6,1.3-1.6,2.5-3,3.2h-0.4
			c-1.3-0.2-2.6-0.7-3.7-1.4c-2.4-1.3-2.5-0.7-3.1-1.3c-0.6-0.7-1.9-2.4-3-3.5c-1.1-1.1-3.3-2.7-3.3-3.4c-0.1-0.8,1-1.3,1.6-2.2
			c0.7-0.9,2.6-2.4,2.8-3.4c0.3-1.1-0.3-2.3-1.3-2.9c-0.3-0.1-0.6-0.1-0.8,0h-0.9c-0.7,0-1.2-0.2-1.7-0.7c-1.1-1,1-1.1,1.6-1.1
			c-0.8-0.1-1.4-0.3-2.1-0.5c-1.5-0.5-1.8-2.7-3.1-4.8c-0.8-1.5-1.3-1.5-1.9-1.5h-1c-0.2,0-0.5-0.1-0.9-0.2
			c-4.7,2.4-9.3,5.2-13.7,8.1c0.2,0.1,0.3,0.3,0.5,0.4c0.7,0.4,1.9,1.1,1.9,1.1c0.5,0.6,1,1.1,1.3,1.7c0.8,1.1,1.1,1.5,3,2
			c1.8,0.5,2.1,1.3,4.6,1.9c2.5,0.6,0.5,1.1,0,1.6c-0.5,0.5-1.3,2.1-1.7,2.1c-1.3-0.5-2.5-1.3-3.4-2.4c-0.3-0.5-0.8-0.9-1.3-1
			c-0.4,0-0.4,0.2-0.4,0.8c0.5,1.2,1.3,2.3,2.5,3c0.7,0.4,1.1,1.9,1.1,1.9c-0.7,0.3-1.4,0.5-2.2,0.5h-0.5c-0.3,0-0.7,0-1,0
			c-0.4,0-0.8,0.2-0.4,0.6c0.6,0.6,1.2,1,1.9,1.3c-0.7,0.2-1.3,0.3-2,0.3c-0.6,0.1-1.1-0.1-1.6-0.5c-0.8-0.9-1.7-1.4-2.9-1.7
			c-1.9-0.8-2.5-1.6-3-1.6h-3.3c0,0-0.6-1.2,1.1-1.4c1.6-0.4,3-1.3,3.9-2.7c0.4-0.7,1.8-2,1.1-2.4c-0.7-0.4,2.6,0-2.5-1.6
			c-0.6-0.2-1.1-0.4-1.6-0.5c-7.8,5.9-14.9,12.8-21.1,20.5c0.3,0.7,0,1.3,2.1,2c2.3,0.8,2-0.1,3.9,0.7c1.2,0.4,2.4,0.9,3.5,1.4
			c1.1,0.7,1,0.4,2,2.2c0.9,1.7,1.9,3.3,3.1,4.9c0.4,0.3,0,0.6,0.4,0.6h1.5c0.4,0,0.4,0.5,0.7-0.9c0.3-1.3,0.7,0.2,0.4-2.2
			c-0.1-1.1-0.3-2-0.6-3c0.2,0,0.3,0.5,1.2-1.5c1-2,2.2-0.7,1.2-3.3c-1-2.6-0.7-2.6-1.1-3.3s-1.5-1.8-1-2.9c0.6-1.1-2.1-2.9,1.1-2.9
			c0.8,0,1.5-0.1,2.3-0.3c0.7,0.1,1.2,0.2,1.8,0.4c0.6,0.2,1.1,0.3,1.6,0.3h1.8c0.6,0,1.1,0.2,1.7,1.1c1.6,2.2,2.3,2.6,2.6,3.1
			c0.3,0.5,0.5,1.7,1.2,1.7c0.4-0.1,0.8-0.3,1.1-0.6c1.7-1.6,1.8-2.4,2.1-2.4c0.3,0,2.6,0.4,3.1,1.9c0.5,1.5,0.8,4.2,1.1,4.8
			c0.4,0.6,4.7,2.7,5.4,3.5c0.8,1,1.3,2.1,1.7,3.3c0,0.7-0.1,1.3-0.4,1.9c-0.2,0.6-0.7,3.2-0.2,3.5c0.4,1,0.7,2,0.8,3.1l-6.3,2.1
			h-0.2c-0.3,0-0.9-0.3,0.4-2.2c0.9-1.2,1.7-2.6,2.4-3.9c0.3-0.8,1.1-2.1,0.6-2.1c-0.2,0-0.4,0-0.5,0c-1.3,0.7-1.5,1.8-3.9,2.1h-0.9
			c-0.9,0-1.6,0-2.5,0h-2.4c-0.7,0-1.3,0.1-1.9,0.5c-0.3,0.2-0.5,0.5-0.6,0.8C64.6,66.9,65,68,66,68.6h1.8c0.4,0,0.8,0.1,1.1,0.4
			c0.8,0.9,1.5,1.8,2.2,2.8c0.4,0.4,1.1,1.1,1.1,1.1c-0.4,1.9-2,3.4-3.9,3.6c-1.6,0.1-3.3,0-4.8-0.4c-0.5,0,1.4,1,0,3.3
			c-1.4,2.3-1.3,2.5-3.6,3.1c-1.6,0.3-3.1,1.2-3.9,2.6c-0.2,0.6-1.8,2-1.2,3.2s-0.1,2.8-1,4.9c-0.2,0.7-0.4,0.7-0.6,0.7
			s-0.5-0.1-0.7-0.3c-0.2-0.2-0.5-0.3-0.8-0.3c-0.5,0-0.9,0.4-1.5,1.9c-1.6,4.1-1.6,5.6-1.6,5.8c0.6,0.8,1,1.7,1.1,2.7
			c0,1,1.4,5.5,0.7,5.5c-1.3-0.3-2.5-1.2-3.1-2.6c-0.6-1.5-1.4-3-2.5-4.3c-1.2-1-2.7-1.6-4.2-2h-0.2c-0.6,0.4-1.4,2.3-3.2,2.3h-0.8
			c-0.6-0.2-1.2-0.3-1.9-0.3c-1,0-2,0.4-2.8,1c-1,0.7-2.9,2.9-2.7,3.6c0.1,1.1,0.1,2.3,0,3.4v4.2c0.2,1.1,0.6,2.4,1.1,3.4
			c0.5,0.6,1.2,3.2,2,3.2h2.3c0.5-0.2,2.5-1,2.7-1.6c0.2-0.7,0-1.7,0.6-2.4c0.6-0.7,1.5-1.7,2.2-1.7h0.3c0.5,0.5,1.3,1.9,1,2.6
			c-0.5,1-0.9,1.9-1.1,3c-0.2,1.3-0.4,2.6-0.4,3.9c0,1.1,0.5,1.1,1,1.1c0.3,0,0.7,0,1,0c0.5-0.1,1.3-0.9,2.1-0.9
			c0.3,0,0.7,0.2,0.8,0.5c0.8,1.7,1.4,3.5,1.9,5.4c0.1,0.6,0.5,4.7,1.4,5.4c0.8,0.6,1.6,1,2.6,1.1h0.1c0.8-0.8,1.8-1.1,2.9-1.1
			c2.2,0,3.3-0.9,3.4-1.5c0.2-0.7,2.7-1.7,3.1-1.7c0.6-0.3,1.1-0.7,1.4-1.1c0,0-1.5,4.9-1.1,5.6l0.3,0.3c0.4,0,0.4-0.7,0.4-0.7
			l0.7-3.5c0.3-0.1,0.6-0.3,0.9-0.5l2,1.1c0.6,0.4,1.2,0.7,1.9,0.8c0.4-0.1,0-0.9,1.1-0.9c0.7,0,1.3,0.2,1.9,0.4
			c3.3,1.1,4.3,0.4,4.6,2c0.2,1.1,0.7,2.3,1.2,3.3c1.1,1.1,2.3,1.9,3.6,2.6c1,0.6,1.9,1.1,3,1.4h1.5c0.5,0,0.9,0.2,1.1,0.5
			c0.9,1.6,1.5,3.4,1.9,5.3c0,0.3-0.2-0.2,0.5,1.6s1.1,2.7,1.8,2.7l1.8,0.3c1.1,0.7,2,1.4,3,2.3c0.1,0.3-0.2,1.2,0.4,1.2h2.5
			c0.9,0.1,0.9,0.9,2.3,0.9c1.4,0,2.2,1.5,3.1,2.3s1.6,1.4,2.3,1.4h0.5c0.5,0,0.9-0.6,0.9,0c0,0.6,0.3,3.2,0.3,4.3
			c0,1.2-0.4,2.5-1.1,3.4c-1.1,1.8-1.1,1.7-2,3.2c-1.4,1.6-2.2,3.7-2.2,5.8c-0.2,3.1-0.9,6.1-1.9,9c-0.4,1.4-0.9,2.9-1.4,4.3
			c-0.8,1.5-3.8,1.4-5.1,2.3c-1.5,2-2.4,4.4-2.5,6.9c0,1.1-0.3,2.3-0.9,3.3c-0.5,1.3-1.2,2.6-2.1,3.6c-1,1.3-2,2.6-3.2,3.7
			c-0.9,1.1-2.1,2.1-3.4,2.6c-0.8-0.1-1.4-0.3-2.2-0.5c-0.2,0-0.4,0.1,0,0.9c0.4,0.7,0.7,1.4,1,2.2c0.4,0.9,0.1,1.9-0.7,2.5
			c-0.6,0.8-1.3,1.4-2.3,1.7c-1,0.1-4.2-0.1-3.9,1c0.2,0.9,0.3,1.8,0.2,2.7c0,0.6-0.7,0.6-1.3,0.6h-0.9c-0.4,0-0.7,0-1.1,0
			c-0.3,0-0.4-0.3-0.5,0.6c-0.1,0.9,0.2,2.4,0.6,2.4s0,0.9-0.4,2.1c-0.4,1.2,0.3,1.4-1.1,2.3c-0.6,0.5-1.1,1-1.3,1.6
			c58.4,35.4,134.5,16.6,169.8-41.8c11.7-19.3,17.9-41.4,17.9-64C253.7,126.1,253.6,122.7,253.4,119.5L253.4,119.5z M210.2,186.6
			c-0.4,1.6-0.4,5.1-1,6.2c-0.8,1.5-1.4,3.1-2,4.6c-0.8,0.9-1.8,1.4-3,1.6c-1.1,0-0.7-1.8-1.3-2.1c-0.7-0.3,0-4.8,0-5.2
			c-0.4-1.5-0.9-3-1.6-4.3c-0.5-1.1,1.9-3.1,3-5c0.5-1,0.9-1,0.9-1h0.7c0.8-0.3,2.8-5.1,2.8-5.4s0.3-0.4,0.6-0.4
			c0.2,0,0.5,0.1,0.5,0.4c0.1,0.5-0.5,1.7-0.5,2.3l0,0c0.4,1.3,1.1,2.5,1.9,3.5C211.7,182.7,210.7,184.9,210.2,186.6z M248.9,143.4
			c-0.7-0.1-1.3-0.3-2-0.6c-0.5-0.2-0.5-1-0.5-2.3c0-1.3,0.3-0.8,0.5-1.8c0.1-0.8,0.1-1.5,0-2.3c0.4,0.2,0.7,0.5,0.8,0.9l0,0
			c0.5,0.9,0.8,1.7,1,2.7c0.3,1,0.6,1.9,0.9,2.9C249.4,143.4,249.1,143.4,248.9,143.4z"/>
		<g class="st4">
			<path class="st5" d="M253.5,119.4L253.5,119.4c-1.7,1.1-0.8,1.3-2.2,2.8c-1.4,1.4-1.3,0.9-2.4,2.2c-0.6,1-1.3,1.6-2.3,2.1
				c-1.7,1.1,0,1,0,2c0,2-0.3,3.9-0.9,5.8c-0.9,2.7-0.9,3.1-1.1,3.7c-0.6,0.8-1.2,1.4-2,2c-0.4-0.7-0.7-1.3-0.8-2.1
				c0.1-1.4,0-2.9-0.5-4.3c-0.9-1.8-1.6-3.7-2.2-5.6c-0.7-3.3-1.1-6.4-1.4-9.8c-0.1-0.6-0.8-2-1.4-2h-0.3c-0.5,0.4-1,0.6-1.5,0.7
				H234c-0.5-0.3-0.4-2.1,0-2.7s0.1-0.9-0.2-0.9h-0.4c-0.6,0-1.4-0.6-2.3-2.4c-0.9-1.8-0.4-1.6-3.2-1.8c-2.8-0.2-2.1-0.5-5.4-2.1
				c-1.1-0.7-2.4-1.1-3.6-1.4c-1.1,0.2-2,0.3-3.1,0.3h-1c-1.4-0.3-2-1.3-4.2-3.3c-2.2-2-1.2-1.7-1.7-2.7c-0.1-0.3-0.4-0.5-0.7-0.5
				c-0.7,0.1-1.1,0.5-1.4,1.1c-0.4,0.9,1,3.3,1.1,4.3c0.7,2.7,2,5.1,3.9,7c0.8,0.8,1.2,1.1,1.6,1.1c1,0,0.7-2.2,1.1-2.4
				c0.5-0.2,0.9-2,0.9-2c0.8,1.1,1.8,2,3.1,2.7c1.1,0.8,2,1.8,2.4,3.2v0.1c0.6,1.1,0.2,2.6-0.9,3.3c-1.1,0.7-1.6,1.8-1.6,3.1
				c-0.6,1.7-2.1,3-3.9,3.2c-2.7,0.6-2.2,1.7-3,2.5c-1.7,1.5-3.7,2.9-5.9,3.7c-0.8,0.3-1.6,0.5-2.4,0.5c-1,0-1.6-0.2-1.6-0.5v-3.3
				c-0.4-1.8-0.9-3.5-1.5-5.3c-0.6-1.3-1.4-2.5-2.6-3.3c-1-1.1-0.3-1.5-0.7-4.3c-0.4-2.8-1.3-1.4-2-3.3c-0.4-1.5-0.9-3.1-1.4-4.5
				c-0.7-1.1-1.6-2.1-2.9-2.7c-0.5,0-0.6,1.3-0.5,2c0.2,0.7,2.8,8.4,2.8,9.9c1,3.5,2.4,6.9,4.1,10c1.2,1.8,2,3.8,2.5,6
				c1.1,4,1.8,2,3.6,3.3c0.4,0.3,0.9,0.5,1.3,0.5c1.1,0,2-1,3.5-1.2c0.7-0.2,1.4-0.3,2.1-0.4c0,0,0.4,2.9,0.8,3.8c0.4,1-2.6,5-3.6,7
				c-1.1,2-7.5,11.9-8.1,12.9c-1.3,4.5-1.7,9.3-1.1,14c1.1,4,0,4.4,0,9.1c0,4.6-3.4,5.5-5.2,7.6c-1.7,2-0.5,4-0.5,6.5
				c-0.2,2-1.2,3.9-2.9,5.2c-0.6,0.4-1.2,2.6-1.9,3.3c-1,1.3-1.4,3-1.3,4.6c0.1,1.5-0.5,3.2-1.5,4.3c-0.9,0.7-3.3,1.1-5.7,2.7
				c-1,0.6-2,0.9-3.1,0.8c-1.8,0-3.5-0.4-5.3-1.1c-1.1-0.7,0.2-0.9,0.8-3.3c0.6-2.6-2.6-5.4-3.4-6.8c-0.9-1.4-1.6-0.6-1.6-3.6
				c0.1-2.3,0-4.7-0.2-7c-0.7-2.7-1.5-5.4-2.6-8c-0.1-3.3,0.4-6.5,1.4-9.6c0.8-1.3,1.1-2.8,1-4.3c-0.2-1.1-4.7-10.8-5.4-12.8
				c-0.9-2-0.5-2.4-0.7-4.3s0.2-2,0.7-3.8c0.1-1.8-0.6-3.6-1.9-4.9h-0.5c-0.4,0-0.8,0.5-2,0.9h-0.8c-0.7,0,0-0.7-0.3-1.3
				c-0.3-0.7-0.7-0.8-1.9-2.7c-0.4-0.7-0.5-0.9-1-0.9c-0.5,0-0.8,1-1.5,1.5c-0.9,0.7-1.7,1.3-2.5,2.1c-0.4,0.3-0.8,0.6-1.2,0.6
				c-0.6,0-1-0.6-1.8-0.9c-0.3-0.2-0.7-0.3-1-0.3s-0.5,0.3-1.5,0.8c-1.1,0.6-2.2,0.9-3.4,0.8h-1c-2.3,0-1.9-1.3-3.2-3.3
				c-1.3-2-2.8-3.9-4.3-5.7c-0.9-1.1-1.4-2.3-1.7-3.5c-0.2-1.1-0.3-3-0.5-3.6c-0.3-2.6-0.3-5.1-0.2-7.6c0.1-1.7,0.2-2.3-0.2-3
				c-0.5-0.7,0.9-5,1.1-6c0.2-1,1.2-3.3,1.4-4.3c0.8-2.1,1.9-3.9,3.3-5.6c0.9-0.6,1.8-1.1,2.9-1.5c0.4-0.3-0.5-3.5,0-4.5
				c0.5-1,1.8-1.9,3.2-3.8c0.8-1,1.4-2.1,1.9-3.3c0.4-0.9-1.1-1.7-1.6-1.7c-1.1-0.7-1.8-1.7-2.2-2.9c-0.7-1.5,0.2-1.6,0.8-2.4
				c0.5-1.4,0.4-3-0.2-4.3c-0.2-1.1-0.1-2.4,0.4-3.5c0,0,2.5,0.5,4.5,1.1c0.4,0.1,0.8,0.2,1.1,0.2c0.8,0,0.5-0.4,2.2-1.2
				c1.6-1,0.9-2.1,0.5-3.4c-0.4-1.3-2.9-2.2-3.6-2.6c-0.8-0.4-1-1.8,1.1-2c2-0.2,1.4-0.8,4.2-1.7s2-1.7,2.8-2.9
				c0.7-1.1,1.7-1.7,2.9-1.8c1.1,0,1.6-1.3,2.7-1.8c0.9-0.7,1.3-1.8,1.1-2.9c-0.1-0.9,0-3.6,0.9-4.3c0.4-0.3,1-0.5,1.4-0.5
				c0.5,0,0.9-0.1,1.1,0.5c0.3,0.6,0.8,1.5,1.2,1.5c0.6-0.5,0.8-1.3,0.5-2c-0.7-1.1-1.2-2.2-1.6-3.4c-0.2-0.5,0.1-0.5-0.2-0.5
				s-0.8,1.9-2.1,1.9h-1.9c-0.2,0.1-0.4,0.1-0.7,0c-0.6-1.1-1-2.4-1-3.6s-0.6-0.4-1.4-2.5c-0.9-2.1,1.5-1.3,2.5-2.1
				c1-0.7,3.1-1.4,4.8-2.4c1.2-0.7,2.4-1.7,3.2-2.9c0.5-1.2,0.8-2.6,1-3.9c0.5-0.9,1.3-1.2,2.3-1.1h1.8c0.5,0.1,1.1,0.1,1.5,0
				c2.4-0.7,1.5-0.5,3.9-2c0.7-0.5,1.5-0.8,2.4-0.8c2,0.3,4,0.7,5.9,1.1c0.8,0.2,1.6,0.3,2.5,0.4c0.5,0.1,0.9,0.1,1.3,0
				c0.4-0.1,0.9-0.1,1.2,0c0.8,0,1.4,0.1,2.2,0.3c3.1,0.5,5.8,1.8,8.2,3.7c0.7,1-0.5,1-0.7,1.1c-2.3,0.5-4.6,0.8-7,0.8h-0.2
				c-0.6,0.1-1.1-0.1-1.6-0.4c-0.3-0.4-0.4-0.4-0.7-0.4h-0.6c-1.3,0.5-0.2,0.3,1.4,2.9c0.7,1.1,1.1,1.4,1.4,1.4
				c0.4,0,0.5-0.6,0.7-0.6s4.2,1.3,5.4,1.6c1.1,0,0.6-2.3,1.1-3.3c0.5-1,3.9-1,3.9-1.5c-0.3-1.1-0.1-2.2,0.4-3.3
				c0.4-0.6,0.5-0.9,1-0.9c0.5,0,1,0.5,0,1.4c-1,1-0.3,1.9,0,1.9c0.1-0.3,3.7-0.8,5.2-1.2c-26.4-21.1-60.1-31-93.7-27
				c2.1,0.3,4.2,0.9,6.2,1.6c0.7,0.3,1.4,0.4,2.2,0.4h3.1c1.8-0.2,3.7,0.1,5.4,0.7c0.1,0.4-0.4,0.6-1.9,1.2c-1.5,0.6-4,0.6-6.1,1.1
				c-2.1,0.5-1.1,1.8-1.1,3.2c0.1,1.8-0.4,3.5-1.1,5.2c-0.7,1.1-3.2,2.6-3.2,3.1c0.5,0.9,1,1.7,1.6,2.6c0.5,0.8,0.5,0.8,0,0.8
				c-0.9-0.2-1.8-0.4-2.8-0.5h-0.5c-0.2,0-0.4,0-0.5,0.1c-0.6,0.3-1,1-0.8,1.5c0,0,3.2,1.9,3.6,3.1c0.5,1.1-1.6,1.2-5.3,2
				c-3.6,0.7-3,1.1-3.9,1.8c-2.1,1.3-4.6,2.1-7.1,2.3c-3.3,0.2-3.1,1.9-3.9,2.6c-0.9,0.7-1.2,2.9-1.4,3.8c-0.6,1.3-1.6,2.5-3,3.2
				h-0.4c-1.3-0.2-2.6-0.7-3.7-1.4c-2.4-1.3-2.5-0.7-3.1-1.3c-0.7-0.7-1.9-2.4-3-3.5s-3.3-2.7-3.3-3.4c-0.1-0.8,1-1.2,1.6-2.2
				c0.7-1,2.6-2.4,2.8-3.4c0.3-1.1-0.3-2.3-1.3-2.9c-0.3-0.1-0.6-0.1-0.8,0h-1c-0.7,0-1.2-0.2-1.7-0.7c-1.1-1,1-1.1,1.6-1.1
				c-0.8-0.1-1.4-0.3-2.1-0.5c-1.5-0.5-1.8-2.7-3.1-4.8c-0.8-1.5-1.4-1.5-1.9-1.5h-1c-0.2,0-0.5-0.1-0.9-0.2
				c-4.7,2.4-9.3,5.2-13.7,8.1c0.2,0.1,0.3,0.3,0.5,0.4c0.7,0.4,1.9,1.1,1.9,1.1c0.5,0.6,1,1.1,1.3,1.7c0.8,1.1,1.1,1.5,3,2
				c1.8,0.5,2.1,1.3,4.6,1.9c2.5,0.6,0.5,1.1,0,1.6c-0.5,0.5-1.3,2.1-1.7,2.1c-1.3-0.5-2.5-1.3-3.4-2.4c-0.3-0.5-0.8-0.9-1.3-1
				c-0.4,0-0.4,0.2-0.4,0.8c0.5,1.2,1.3,2.3,2.5,3c0.7,0.4,1.1,1.9,1.1,1.9c-0.7,0.3-1.4,0.5-2.2,0.5h-0.5c-0.3,0-0.7,0-1,0
				c-0.4,0-0.8,0.2-0.4,0.6c0.6,0.6,1.2,1,1.9,1.3c-0.7,0.2-1.3,0.3-2,0.3c-0.6,0.1-1.1-0.1-1.6-0.5c-0.8-0.9-1.7-1.4-2.9-1.7
				c-1.9-0.8-2.5-1.6-3-1.6h-3.3c0,0-0.6-1.2,1.1-1.4c1.6-0.4,3-1.3,3.9-2.7c0.4-0.7,1.8-2,1.1-2.4c-0.8-0.3,2.6,0-2.5-1.6
				c-0.6-0.2-1.1-0.4-1.6-0.5c-7.8,5.9-14.9,12.8-21.1,20.5c0.3,0.7,0,1.3,2.1,2c2.3,0.8,2-0.1,3.9,0.7c1.2,0.4,2.4,0.9,3.5,1.4
				c1.1,0.7,1,0.4,2,2.2c0.9,1.7,1.9,3.3,3.1,4.9c0.4,0.3,0,0.6,0.4,0.6H51c0.4,0,0.4,0.5,0.7-0.9c0.3-1.3,0.7,0.2,0.4-2.2
				c-0.1-1.1-0.3-2-0.6-3c0.2,0,0.3,0.5,1.2-1.5c1-2,2.2-0.7,1.2-3.3c-1-2.6-0.7-2.6-1.1-3.3s-1.5-1.8-1-2.9
				c0.6-1.1-2.1-2.9,1.1-2.9c0.8,0,1.5-0.1,2.3-0.3c0.7,0.1,1.2,0.2,1.8,0.4c0.6,0.2,1.1,0.3,1.6,0.3h1.8c0.6,0,1.1,0.2,1.7,1.1
				c1.6,2.2,2.3,2.6,2.6,3.1s0.5,1.7,1.1,1.7c0.4-0.1,0.8-0.3,1.1-0.6c1.7-1.6,1.8-2.4,2.1-2.4c0.3,0,2.5,0.4,3.1,1.9
				c0.6,1.5,0.8,4.2,1.1,4.8c0.4,0.6,4.7,2.7,5.4,3.5c0.8,1,1.3,2.1,1.7,3.3c0,0.7-0.1,1.3-0.4,1.9c-0.2,0.6-0.7,3.2-0.2,3.5
				c0.4,1,0.7,2,0.8,3.1l-6.2,2.1h-0.2c-0.3,0-0.9-0.3,0.5-2.2c0.9-1.2,1.7-2.6,2.4-3.9c0.3-0.8,1.1-2,0.6-2c-0.2,0-0.4,0-0.5,0
				c-1.3,0.7-1.5,1.8-3.9,2.1h-0.9c-0.9,0-1.6,0-2.5,0h-2.4c-0.7,0-1.3,0.1-1.9,0.6c-0.3,0.2-0.5,0.5-0.6,0.8
				C64.6,67,65,68.1,66,68.7h1.8c0.4,0,0.8,0.1,1.1,0.4c0.8,0.9,1.5,1.8,2.2,2.8c0.5,0.4,1.1,1.1,1.1,1.1c-0.4,1.9-2,3.4-3.9,3.6
				c-1.6,0.1-3.3,0-4.8-0.4c-0.5,0,1.4,1,0,3.3c-1.4,2.3-1.3,2.5-3.6,3.1c-1.6,0.3-3.1,1.2-3.9,2.6c-0.2,0.6-1.8,2-1.2,3.2
				s-0.1,2.8-1,4.9c-0.2,0.7-0.4,0.7-0.6,0.7s-0.5-0.1-0.7-0.3c-0.2-0.2-0.5-0.3-0.8-0.3c-0.4,0-0.9,0.5-1.5,1.9
				c-1.6,4.2-1.6,5.6-1.6,5.8c0.6,0.8,1,1.7,1.1,2.7c0,1,1.4,5.5,0.7,5.5c-1.3-0.3-2.5-1.2-3-2.6c-0.6-1.5-1.4-3-2.5-4.3
				c-1.2-1-2.7-1.6-4.2-2.1h-0.2c-0.6,0.4-1.4,2.3-3.2,2.3h-0.8c-0.6-0.2-1.2-0.3-1.9-0.3c-1,0-2,0.4-2.8,1c-1,0.7-2.9,2.9-2.7,3.6
				c0.1,1.1,0.1,2.3,0,3.4v4.2c0.2,1.1,0.6,2.4,1.1,3.4c0.5,0.6,1.2,3.2,2,3.2h2.3c0.5-0.2,2.5-1,2.7-1.6c0.2-0.7,0-1.7,0.6-2.4
				s1.5-1.7,2.2-1.7h0.3c0.5,0.5,1.3,1.9,1,2.6c-0.5,1-0.9,1.9-1.1,3c-0.2,1.3-0.4,2.6-0.4,3.9c0,1.1,0.5,1.1,1,1.1c0.3,0,0.7,0,1,0
				c0.5-0.1,1.3-0.9,2.1-0.9c0.3,0,0.7,0.2,0.8,0.5c0.8,1.7,1.4,3.5,1.9,5.4c0.1,0.6,0.5,4.7,1.4,5.4c0.8,0.6,1.6,1,2.6,1.1h0
				c0.8-0.8,1.8-1.1,2.9-1.1c2.2,0,3.3-0.9,3.4-1.5c0.2-0.7,2.7-1.7,3.1-1.7c0.6-0.3,1.1-0.7,1.4-1.1c0,0-1.5,4.9-1.1,5.6l0.3,0.3
				c0.4,0,0.4-0.7,0.4-0.7l0.7-3.5c0.3-0.1,0.6-0.3,0.9-0.5l2,1.1c0.6,0.4,1.2,0.7,1.9,0.8c0.4-0.1,0-0.9,1.1-0.9
				c0.7,0,1.3,0.2,1.9,0.4c3.3,1.1,4.3,0.4,4.6,2c0.2,1.1,0.7,2.3,1.2,3.3c1.1,1.1,2.3,1.9,3.6,2.6c1,0.6,1.9,1.1,3,1.4h1.5
				c0.5,0,0.9,0.2,1.1,0.5c0.9,1.6,1.5,3.4,1.9,5.3c0,0.3-0.2-0.2,0.5,1.6s1.1,2.7,1.8,2.7l1.8,0.3c1.1,0.7,2,1.4,3,2.3
				c0.1,0.3-0.2,1.2,0.4,1.2h2.5c0.9,0.1,0.9,0.9,2.3,0.9c1.4,0.1,2.2,1.5,3.1,2.3c1,0.8,1.5,1.4,2.3,1.4h0.5c0.5,0,0.9-0.6,0.9,0
				c0,0.6,0.3,3.2,0.3,4.3c0,1.2-0.4,2.5-1.1,3.4c-1.1,1.8-1.1,1.7-2,3.2c-1.4,1.6-2.2,3.7-2.2,5.8c-0.2,3.1-0.9,6.1-1.9,9.1
				c-0.4,1.4-0.9,2.9-1.4,4.3c-0.8,1.5-3.8,1.4-5.1,2.3c-1.5,2-2.4,4.4-2.5,6.9c0,1.1-0.3,2.3-0.9,3.3c-0.5,1.3-1.2,2.6-2.1,3.6
				c-1,1.3-2,2.6-3.2,3.8c-0.9,1.1-2.1,2.1-3.4,2.6c-0.8-0.1-1.4-0.3-2.2-0.5c-0.2,0-0.4,0.1,0,0.9c0.4,0.7,0.7,1.4,1,2.2
				c0.4,0.9,0.1,1.9-0.7,2.5c-0.6,0.8-1.3,1.4-2.3,1.7c-1,0.1-4.2-0.1-3.9,1c0.2,0.9,0.3,1.8,0.2,2.7c0,0.6-0.7,0.6-1.4,0.6h-0.9
				c-0.4,0-0.7,0-1.1,0c-0.3,0-0.5-0.3-0.5,0.6c-0.1,0.9,0.2,2.4,0.6,2.4s0,0.9-0.4,2.1c-0.4,1.2,0.3,1.4-1.1,2.3
				c-0.6,0.5-1.1,1-1.3,1.6c58.4,35.4,134.5,16.6,169.8-41.8c11.7-19.3,17.9-41.4,17.9-64C254,126,253.8,122.6,253.5,119.4z
				 M210.2,186.6c-0.5,1.6-0.4,5.1-1,6.2c-0.8,1.5-1.4,3.1-2,4.6c-0.8,0.9-1.8,1.4-3,1.6c-1.1,0-0.7-1.8-1.3-2.1
				c-0.7-0.4,0-4.8,0-5.2c-0.4-1.5-0.9-3-1.6-4.3c-0.5-1.1,1.9-3.1,3-5c0.5-1,1-1,1-1h0.7c0.8-0.3,2.8-5.1,2.8-5.4s0.3-0.4,0.6-0.4
				c0.2,0,0.5,0.1,0.5,0.4c0.1,0.5-0.5,1.7-0.5,2.3c0.4,1.3,1.1,2.5,1.9,3.5C211.7,182.7,210.7,184.9,210.2,186.6z M248.9,143.4
				c-0.7-0.1-1.3-0.3-2-0.6c-0.5-0.2-0.5-1-0.5-2.3c0-1.3,0.3-0.8,0.5-1.8c0.1-0.8,0.1-1.5,0-2.3c0.4,0.2,0.7,0.5,0.8,0.9
				c0.5,0.9,0.8,1.7,1,2.7c0.3,1,0.6,1.9,0.9,2.9C249.4,143.4,249.1,143.4,248.9,143.4z"/>
			<path class="st5" d="M58.1,181.4c-1.7-2.2-3.1-4.7-4-7.4c-1.1-3.1-3.1-8-3.6-9.4c-0.7-1.2-1.6-1.8-1.1-3.3
				c0.5-1.6,1.5-2.3,0.9-3.1c-0.7-0.8-0.4-2.6,0-4c0.4-1.5,1.1-3,1.9-4.3c1.2-0.9,2-2.3,1.9-3.8c0-1.9-0.3-3.7-0.9-5.5
				c-0.4-1-0.4-1.6-1.1-1.6h-0.5c-1.1,0.4-2.1,0.6-3.2,0.7c-0.5,0-0.5,0.4-0.5,0s-1.8-1.1-3.9-3.4c-2.1-2.3-2.3-5.8-3.6-5.8h-1.1
				c-0.4,0-0.9-0.3-2.3-1.4c-2.4-2-3.1-4.3-3.9-4.3c-0.7,0.2-1.9,1.7-3.3,1.7c-0.6,0-1.1-0.3-1.6-0.7c-1.3-1.2-2.9-2.3-4.6-3.2
				c-1.1-0.4-1.9-1.1-2.5-1.9c-0.4-0.7-1.4-1.1-1.4-2.3c0.2-2.1-0.5-4.3-1.8-5.9c-1-0.8-1.6-1.8-2-3.1c-0.4-0.8-0.3-1.3-1-1.9h-0.2
				c0,0,0,0-0.9-0.9c-1.6-1.4-1-1.5-1.6-2.8c-0.7-1.2-1.9-2.5-1.9-2.9c-0.1-0.1-0.1-0.2-0.2-0.3c-0.2,0.7-0.3,1.4-0.5,2.1
				c0.6,0.7,1.4,1.9,1.4,2.5c-0.1,0.8,0.2,1.4,0.8,1.9c0.6,0.5,0.9,1.2,1,2c0.3,0.9,0.7,1.6,1.1,2.3c0.5,0.8,1,1.6,0.5,1.6H14
				c-0.2,0-0.5-0.2-1.4-0.9c-1.5-1.2-1.2-0.9-1.5-2.4c-0.3-1.5-0.2-1.9-1.1-2.9c-0.4-0.4-0.8-0.9-1.1-1.2
				c-9.4,47.9,10.3,96.8,50.2,124.9c0-0.2,0-0.5,0-0.7c-0.6-1.8-0.7-3.7-0.4-5.6c1.1-2.4,1.9-4.9,2.6-7.5c0-1.8,0.9-3.3,0.2-5.4
				c-0.5-3-0.3-6,0.5-8.9c0.9-5.6,1.1-11.4,0.5-17.1C60.8,184.2,59.4,182.8,58.1,181.4z"/>
		</g>
		<path class="st6" d="M59.1,229.8c-0.6-1.8-0.7-3.7-0.4-5.6c1.1-2.4,1.9-4.9,2.6-7.5c0-1.8,0.9-3.3,0.2-5.4c-0.5-3-0.3-6,0.5-8.9
			c0.9-5.6,1.1-11.4,0.5-17.1c-1.6-1.1-3-2.4-4.2-3.8c-1.7-2.2-3.1-4.7-4-7.4c-1.1-3.1-3.1-8-3.6-9.4c-0.6-1.3-1.6-1.8-1.1-3.3
			s1.5-2.3,0.9-3.1c-0.7-0.8-0.4-2.6,0-4c0.4-1.5,1.1-3,1.9-4.3c1.2-0.9,2-2.3,1.9-3.8c0-1.9-0.3-3.7-0.9-5.5
			c-0.4-1-0.4-1.6-1.1-1.6h-0.6c-1.1,0.4-2.1,0.6-3.2,0.7c-0.5,0-0.5,0.4-0.5,0s-1.8-1.1-3.9-3.4c-2.1-2.3-2.3-5.8-3.6-5.8h-1.1
			c-0.4,0-0.9-0.3-2.3-1.4c-2.4-2-3.1-4.3-3.9-4.3c-0.7,0.2-1.9,1.7-3.3,1.7c-0.6,0-1.1-0.3-1.6-0.7c-1.3-1.2-2.9-2.3-4.6-3.2
			c-1.1-0.4-1.9-1.1-2.5-1.9c-0.4-0.7-1.3-1.1-1.3-2.3c0.2-2.1-0.5-4.3-1.8-5.9c-1-0.8-1.6-1.8-2-3.1c-0.4-0.8-0.3-1.3-1-1.9h-0.3
			c0,0,0,0-0.9-0.9c-1.6-1.4-1-1.5-1.6-2.8c-0.7-1.2-1.9-2.5-1.9-2.9c0-0.1-0.1-0.2-0.2-0.3c-0.2,0.7-0.3,1.3-0.5,2.1
			c0.6,0.7,1.4,1.9,1.4,2.5c-0.1,0.8,0.2,1.4,0.8,1.9c0.6,0.5,0.9,1.2,1,2c0.3,0.9,0.7,1.6,1.1,2.3c0.5,0.8,1,1.6,0.5,1.6H14
			c-0.2,0-0.5-0.2-1.4-0.9c-1.5-1.2-1.2-0.9-1.5-2.4c-0.3-1.5-0.2-1.9-1.1-2.9c-0.4-0.4-0.8-0.9-1.1-1.2
			c-9.4,47.9,10.3,96.8,50.2,124.9C59.1,230.2,59.1,230,59.1,229.8z"/>
	</g>
</g>
</svg>
