<svg xmlns="http://www.w3.org/2000/svg" viewBox="0 0 91 59.07"><defs><style>.cls-1{fill:#42c4ee;}.cls-2{stroke:#231f20;stroke-miterlimit:10;}</style></defs><title>1</title><g id="Layer_2" data-name="Layer 2"><g id="cf"><g id="public"><path class="cls-1" d="M81.4,58.61H10.55a2.64,2.64,0,0,1-2.44-2.74V50.7h3.25v1.78a1.71,1.71,0,0,0,1.55,1.77H27.69a1.67,1.67,0,0,0,1.55-1.77V50.7h9.38a31.54,31.54,0,0,0,16-4.43l.07-.07a34.48,34.48,0,0,1,13-4.51L91,38.51l-3.47,14.7A6.44,6.44,0,0,1,81.4,58.61Z"/><path class="cls-2" d="M88.86,35.89a1.64,1.64,0,0,0-1.26-.52l-9.53,1.18V2a1.48,1.48,0,1,0-2.95,0V36.92l-4.73.59V22.74a1.48,1.48,0,0,0-1.48-1.48H30.57a1.47,1.47,0,0,0-1.18,2.36l4.06,5.54L31.09,45.93h-3.7V40.32a1.48,1.48,0,0,0-1.48-1.48H20.37v-21a1.55,1.55,0,0,0-.81-1.33l-16.84-9A1.55,1.55,0,0,0,.5,8.85v5.24a1.48,1.48,0,0,0,3,0v-2.8l13.88,7.38V38.92H11.8a1.47,1.47,0,0,0-1.47,1.47V46H5.75a1.48,1.48,0,0,0-1.48,1.48v5.83a5.27,5.27,0,0,0,5.24,5.25h67a9,9,0,0,0,8.72-6.73l3.84-14.55A1.37,1.37,0,0,0,88.86,35.89ZM76.59,55.61H9.66a2.3,2.3,0,0,1-2.29-2.29V49h3.1v1.48A1.49,1.49,0,0,0,12,51.92h14a1.48,1.48,0,0,0,1.48-1.48V49h8.87A32.41,32.41,0,0,0,51.33,45.2l.07-.08a36.13,36.13,0,0,1,12.27-3.84l22.08-2.66L82.5,51A6.09,6.09,0,0,1,76.59,55.61ZM24.44,41.87V49h-11V41.87Zm11.74-14-2.73-3.7H67.36V37.88l-4.06.52A40.15,40.15,0,0,0,50,42.54l-.08.07A29.43,29.43,0,0,1,36.26,46H34L36.4,29A1.24,1.24,0,0,0,36.18,27.91Z"/><path d="M57.24,35.89h5.54a1.49,1.49,0,0,0,1.48-1.48V28.8a1.48,1.48,0,0,0-1.48-1.48H57.24a1.48,1.48,0,0,0-1.48,1.48v5.61A1.49,1.49,0,0,0,57.24,35.89Zm1.48-5.62H61.3v2.66H58.72Z"/><path d="M45.64,35.89h5.54a1.49,1.49,0,0,0,1.48-1.48V28.8a1.48,1.48,0,0,0-1.48-1.48H45.64a1.48,1.48,0,0,0-1.48,1.48v5.61A1.49,1.49,0,0,0,45.64,35.89Zm1.48-5.62H49.7v2.66H47.12Z"/></g></g></g></svg>