<svg xmlns="http://www.w3.org/2000/svg" viewBox="0 0 90.5 58.11"><defs><style>.cls-1{fill:#42c4ee;}</style></defs><title>public</title><g id="Layer_2" data-name="Layer 2"><g id="cf"><g id="public"><path class="cls-1" d="M80.9,58.11H10.05a2.64,2.64,0,0,1-2.44-2.74V50.2h3.25V52a1.71,1.71,0,0,0,1.55,1.77H27.19A1.67,1.67,0,0,0,28.74,52V50.2h9.38a31.54,31.54,0,0,0,16-4.43l.07-.07a34.48,34.48,0,0,1,13-4.51L90.5,38,87,52.71A6.44,6.44,0,0,1,80.9,58.11Z"/><path d="M88.36,35.39a1.64,1.64,0,0,0-1.26-.52l-9.53,1.18V1.48a1.48,1.48,0,1,0-2.95,0V36.42L69.89,37V22.24a1.48,1.48,0,0,0-1.48-1.48H30.07a1.47,1.47,0,0,0-1.18,2.36L33,28.66,30.59,45.43h-3.7V39.82a1.48,1.48,0,0,0-1.48-1.48H19.87v-21A1.55,1.55,0,0,0,19.06,16L2.22,7A1.55,1.55,0,0,0,0,8.35v5.24a1.48,1.48,0,0,0,3,0v-2.8l13.88,7.38V38.42H11.3a1.47,1.47,0,0,0-1.47,1.47v5.62H5.25A1.48,1.48,0,0,0,3.77,47v5.83A5.27,5.27,0,0,0,9,58.07H76a9,9,0,0,0,8.72-6.73l3.84-14.55A1.37,1.37,0,0,0,88.36,35.39ZM76.09,55.11H9.16a2.3,2.3,0,0,1-2.29-2.29V48.46H10v1.48a1.49,1.49,0,0,0,1.48,1.48h14a1.48,1.48,0,0,0,1.48-1.48V48.46h8.87A32.41,32.41,0,0,0,50.83,44.7l.07-.08a36.13,36.13,0,0,1,12.27-3.84l22.08-2.66L82,50.53A6.09,6.09,0,0,1,76.09,55.11ZM23.94,41.37v7.09h-11V41.37Zm11.74-14L33,23.71H66.86V37.38l-4.06.52A40.15,40.15,0,0,0,49.5,42l-.08.07a29.43,29.43,0,0,1-13.66,3.4H33.54l2.36-17A1.24,1.24,0,0,0,35.68,27.41Z"/><path d="M56.74,35.39h5.54a1.49,1.49,0,0,0,1.48-1.48V28.3a1.48,1.48,0,0,0-1.48-1.48H56.74a1.48,1.48,0,0,0-1.48,1.48v5.61A1.49,1.49,0,0,0,56.74,35.39Zm1.48-5.62H60.8v2.66H58.22Z"/><path d="M45.14,35.39h5.54a1.49,1.49,0,0,0,1.48-1.48V28.3a1.48,1.48,0,0,0-1.48-1.48H45.14a1.48,1.48,0,0,0-1.48,1.48v5.61A1.49,1.49,0,0,0,45.14,35.39Zm1.48-5.62H49.2v2.66H46.62Z"/></g></g></g></svg>