<svg xmlns="http://www.w3.org/2000/svg" viewBox="0 0 120.07 120"><defs><style>.cls-1{fill:#fbc833;}.cls-2{fill:none;}</style></defs><title>Recreational</title><g id="Layer_2" data-name="Layer 2"><g id="rf"><path class="cls-1" d="M64.85,66.73l39.87-.47-.06-15.32a1.32,1.32,0,0,0-1.19-1.4l-25.2.11h0a1.12,1.12,0,0,0-.93.55l.94.85-.94-.85Z"/><path d="M32.23,67.42l27.07-.11,44.2-.18a1.41,1.41,0,0,1,1.41,1.39,1.86,1.86,0,0,1,0,.34l-4.31,22.55-1.37-.26,1.37.26a1.4,1.4,0,0,1-1.39,1.14l-62.44.26a1.41,1.41,0,0,1-1.39-1.19L30.85,69.1h0A1.39,1.39,0,0,1,32,67.45,1.33,1.33,0,0,1,32.23,67.42Zm27.08,2.69-25.38.11,4,19.78L98,89.75l3.78-19.81Z"/><path d="M58.19,67.87a1.39,1.39,0,0,0,.27,2,1.41,1.41,0,0,0,2-.27L71.69,54.74l27.8-.12.06,13.93a1.4,1.4,0,0,0,2.8,0l-.06-15.32a1.39,1.39,0,0,0-1.41-1.39L71,51.94h0a1.39,1.39,0,0,0-1.11.55l1.11.85-1.11-.84Z"/><path d="M34.47,78.72a1.4,1.4,0,0,0-1.4,1.4,1.41,1.41,0,0,0,1.41,1.4l66.87-.28a1.4,1.4,0,1,0,0-2.8Z"/><path d="M41.53,43.81h2.91l3.23,0a1.4,1.4,0,0,1,1.4,1.4l.1,23.57a1.4,1.4,0,0,1-1.39,1.41l-4.35,0H41.64a1.4,1.4,0,0,1-1.4-1.4l-.1-23.58A1.4,1.4,0,0,1,41.53,43.81Zm2.92,2.79H43L43,67.38h3.33l-.08-20.78Z"/><path d="M19.45,69.47a4.2,4.2,0,0,1,3,7.17,4.21,4.21,0,1,1-6-5.92A4.21,4.21,0,0,1,19.45,69.47Zm1,3.21a1.44,1.44,0,0,0-1-.41,1.41,1.41,0,0,0-1,.42,1.42,1.42,0,0,0-.41,1,1.37,1.37,0,0,0,.42,1,1.44,1.44,0,0,0,1,.41,1.37,1.37,0,0,0,1-.42,1.38,1.38,0,0,0,.41-1A1.42,1.42,0,0,0,20.46,72.68Z"/><path d="M43.24,45.2a1.4,1.4,0,1,0,2.8,0L46,28.75a1.39,1.39,0,0,0-1.4-1.39,1.34,1.34,0,0,0-.35,0c-1.89.38-36,7.65-26.12,43.84a1.4,1.4,0,0,0,2.7-.74c-8.07-29.61,15.75-38.19,22.38-40Z"/><path d="M20.87,76.48a1.38,1.38,0,0,0-1.4-1.38,1.4,1.4,0,0,0-1.39,1.4A49,49,0,0,0,19,86.68c1.28,5,3.71,7.46,8.31-.58a1.4,1.4,0,1,0-2.42-1.4C23,88,22.09,87.52,21.7,86A46.63,46.63,0,0,1,20.87,76.48Z"/><rect class="cls-2" x="0.25" y="0.25" width="119.57" height="119.51" transform="translate(-0.25 0.25) rotate(-0.24)"/></g></g></svg>