<svg xmlns="http://www.w3.org/2000/svg" viewBox="0 0 84.5 84.5"><defs><style>.cls-1{fill:#7eceb6;}</style></defs><title>Researchers</title><g id="Layer_2" data-name="Layer 2"><g id="researchers"><path class="cls-1" d="M26.39,47.49A21.11,21.11,0,1,1,47.49,68.6,21.16,21.16,0,0,1,26.39,47.49Z"/><path d="M79.16,3.52H77.05A5.14,5.14,0,0,0,72.12,0H47.49a1.61,1.61,0,0,0-1.23.53l-4,4-4-4A1.6,1.6,0,0,0,36.94,0H12.31A5.12,5.12,0,0,0,7.39,3.52H5.28A5.18,5.18,0,0,0,0,8.8V54.53a5.19,5.19,0,0,0,5.28,5.28H17.59V56.29H5.28a1.66,1.66,0,0,1-1.76-1.76V8.8A1.66,1.66,0,0,1,5.28,7H7V47.49a5.18,5.18,0,0,0,5.27,5.28h3.52V49.25H12.31a1.66,1.66,0,0,1-1.76-1.76V5.28a1.66,1.66,0,0,1,1.76-1.76H36.24l4.22,4.22v6.33H44V7.74L48.2,3.52H72.12a1.66,1.66,0,0,1,1.76,1.76V47.49a1.66,1.66,0,0,1-1.76,1.76H68.6v3.52h3.52a5.19,5.19,0,0,0,5.28-5.28V7h1.76A1.66,1.66,0,0,1,80.92,8.8V54.53a1.66,1.66,0,0,1-1.76,1.76H66.84v3.52H79.16a5.18,5.18,0,0,0,5.27-5.28V8.8A5.17,5.17,0,0,0,79.16,3.52Z"/><rect x="14.07" y="12.31" width="22.87" height="3.52"/><rect x="47.49" y="12.31" width="22.87" height="3.52"/><rect x="14.07" y="21.11" width="7.04" height="3.52"/><rect x="63.32" y="21.11" width="7.04" height="3.52"/><path d="M42.22,26.39V29.9A12.24,12.24,0,0,1,54.53,42.22h3.52A15.76,15.76,0,0,0,42.22,26.39Z"/><path d="M68.78,62.09a1.7,1.7,0,0,0-2.46,0l-.88.88L60.86,58.4a24.69,24.69,0,1,0-2.46,2.46L63,65.44l-.88.88a1.7,1.7,0,0,0,0,2.46L76.34,83a4.73,4.73,0,0,0,6.86-6.51L83,76.34ZM21.11,42.22a21.11,21.11,0,1,1,21.11,21.1A21.17,21.17,0,0,1,21.11,42.22ZM80.56,80.56a1.17,1.17,0,0,1-1.76,0l-13-13,1.76-1.76,13,13A1.17,1.17,0,0,1,80.56,80.56Z"/></g></g></svg>