<svg xmlns="http://www.w3.org/2000/svg" viewBox="0 0 61.03 73.56"><defs><style>.cls-1{fill:#60a7b1;}</style></defs><title>Students</title><g id="Layer_2" data-name="Layer 2"><g id="students"><polygon class="cls-1" points="10.76 15.53 32.97 25.07 56.94 15.67 32.97 5.86 10.76 15.53"/><path d="M61,73.56H0V55.17l.14-.27c3.4-8.17,12.8-10.9,17.43-11.85A18.68,18.68,0,0,1,12,29.83a17.63,17.63,0,0,1,2.45-9.12l.68-1.09L30,26l15.94-6.54.68,1.09a18.56,18.56,0,0,1-3.13,22.48c4.63,1,14,3.68,17.43,11.85l.14.27Zm-30-2.86H58.17v-15C54.76,48.22,44.82,46,41.69,45.64Zm-28.2,0H30L19.34,45.64c-3.27.54-13.21,2.72-16.48,10.08Zm20-24,7.62,18,7.63-18a20.14,20.14,0,0,1-7.63,1.63A20.13,20.13,0,0,1,22.89,46.73ZM16.35,23.16a15.66,15.66,0,1,0,29.83,6.67,15.83,15.83,0,0,0-1.5-6.67L30,29.15Zm-10.63,14A5.18,5.18,0,0,1,.54,32a5.47,5.47,0,0,1,3.68-4.9V11.17L30,0,60.08,12.4,30,24.11,7.36,14.58V27.25A5,5,0,0,1,10.76,32,5.06,5.06,0,0,1,5.72,37.19Zm-.13-7.36a2.31,2.31,0,0,0-2.18,2.32,2.39,2.39,0,0,0,2.31,2.32A2.39,2.39,0,0,0,8,32.15a2.36,2.36,0,0,0-2-2.32ZM9.13,12.26,30,21.12,52.31,12.4,29.83,3.13Z"/></g></g></svg>