<svg xmlns="http://www.w3.org/2000/svg" viewBox="0 0 258.67 258.67"><defs><style>.cls-1{fill:#0fb5ea;}.cls-2{fill:#fff;}</style></defs><title>world map</title><g id="Layer_2" data-name="Layer 2"><g id="world_map" data-name="world map"><circle class="cls-1" cx="129.33" cy="129.33" r="129.33"/><path class="cls-2" d="M258.15,119c-1.69,1.08-.74,1.34-2.18,2.83s-1.4.94-2.47,2.29a5.56,5.56,0,0,1-2.39,2.2c-1.81,1.12,0,1,0,2.06a20.53,20.53,0,0,1-.93,6.09c-.86,2.82-.86,3.22-1.15,3.94a9.12,9.12,0,0,1-2.1,2.06,4.7,4.7,0,0,1-.75-2.23,12.78,12.78,0,0,0-.47-4.48,46.33,46.33,0,0,1-2.32-5.9,84.67,84.67,0,0,1-1.52-10.16c-.12-.62-.79-2.1-1.53-2.1H240a2.86,2.86,0,0,1-1.61.68h-.58c-.5-.26-.38-2.19,0-2.77s.08-.85-.25-.85h-.41c-.58,0-1.49-.62-2.36-2.5s-.42-1.66-3.27-1.87-2.19-.53-5.62-2.18a11.63,11.63,0,0,0-3.8-1.51,28.07,28.07,0,0,1-3.18.32h-1c-1.53-.26-2.11-1.38-4.43-3.48s-1.32-1.78-1.82-2.81a.79.79,0,0,0-.74-.49,1.92,1.92,0,0,0-1.49,1.12c-.41.94,1,3.45,1.25,4.48a16.32,16.32,0,0,0,4.15,7.33c.75.8,1.29,1.07,1.66,1.07,1,0,.69-2.29,1.23-2.52s.94-2.06.94-2.06a8.82,8.82,0,0,0,3.15,2.81,5.91,5.91,0,0,1,2.48,3.31.41.41,0,0,1,.05.09,2.62,2.62,0,0,1-.9,3.4,4,4,0,0,0-1.73,3.23,4.85,4.85,0,0,1-4.12,3.33c-2.76.63-2.26,1.75-3.13,2.6a20.73,20.73,0,0,1-6.18,3.87,7.53,7.53,0,0,1-2.51.5c-1,0-1.74-.17-1.74-.49v-3.4a28.05,28.05,0,0,0-1.62-5.5,9.35,9.35,0,0,0-2.66-3.53c-.95-1.07-.29-1.61-.67-4.48s-1.37-1.51-2.12-3.39a38.56,38.56,0,0,0-1.54-4.74,7,7,0,0,0-3-2.77c-.49,0-.65,1.39-.49,2.06s2.88,8.81,2.88,10.38a50.12,50.12,0,0,0,4.33,10.51,16.88,16.88,0,0,1,2.57,6.3c1.21,4.25,1.91,2.14,3.81,3.48a2.41,2.41,0,0,0,1.41.49c1.11,0,2.06-.95,3.67-1.31a18.46,18.46,0,0,1,2.22-.41s.43,3,.76,4-2.67,5.2-3.78,7.26-7.81,12.42-8.55,13.46a36.29,36.29,0,0,0-1.19,14.59c1.12,4.25,0,4.61,0,9.45s-3.65,5.78-5.42,7.85-.53,4.16-.52,6.85a7.73,7.73,0,0,1-3,5.38c-.57.36-1.35,2.69-2,3.54a8.24,8.24,0,0,0-1.43,4.8,6.07,6.07,0,0,1-1.6,4.48c-.86.72-3.54,1.13-6,2.79a5.94,5.94,0,0,1-3.25.81,13.26,13.26,0,0,1-5.46-1.19c-1.24-.71.21-.89.78-3.54s-2.66-5.59-3.57-7.11-1.66-.62-1.67-3.8a46.18,46.18,0,0,0-.22-7.34,72.79,72.79,0,0,0-2.71-8.36,28.61,28.61,0,0,1,1.5-10,8.08,8.08,0,0,0,1-4.48c-.25-1.21-4.86-11.31-5.74-13.41s-.46-2.51-.67-4.48.24-2.06.73-4a6.54,6.54,0,0,0-2-5.14h-.45c-.37,0-.78.45-2.1.86h-.75c-.7,0,0-.72-.29-1.43s-.7-.81-2-2.77c-.41-.67-.46-.9-1-.9s-.78,1-1.65,1.62a26.47,26.47,0,0,0-2.59,2.16,2.33,2.33,0,0,1-1.32.63c-.62,0-1-.58-1.86-.94a3.21,3.21,0,0,0-1-.31c-.33,0-.54.27-1.57.81a6.13,6.13,0,0,1-3.59.82h-1c-2.39,0-2-1.43-3.35-3.48a53.08,53.08,0,0,0-4.52-6,9.23,9.23,0,0,1-1.83-3.71c-.21-1.07-.29-3.13-.5-3.76a57.9,57.9,0,0,1-.23-8c.12-1.79.24-2.37-.22-3.09s.86-5.24,1.06-6.27,1.31-3.54,1.51-4.48a18.78,18.78,0,0,1,3.45-5.87A14.58,14.58,0,0,1,136,100.6c.37-.27-.47-3.71,0-4.74s1.9-2,3.34-4a13.69,13.69,0,0,0,2.05-3.41c.37-.9-1.24-1.83-1.74-1.83a5.84,5.84,0,0,1-2.32-3c-.66-1.61.2-1.7.78-2.47a6.38,6.38,0,0,0-.22-4.47,6.07,6.07,0,0,1,.44-3.67s2.65.48,4.67,1.1a4.18,4.18,0,0,0,1.16.22c.82,0,.53-.4,2.26-1.35s.86-2.15.49-3.63-3-2.31-3.81-2.67-1-1.92,1.07-2.11,1.48-.81,4.37-1.76,2.1-1.84,2.88-3a4.07,4.07,0,0,1,3-1.89c1.07,0,1.73-1.35,2.76-1.85a3,3,0,0,0,1.19-3c-.13-.94,0-3.85.85-4.48a2.58,2.58,0,0,1,1.49-.45c.53,0,.86-.1,1.15.53s.84,1.61,1.33,1.61a1.76,1.76,0,0,0,.49-2.11,14.39,14.39,0,0,1-1.74-3.62c-.25-.45.12-.45-.25-.45s-.78,2-2.23,2h-2a.94.94,0,0,1-.66,0,8.54,8.54,0,0,1-1-3.84c-.05-1.35-.58-.45-1.46-2.6s1.61-1.43,2.64-2.15S160.2,36,162,35a10.11,10.11,0,0,0,3.34-3,18.14,18.14,0,0,0,1-4.12,2.49,2.49,0,0,1,2.43-1.22h1.94a5.43,5.43,0,0,0,1.61,0c2.52-.72,1.57-.5,4.12-2.07a4.54,4.54,0,0,1,2.52-.81A42.36,42.36,0,0,1,185.18,25a11.77,11.77,0,0,0,2.56.35,5.24,5.24,0,0,0,1.37,0,5,5,0,0,1,1.28,0,10.34,10.34,0,0,1,2.27.31,18.4,18.4,0,0,1,8.6,3.92c.66,1-.46,1-.66,1.25a39.59,39.59,0,0,1-7.26.83h-.21a2.58,2.58,0,0,1-1.74-.4c-.29-.4-.37-.4-.7-.4h-.58c-1.44.54-.24.32,1.46,3,.7,1.16,1.07,1.47,1.49,1.47s.45-.58.7-.58,4.38,1.42,5.62,1.73c1.11,0,.61-2.38,1.1-3.41s4.13-1,4.12-1.58a5.11,5.11,0,0,1,.41-3.4c.37-.63.45-.9,1-.9s1,.49,0,1.48-.28,2,0,2c.11-.29,3.87-.79,5.44-1.26A129.38,129.38,0,0,0,113.84.93a27.65,27.65,0,0,1,6.55,1.73,6,6,0,0,0,2.31.44h3.22a14.15,14.15,0,0,1,5.7.7c.13.44-.37.62-2,1.26s-4.17.63-6.4,1.18-1.15,1.88-1.15,3.31a10.85,10.85,0,0,1-1.22,5.38c-.74,1.08-3.34,2.7-3.33,3.19a15.36,15.36,0,0,0,1.66,2.68c.49.85.53.85,0,.85a20.84,20.84,0,0,0-2.89-.53h-.46a1.16,1.16,0,0,0-.52.06,1.33,1.33,0,0,0-.75,1.65s3.31,2,3.8,3.16-1.68,1.35-5.52,2.08-3.09,1.17-4.12,1.89a16.44,16.44,0,0,1-7.43,2.39c-3.55.24-3.25,2-4.12,2.7s-1.31,3-1.51,4a7,7,0,0,1-3.13,3.32h-.41a9.71,9.71,0,0,1-3.89-1.47c-2.48-1.42-2.56-.71-3.22-1.42s-2-2.55-3.07-3.71S78.58,33,78.45,32.19s1-1.35,1.69-2.29,2.72-2.47,2.92-3.64a2.75,2.75,0,0,0-1.41-3,1.67,1.67,0,0,0-.83,0h-.95a2.4,2.4,0,0,1-1.78-.71c-1.17-1,1-1.14,1.66-1.13a8.81,8.81,0,0,1-2.2-.52c-1.57-.49-1.9-2.77-3.23-5-.83-1.57-1.45-1.56-2-1.56h-1c-.19,0-.53-.1-.93-.2a130.4,130.4,0,0,0-14.26,8.53c.17.13.33.26.48.4.66.44,2,1.24,2,1.24a10.35,10.35,0,0,1,1.37,1.84c.75,1.2,1.12,1.6,3.06,2.14s2.24,1.42,4.8,2,.5,1.16,0,1.66S66.45,34.19,66,34.19a9,9,0,0,1-3.56-2.49,2.11,2.11,0,0,0-1.44-1c-.38,0-.37.23-.37.77a6,6,0,0,0,2.57,3.12c.74.4,1.24,2,1.24,2a7.45,7.45,0,0,1-2.27.54h-.49a3.36,3.36,0,0,0-1,0c-.38,0-.83.18-.37.62a10.87,10.87,0,0,0,2,1.43,10.29,10.29,0,0,1-2.14.28A2.59,2.59,0,0,1,58.45,39a6.06,6.06,0,0,0-3-1.83c-2-.8-2.56-1.65-3.14-1.65H48.82S48.24,34.2,50,34a7,7,0,0,0,4.12-2.79c.41-.72,1.94-2.15,1.15-2.46s2.73,0-2.6-1.74c-.63-.21-1.18-.38-1.67-.53A130.11,130.11,0,0,0,28.86,47.9c.32.72,0,1.43,2.17,2.11,2.4.75,2.11-.1,4.13.74a31.25,31.25,0,0,1,3.72,1.47c1.16.71.95.4,2.11,2.28a33.23,33.23,0,0,0,3.24,5.14c.41.26,0,.58.41.58h1.57c.37,0,.37.49.74-.94s.74.22.37-2.28a23.8,23.8,0,0,0-.59-3.14c.2,0,.33.45,1.27-1.61s2.27-.72,1.31-3.41-.66-2.68-1.24-3.48-1.62-1.88-1-3-2.16-3,1.1-3a8.76,8.76,0,0,0,2.44-.28,9.91,9.91,0,0,1,1.94.44,6.43,6.43,0,0,0,1.73.27h1.9c.58,0,1.08.22,1.78,1.16,1.66,2.28,2.4,2.72,2.69,3.22S61.11,46,61.9,46A1.78,1.78,0,0,0,63,45.39c1.77-1.66,1.89-2.51,2.22-2.51s2.65.44,3.23,2,.75,4.43,1.17,5,4.88,2.77,5.66,3.7A11.78,11.78,0,0,1,77.12,57a4.44,4.44,0,0,1-.37,2c-.2.58-.65,3.31-.19,3.71a10.51,10.51,0,0,1,.83,3.18l-6.55,2.21h-.21c-.33,0-.87-.26.45-2.33a28,28,0,0,0,2.46-4.08c.29-.81,1.23-2.15.62-2.15a1.23,1.23,0,0,0-.54,0c-1.44.72-1.56,1.89-4.12,2.21h-.87a24.29,24.29,0,0,1-2.56,0H63.59a3.2,3.2,0,0,0-2,.55,2.06,2.06,0,0,0-.59.77A2.26,2.26,0,0,0,61.87,66h1.86a1.54,1.54,0,0,1,1.12.4,29.76,29.76,0,0,1,2.32,2.9c.45.45,1.24,1.16,1.24,1.16a4.83,4.83,0,0,1-4.12,3.82,17.89,17.89,0,0,1-5-.39c-.5,0,1.53,1,0,3.36s-1.39,2.6-3.78,3.23a6.28,6.28,0,0,0-4.12,2.7c-.17.62-1.9,2.06-1.32,3.31s-.07,2.91-1,5.11c-.21.67-.41.67-.62.67a1.39,1.39,0,0,1-.66-.31,1.51,1.51,0,0,0-.75-.31c-.45,0-.94.45-1.56,2-1.68,4.35-1.67,5.87-1.67,6.1A7.17,7.17,0,0,1,45,102.52c0,1,1.54,5.77.68,5.77a4.19,4.19,0,0,1-3.15-2.67,14.8,14.8,0,0,0-2.61-4.47A12.27,12.27,0,0,0,35.51,99h-.25c-.58.36-1.48,2.42-3.34,2.42h-.78a7.12,7.12,0,0,0-2-.31,4.62,4.62,0,0,0-2.88,1c-.95.67-3.05,3-2.84,3.85a31.4,31.4,0,0,1,0,3.63V114a16.29,16.29,0,0,0,1.17,3.62c.5.63,1.33,3.31,2.11,3.31h2.4c.53-.18,2.64-1,2.84-1.66s0-1.84.57-2.51S34.15,115,34.81,115h.29c.54.49,1.37,2,1,2.69A9.46,9.46,0,0,0,35,120.77a30,30,0,0,0-.44,4.12c0,1.07.46,1.07.95,1.07a5,5,0,0,0,1,0c.54-.14,1.44-.86,2.19-.86a.86.86,0,0,1,.78.54,35.14,35.14,0,0,1,2,5.67c.09.63.51,4.93,1.46,5.73a5.24,5.24,0,0,0,2.73,1.16H46a3.57,3.57,0,0,1,3-1.13c2.31,0,3.42-.91,3.63-1.58s2.8-1.84,3.25-1.84a8.4,8.4,0,0,0,1.53-1.13s-1.64,5.11-1.06,5.91l.33.27c.37,0,.37-.72.37-.72l.73-3.71a4.18,4.18,0,0,0,.87-.5L60.75,135a4.44,4.44,0,0,0,2,.8c.37-.09,0-.94,1.11-.94a6.83,6.83,0,0,1,2,.39c3.47,1.07,4.5.44,4.79,2.09a10.11,10.11,0,0,0,1.33,3.49,13.92,13.92,0,0,0,3.81,2.68A13.82,13.82,0,0,0,78.9,145h1.61a1.51,1.51,0,0,1,1.24.53,23.49,23.49,0,0,1,2,5.5c0,.31-.25-.18.5,1.74s1.12,2.78,1.9,2.77l1.9.31a30.27,30.27,0,0,1,3.07,2.37c.12.31-.21,1.34.37,1.34h2.6c.87.09.87.85,2.4.93s2.27,1.61,3.23,2.37,1.65,1.47,2.39,1.47h.54c.5,0,.87-.59.87,0s.3,3.31.3,4.47a5.82,5.82,0,0,1-1.15,3.63c-1.15,1.89-1.06,1.8-2.09,3.32a9.06,9.06,0,0,0-2.3,6.1,33.34,33.34,0,0,1-2,9.45,24.13,24.13,0,0,1-1.52,4.48c-.77,1.57-4,1.53-5.35,2.39a12.13,12.13,0,0,0-2.58,7.17,6.72,6.72,0,0,1-.94,3.49,14.79,14.79,0,0,1-2.18,3.81,43.71,43.71,0,0,1-3.33,3.95,8.3,8.3,0,0,1-3.63,2.7,11.88,11.88,0,0,1-2.27-.53c-.25,0-.41.13,0,.89a12.37,12.37,0,0,1,1,2.28,2.27,2.27,0,0,1-.65,2.6,4.41,4.41,0,0,1-2.39,1.75c-1,.1-4.42-.07-4.13,1a8.64,8.64,0,0,1,.22,2.82c0,.63-.74.63-1.45.63h-.86a6.49,6.49,0,0,0-1.08,0c-.28,0-.45-.31-.53.58s.17,2.47.58,2.46,0,.94-.36,2.2.33,1.48-1.07,2.37A5.33,5.33,0,0,0,62.36,240,129.36,129.36,0,0,0,258.67,129.33c0-3.49-.15-7-.42-10.38ZM212.9,189.2c-.45,1.74-.44,5.28-1,6.49a45.17,45.17,0,0,0-2.14,4.84,5.05,5.05,0,0,1-3.13,1.67c-1.07,0-.71-1.88-1.41-2.24s0-5,0-5.37a18.93,18.93,0,0,0-1.67-4.47c-.54-1.16,2-3.18,3.12-5.16.46-1,.95-1,.95-1h.7c.75-.27,2.88-5.29,2.92-5.65s.33-.36.62-.36a.48.48,0,0,1,.53.36c.13.53-.49,1.83-.48,2.41h0a9.21,9.21,0,0,0,2,3.71C214.42,185.12,213.35,187.45,212.9,189.2ZM253.31,144a6.83,6.83,0,0,1-2.11-.62c-.54-.23-.54-1-.54-2.37s.33-.77.53-1.89a9.89,9.89,0,0,0,0-2.37,2,2,0,0,1,.83.94h0a11,11,0,0,1,1,2.82,31,31,0,0,1,.87,3C253.93,144,253.64,144,253.31,144Z"/><path class="cls-2" d="M54.8,234.37a12.7,12.7,0,0,1-.39-5.91,53.26,53.26,0,0,0,2.66-7.75c0-1.88.86-3.54.19-5.68a23.41,23.41,0,0,1,.47-9.32,73.45,73.45,0,0,0,.53-17.9,21.34,21.34,0,0,1-4.43-4,24.35,24.35,0,0,1-4.15-7.73c-1.17-3.22-3.16-8.41-3.83-9.75s-1.69-1.88-1.16-3.53,1.6-2.43.94-3.23-.38-2.68,0-4.21a13.35,13.35,0,0,1,2-4.48,4.59,4.59,0,0,0,2-4,19.36,19.36,0,0,0-.89-5.81c-.41-1-.41-1.7-1.07-1.7H47a13.35,13.35,0,0,1-3.3.73c-.45,0-.45.4-.45,0s-1.94-1.2-4.14-3.62-2.41-6.12-3.77-6.12H34.19c-.41,0-.87-.27-2.4-1.52-2.48-2.14-3.23-4.47-4.14-4.46-.7.22-2,1.79-3.54,1.8a2.71,2.71,0,0,1-1.7-.67,19.74,19.74,0,0,0-4.75-3.3,5.3,5.3,0,0,1-2.61-2c-.37-.72-1.45-1.12-1.45-2.37a8.89,8.89,0,0,0-1.92-6.22,6,6,0,0,1-2.07-3.21c-.38-.81-.34-1.39-1-2H8.32s0,0-.87-.89c-1.74-1.52-1-1.61-1.74-2.91s-2-2.63-2-3c-.05-.1-.12-.19-.17-.28-.17.72-.33,1.45-.49,2.17.59.74,1.54,2,1.54,2.63a2.46,2.46,0,0,0,.79,2,3.28,3.28,0,0,1,1,2.06,7.18,7.18,0,0,0,1.24,2.41c.5.76,1,1.65.5,1.66H7.64c-.21,0-.5-.18-1.45-.94-1.57-1.34-1.32-.89-1.58-2.5s-.21-2-1.08-3a12.11,12.11,0,0,1-1.14-1.33A129.49,129.49,0,0,0,54.85,235.07C54.83,234.84,54.83,234.61,54.8,234.37Z"/></g></g></svg>