<svg id="Layer_1" xmlns="http://www.w3.org/2000/svg" viewBox="0 0 194.5 33.6"><style>.st0{fill:none}.st2{fill:#000}</style><path class="st0" d="M907.5-24.2h-1200m1200 0h-1200m1200 0h-1200"/><path fill="#005890" d="M908.4-32.3h-1200"/><path class="st0" d="M907.5-24.2h-1200m1200 0h-1200m1200 0h-1200m1200 0h-1200m1200 0h-1200m1200 0h-1200"/><path class="st2" d="M52 14.5l-.9-2.1-.9 2.1H52zm.2.3H50l-.3.6c-.1.2-.1.4-.1.5 0 .2.1.3.2.4.1 0 .3.1.6.1v.2h-2v-.2c.2 0 .4-.1.5-.3.1-.2.3-.5.5-.9l2.2-4.9h.1l2.2 5c.2.5.4.8.5.9.1.1.2.1.4.2v.2h-2.9v-.2h.1c.2 0 .4 0 .5-.1.1 0 .1-.1.1-.2v-.2s0-.1-.1-.3l-.3-.8zm6.3-2.5v3.3c0 .3 0 .5.1.6.1.1.2.1.4.2v.2h-1.7V16c-.2.2-.4.4-.6.5-.2.1-.4.2-.7.2-.2 0-.4-.1-.6-.2-.2-.1-.3-.3-.4-.5-.1-.2-.1-.5-.1-1v-1.7c0-.3 0-.5-.1-.6-.1-.1-.2-.1-.4-.2v-.2h1.7v3.5c0 .1.1.2.1.2.1 0 .1.1.2.1s.2 0 .3-.1c.1-.1.3-.2.4-.5v-2.3c0-.3 0-.5-.1-.6-.1-.1-.2-.1-.4-.2v-.2h1.9zm3.4-.1l.1 1.4h-.1c-.2-.4-.4-.7-.6-.9-.2-.2-.4-.2-.6-.2-.1 0-.2 0-.3.1-.1.1-.1.2-.1.3 0 .1 0 .2.1.2.1.1.4.3.8.6s.7.6.9.8c.1.2.2.4.2.7 0 .2-.1.5-.2.7-.1.2-.3.4-.5.5-.2.1-.4.2-.7.2-.2 0-.5-.1-.8-.2-.1 0-.1-.1-.2-.1s-.2.1-.2.2h-.1l-.1-1.5h.1c.1.4.3.7.5.9.2.2.5.3.7.3.1 0 .3 0 .3-.1.1-.1.1-.2.1-.3 0-.1 0-.3-.1-.4-.1-.1-.3-.3-.6-.5-.5-.3-.7-.6-.9-.7-.2-.2-.3-.5-.3-.8 0-.3.1-.6.3-.9.2-.3.5-.4 1-.4.2 0 .4.1.7.2.1 0 .1.1.2.1h.1l.2-.2h.1zm2.2-1.4v1.6h1v.4h-1v3.1c0 .1.1.1.1.2.1 0 .1.1.2.1.2 0 .4-.1.5-.4l.1.1c-.2.6-.6.9-1.2.9-.3 0-.5-.1-.7-.2-.2-.2-.3-.3-.3-.5V13h-.5v-.2c.4-.3.7-.6.9-.8.3-.3.5-.6.7-1h.2zm3 1.5v1c.3-.4.5-.7.7-.9.2-.1.4-.2.6-.2.2 0 .3.1.4.2.1.1.1.2.1.4s0 .4-.1.5c-.1.1-.2.2-.3.2-.2 0-.3-.1-.4-.2l-.2-.2h-.1c-.1 0-.2 0-.2.1-.1.1-.2.2-.3.4-.1.3-.1.6-.1 1v1.6c0 .1.1.1.2.2.1 0 .2.1.4.1v.2h-2.2v-.2c.2 0 .3-.1.4-.2.1-.1.1-.3.1-.7v-2.8c0-.1-.1-.1-.1-.2-.1 0-.2-.1-.3-.1v-.2h1.4zm4.1 3.3v-1.4c-.4.2-.6.4-.8.7-.1.2-.2.3-.2.5 0 .1 0 .3.1.4.1.1.2.1.3.1.3-.1.4-.1.6-.3m0 .3c-.5.5-1 .7-1.4.7-.2 0-.4-.1-.6-.2-.1-.2-.2-.4-.2-.6 0-.3.1-.6.4-.9.3-.3.9-.6 1.8-1v-.4c0-.3 0-.5-.1-.6 0-.1-.1-.2-.2-.2-.1-.1-.2-.1-.3-.1-.2 0-.4 0-.5.1-.1.1-.1.1-.1.2s0 .1.1.2.2.3.2.4c0 .1-.1.3-.2.4 0 0-.1.1-.3.1-.2 0-.3-.1-.5-.2-.1-.1-.2-.2-.2-.4s.1-.4.3-.6c.2-.2.4-.4.7-.5.3-.1.6-.2.9-.2.4 0 .7.1.9.3.2.2.4.4.4.6 0 .1.1.4.1.9v2s0 .1.1.1h.1c.1 0 .2-.1.2-.2l.2.2c-.1.2-.3.4-.5.5-.2.1-.3.1-.5.1s-.4-.1-.6-.2c-.1-.1-.1-.2-.2-.5m3.6-5.5v5.3c0 .3 0 .5.1.6.1.1.2.1.4.1v.2h-2.2v-.2c.2 0 .3-.1.4-.2.1-.1.1-.3.1-.6v-4.4c0-.3 0-.5-.1-.6-.1-.1-.2-.1-.4-.1v-.2h1.7zm2.6 1.9v3.4c0 .3 0 .5.1.6.1.1.2.1.4.1v.2h-2.2v-.2c.2 0 .3-.1.4-.2.1-.1.1-.3.1-.6v-2.5c0-.3 0-.5-.1-.6-.1-.1-.2-.1-.4-.1v-.2h1.7zm-.7-2c.2 0 .4.1.5.2.1.1.2.3.2.5s-.1.4-.2.5c-.1.1-.3.2-.5.2s-.4-.1-.5-.2c-.1-.2-.2-.4-.2-.5 0-.2.1-.4.2-.5.2-.2.3-.2.5-.2m3.6 5.3v-1.4c-.4.2-.6.4-.8.7-.1.2-.2.3-.2.5 0 .1.1.3.1.4.1.1.2.1.3.1.2-.1.4-.1.6-.3m0 .3c-.5.5-1 .7-1.4.7-.2 0-.4-.1-.6-.2-.2-.2-.2-.4-.2-.6 0-.3.1-.6.4-.9.3-.3.9-.6 1.8-1v-.4c0-.3 0-.5-.1-.6 0-.1-.1-.2-.2-.2-.1-.1-.2-.1-.3-.1-.2 0-.3 0-.5.1-.1.1-.1.1-.1.2s0 .1.1.2.2.3.2.4c0 .1-.1.3-.2.4-.1 0-.2.1-.4.1s-.3-.1-.5-.2c-.1-.1-.2-.2-.2-.4s.1-.4.3-.6c.2-.2.4-.4.7-.5.3-.1.6-.2.9-.2.4 0 .7.1.9.3.2.2.4.4.4.6 0 .1.1.4.1.9v2s0 .1.1.1h.1c.1 0 .2-.1.2-.2l.1.1c-.1.2-.3.4-.5.5-.2.1-.3.1-.5.1s-.4-.1-.6-.2c.1 0 0-.1 0-.4m3.6-3.6v.5c.2-.2.4-.4.6-.5.2-.1.4-.2.6-.2.3 0 .5.1.7.2.2.2.3.3.4.6 0 .2.1.5.1 1v1.7c0 .3 0 .5.1.6.1.1.2.1.4.2v.2h-2.1v-.2c.2 0 .3-.1.3-.2s.1-.3.1-.6V13c0-.1-.1-.2-.1-.2-.1 0-.1-.1-.2-.1-.3 0-.5.2-.7.6v2.3c0 .3 0 .5.1.6.1.1.2.1.3.2v.2h-2.1v-.2c.2 0 .3-.1.4-.2 0-.1.1-.3.1-.6v-2.4c0-.3 0-.5-.1-.6-.1-.1-.2-.1-.4-.2v-.2h1.5zm10.9-2v2.2h-.2c-.2-.6-.5-1-.9-1.4-.4-.3-.8-.5-1.3-.5s-.8.1-1.1.4c-.3.3-.5.6-.6 1.1-.1.5-.2.9-.2 1.4 0 .6.1 1.1.2 1.6.1.4.4.8.7 1 .3.2.7.3 1.1.3h.4c.2 0 .3-.1.5-.1v-1.8c0-.1-.1-.1-.2-.2s-.2-.1-.4-.1h-.2V14h2.9v.2c-.2 0-.4 0-.5.1-.1 0-.2.1-.2.2v1.7c-.4.2-.8.3-1.2.4-.4.1-.8.1-1.3.1-.6 0-1-.1-1.4-.2-.4-.2-.7-.4-1-.6-.3-.3-.5-.6-.7-.9-.2-.4-.3-.9-.3-1.4 0-.9.3-1.7 1-2.3.6-.6 1.4-1 2.4-1 .3 0 .6 0 .8.1.1 0 .3.1.6.2s.5.2.5.2c.1 0 .2 0 .2-.1.1-.1.1-.2.2-.4h.2zm2.9 2.2c-.2 0-.3.1-.4.2-.1.1-.2.3-.2.7v1.4c0 .3 0 .6.1.9 0 .2.1.4.2.5.1.1.2.2.4.2.1 0 .2 0 .3-.1.1-.1.2-.2.2-.4.1-.3.1-.9.1-1.7 0-.5 0-.9-.1-1.1-.1-.2-.1-.3-.2-.4-.2-.2-.3-.2-.4-.2m0-.3c.4 0 .7.1 1 .3.3.2.5.5.7.8.2.3.2.7.2 1.2 0 .6-.1 1.1-.4 1.5-.4.5-.9.7-1.5.7s-1.1-.2-1.4-.7c-.3-.4-.5-1-.5-1.6 0-.6.2-1.1.5-1.6.3-.4.8-.6 1.4-.6m3.9 4.5l-1.4-3.3-.4-.8c-.1-.1-.2-.1-.3-.2v-.2h2.2v.2c-.1 0-.2 0-.3.1-.1.1-.1.1-.1.2s.1.3.2.6l.7 1.6.5-1.4c.2-.4.2-.7.2-.8 0-.1 0-.2-.1-.2-.1-.1-.2-.1-.4-.1v-.2h1.4v.2c-.1 0-.2.1-.3.1-.1.1-.2.3-.4.7l-1.4 3.3h-.1zm4.5-2.7c0-.5 0-.8-.1-1 0-.2-.1-.3-.2-.4-.1-.1-.1-.1-.2-.1-.2 0-.3.1-.4.2-.2.3-.3.6-.3 1.1v.2h1.2zm1 .3h-2.3c0 .6.2 1 .4 1.3.2.3.4.4.7.4.2 0 .3-.1.5-.2l.5-.5.2.1c-.2.5-.5.8-.7 1-.3.2-.6.3-.9.3-.6 0-1.1-.2-1.4-.7-.3-.4-.4-.9-.4-1.5 0-.7.2-1.3.6-1.7.4-.4.8-.6 1.3-.6.4 0 .8.2 1.1.5.3.4.4.9.4 1.6m2-2v1c.3-.4.5-.7.7-.9.2-.1.4-.2.6-.2.2 0 .3.1.4.2.1.1.2.2.2.4s0 .4-.1.5c-.1.1-.2.2-.3.2-.2 0-.3-.1-.4-.2l-.2-.2h-.1c-.1 0-.2 0-.2.1-.1.1-.2.2-.3.4-.1.3-.1.6-.1 1v1.6c0 .1.1.1.2.2.1 0 .2.1.4.1v.2h-2.2v-.2c.2 0 .3-.1.4-.2.1-.1.1-.3.1-.7v-2.8c0-.1-.1-.1-.1-.2-.1 0-.2-.1-.3-.1v-.2h1.3zm3.8 0v.5c.2-.2.4-.4.6-.5.2-.1.4-.2.6-.2.3 0 .5.1.7.2.2.2.3.3.4.6 0 .2.1.5.1 1v1.7c0 .3 0 .5.1.6.1.1.2.1.4.2v.2h-2.1v-.2c.2 0 .3-.1.3-.2s.1-.3.1-.6V13c0-.1-.1-.2-.1-.2-.1 0-.1-.1-.2-.1-.3 0-.5.2-.7.6v2.3c0 .3 0 .5.1.6.1.1.2.1.3.2v.2h-2.1v-.2c.2 0 .3-.1.4-.2 0-.1.1-.3.1-.6v-2.4c0-.3 0-.5-.1-.6-.1-.1-.2-.1-.4-.2v-.2h1.5zm4.8 0v.6c.2-.3.4-.4.6-.5.2-.1.4-.2.6-.2.3 0 .5.1.7.2.2.1.3.3.4.6.2-.3.5-.5.7-.6.2-.1.4-.2.7-.2.3 0 .5.1.7.2.2.1.3.3.4.5.1.2.1.5.1 1v1.7c0 .3 0 .5.1.6.1.1.2.1.4.2v.2H121v-.2c.2 0 .3-.1.4-.2.1-.1.1-.3.1-.6v-2.5c0-.1-.1-.2-.1-.2-.1-.1-.1-.1-.2-.1s-.3 0-.4.1c-.1.1-.3.2-.4.4v2.3c0 .3 0 .5.1.6.1.1.2.2.4.2v.2h-2.1v-.2c.1 0 .2 0 .3-.1.1-.1.1-.1.1-.2v-3c0-.1-.1-.2-.1-.2-.1-.1-.1-.1-.2-.1s-.2 0-.3.1c-.1.1-.3.3-.4.5v2.3c0 .3 0 .5.1.6.1.1.2.2.4.2v.2H116v-.2c.2 0 .3-.1.4-.2 0-.1.1-.3.1-.6v-2.4c0-.3 0-.5-.1-.6-.1-.1-.2-.1-.4-.2v-.2h1.7zm7.9 1.7c0-.5 0-.8-.1-1 0-.2-.1-.3-.2-.4-.1-.1-.1-.1-.3-.1-.2 0-.3.1-.4.2-.2.3-.3.6-.3 1.1v.2h1.3zm1.1.3h-2.3c0 .6.2 1 .4 1.3.2.3.4.4.7.4.2 0 .3-.1.5-.2l.5-.5.2.1c-.2.5-.5.8-.7 1-.3.2-.6.3-.9.3-.6 0-1.1-.2-1.4-.7-.3-.4-.4-.9-.4-1.5 0-.7.2-1.3.6-1.7.4-.4.8-.6 1.3-.6.4 0 .8.2 1.1.5.2.4.4.9.4 1.6m1.9-2v.5c.2-.2.4-.4.6-.5.2-.1.4-.2.6-.2.3 0 .5.1.7.2.2.2.3.3.4.6 0 .2.1.5.1 1v1.7c0 .3 0 .5.1.6.1.1.2.1.4.2v.2h-2.1v-.2c.2 0 .3-.1.3-.2s.1-.3.1-.6V13c0-.1-.1-.2-.1-.2-.1 0-.1-.1-.2-.1-.3 0-.5.2-.7.6v2.3c0 .3 0 .5.1.6.1.1.2.1.3.2v.2h-2.1v-.2c.2 0 .3-.1.4-.2.1-.1.1-.3.1-.6v-2.4c0-.3 0-.5-.1-.6-.1-.1-.2-.1-.4-.2v-.2h1.5zm4.5-1.5v1.6h1v.4h-1v3.1c0 .1.1.1.1.2.1 0 .1.1.2.1.2 0 .4-.1.5-.4l.1.1c-.2.6-.6.9-1.2.9-.3 0-.5-.1-.7-.2-.2-.2-.3-.3-.3-.5V13h-.5v-.2c.4-.3.7-.6 1-.8.3-.3.5-.6.7-1h.1zm-118 16.1c0 .1-.1.1-.1.1m1.1-8.5c.1 0 .2-.1.2-.2s-.1-.2-.2-.2-.2.1-.2.2.1.2.2.2m10-4.9h-2.4V9.3h2.4v4.3zm0 2c0 .5-.2.9-.5 1.1l-1.9 1.2v-4.1h2.4v1.8zm-2.7-2h-2.2V9.3h2.2v4.3zm0 4.4l-.9.5c-.1.1-.1.1-.2.1s-.2 0-.2-.1l-.9-.5v-4.2h2.2V18zm-3.1-6h.7v1.6h-.7V12zm.7 5.9l-1.9-1.2c-.3-.2-.5-.6-.5-1.1v-1.8H21v4.1zm-1.6-7h-.8V9.3h.8v1.6zm.2-1l.1-.1-.1-.1h.1l.1-.1.2.1h.1l-.1.1.1.1H20v.1h-.1l-.1.1v-.2h-.2zm.6 1.7c-.2-.1-.2.1-.2.1s-.1 0-.1-.1l.1-.1c-.5 0-.5.2-.6.2-.1 0 .1-.3.2-.3-.1 0-.2-.1-.3-.2.1-.1.1 0 .2 0 0-.1 0-.1.2-.1s.2.2.2.2 0-.2.1-.2c.2 0 .5.6.3.6s-.1 0-.1-.1m-.5 1.3h.1l.1-.1.1.1h.1l-.1.1.1.1H20v.1l-.1-.1-.1.1v-.1h-.1l.1-.1-.1-.1zm-1-1.6h.1l.1-.1.1.1h.1l-.1.1.1.1H19v.1l-.1.1v-.1h-.1l.1-.1-.2-.2zm-.1.7h.8v1.6h-.8V12zm1.9-.5l.1-.1-.1-.1h.1l.1-.1.1.1h.1l-.1.1.1.1h-.1v.1l-.1-.1-.1.1v-.1h-.1zm.5-.6h-.7V9.3h.7v1.6zM26.3 9h-7.9v6.5c0 .6.3 1.2.6 1.3l3 1.9c.1.1.2.1.3.1.1 0 .2 0 .2-.1l3.1-1.9c.4-.2.6-.7.6-1.3l.1-6.5z"/><path class="st2" d="M20.9 15.3s-.3.1-.2.1c0-.1.2-.3.2-.3 0-.1-.1 0-.3.1.4-.7.2-.4-.1-.3.4-.4.3-.4 0-.3.2-.2.3-.4.2-.5-.2.3-.4.3-.4.5s-.1.5-.2.6c-.1.1 0-.5-.3-.5-.1 0-.3 0-.4.1.1 0 .2.2.2.2 0 .1.1.2 0 .2s-.2-.2-.2-.3v-.2c0-.3-.4-.6-.6-.6 0 .2.2.2.2.5-.1 0-.2-.2-.2-.1s.1.1.1.2-.2 0-.2.1.1.1.1.2h-.1s0 .1.1.1v.2c0 .5.3.8.5.8s.1-.1.2-.2c0 .1.1 0 .1.1 0 .2-.2.1-.2.2 0 .2.3 0 .3.2v.3c0 .1.3-.1.2-.1.1 0 .1.2.2.2s.1-.2.2-.2c0 0 .2.2.2.1 0-.2-.1-.1-.1-.3 0-.2.3-.1.3-.2s-.1 0-.1-.1c0 0-.3-.4.1-.2.2.2.2-.6.2-.6m8.4 1.7c.1 0 .3-.1.3-.2s-.1-.2-.3-.2c-.1 0-.3.1-.3.2s.2.2.3.2m-1 .7c.1 0 .3-.1.3-.2s-.1-.2-.3-.2c-.1 0-.3.1-.3.2 0 0 .1.2.3.2m-12.5 1.4c.1 0 .3-.1.3-.2s-.1-.2-.3-.2c-.1 0-.3.1-.3.2s.1.2.3.2m.8.1c.1 0 .3-.1.3-.2s-.1-.2-.3-.2c-.1 0-.3.1-.3.2s.1.2.3.2M39 8.1c.4.5.5 1.2.2 1.8-.1 0-.1-.2-.1-.3-.3-.5-.5-1.2-.2-1.8.1-.1 0 .2.1.3m-32.9.6c-.1.3-.1.8 0 1.1-.1.1-.1-.1-.1 0-.6-.4-.3-1.2-.5-1.8h.1c.3.2.4.4.5.7m34.1 0c.1.2-.1.3-.2.4-.1 0-.3 0-.3-.2s0-.3.2-.4c.1.1.2.1.3.2m-35 .7c0 .1-.1.3-.2.3s-.2 0-.3-.1c0-.1 0-.2.1-.3 0-.1.1-.1.2-.1s.2 0 .2.2m35.6.2v.2c-.1.2-.3.2-.4.2-.1-.1-.1-.2-.2-.2 0-.1.1-.2.2-.3.2 0 .3 0 .4.1m-.8 0c.1.1 0 .2 0 .3-.1.1-.2.2-.3.1-.1-.1-.2-.1-.2-.2s.1-.3.2-.3.2.1.3.1m-1 .2c0 .2 0 .4-.2.4-.2.1-.3-.1-.3-.2s.1-.3.2-.3.2 0 .3.1m-32.2.1c0 .1-.1.2-.2.3-.1 0-.2-.1-.3-.2-.1-.1 0-.2.1-.3.1-.1.3 0 .4.2m-.9 0c0 .1-.1.2-.2.3-.1 0-.2 0-.3-.1-.1-.1 0-.3.1-.3.3-.1.4 0 .4.1m29.7.1c.1.3.2.7.3 1-.1.3 0 .6-.2.8-.2-.1-.2-.3-.3-.4-.2-.5 0-1.1.1-1.6.1 0 .1.1.1.2m-30.3.2c0 .2-.1.3-.2.4-.2 0-.3-.1-.3-.2s.1-.3.2-.3c.1-.1.2-.1.3.1m32.5.4c.2.4.2.9.1 1.4h-.1c-.2-.4-.5-.7-.6-1.1 0-.3.1-.6.2-.8.1-.1.2 0 .2.1s.1.3.2.4m1.8-.3c0 .1-.1.3-.2.3s-.3 0-.3-.2c0-.1 0-.3.1-.3s.3.1.4.2m-33.7.5c0 .1-.1.2-.2.3-.1.1-.2-.1-.3-.1 0-.1-.1-.2 0-.3 0-.1.1-.1.2-.1.2 0 .3 0 .3.2m.6-.1c.1.1-.1.2-.2.3-.2.1-.2-.1-.3-.2 0-.1.1-.2.2-.3.2 0 .3.1.3.2m33.4 0c0 .2-.3.4-.3.6-.2.4-.5.7-.9.8-.1.1-.2.2-.3.2 0-.3.2-.5.4-.8.3-.5.7-.7 1.1-.8"/><path class="st2" d="M5.7 11.2c.2.2.3.5.6.7 0 .1 0 .1-.1.1-.7 0-1.1-.8-1.5-1.2 0-.2.2 0 .3 0 .2.2.5.2.7.4m34.4.2c0 .6-.3 1.2-.9 1.5-.2.1-.3.2-.5.1.3-.6.7-1.1 1.2-1.6h.2zm-2.6.5c0 .2-.1.3-.2.4-.2 0-.2-.1-.3-.2 0-.1.1-.3.2-.3h.2c0-.1 0 0 .1.1M4.9 12c.3.2.5.4.7.7-.2.1-.4 0-.6 0-.5-.2-.8-.6-1.3-.7 0-.2.2-.1.3-.1.4-.1.6 0 .9.1"/><path class="st2" d="M19.6 7.8c-.8-.3-1.3.5-2.1.4-.1.1-.1.2-.1.2h-.2c0-.3-.2-.7-.2-1 0-.1.1-.3 0-.4-.4-1.2 1.1-.3 1.4-1 .3-.6-.5-.7-.7-1.1v-.3c-.3-.2-.5-.3-.7-.6.1-.4.1-.7 0-1.1 0-.1-.1-.2-.2-.2-.3.4-.5.7-.7 1-.3-.2-.5-.5-.8-.6-.2 0-.4-.2-.6-.2v.2c0 .6.3 1 .7 1.4v.2c-.2.6-.2 1.2-.2 1.9-.6 1.6-1.6 3.2-3 4.3-.8.9-1.7 1.8-1.8 3 0 .2 0 .4-.1.6-.5-.2-.9-.4-1.3-.7-.6-.5-1.5-.4-2-1.2-.2-.3 0-.7.2-.9.5-.5.4-1.3.2-1.8-.1 0-.1.1-.1.1 0 .8-.7 1.4-.4 2.3.1.3.2.4.3.7-.1 0-.2 0-.3-.1-.3 0-.6-.2-.9-.1-.6.3-1.5-.1-2 .5-.1 0-.2 0-.2.2.3 0 .6.1.9.1.5.1.8-.3 1.1-.5h.1c.1-.1.3 0 .5-.1.9.1 1.5.5 2.3 1v.1c-.3.1-.6.2-.9.4-.3.2-.7.6-.8 1-.2.4.1.7.2 1 0 .1 0 .3.2.4.4-.5 0-1.1.1-1.6.1-.4.5-.6.9-.7.8-.3 1.3.3 2 .7 0 .7.1 1.3-.1 1.9-.2.1-.4.1-.6.1-1.1.1-1.9.7-2.9 1-.4.2-1 .1-1.4.3.3.1.7 0 1.1 0 1.3-.2 2.4-1.3 3.8-1.1-.3.2-.5.5-.7.7 0-.2-.1-.3-.2-.4-.1-.1-.2 0-.3.1v.2c.1.1.2.2.3.2 0 .1-.2.2-.3.3-.4.7-1.2.4-1.6.9-.1.1-.3.2-.2.3.5.1 1-.1 1.4-.4.5-.6 1-1.1 1.6-1.7.1.5 0 .9-.3 1.3-.1-.1-.2-.2-.4-.2-.1 0-.2.2-.2.3.1.1.1.2.2.3-.6.4-1.1.4-1.7.6-1 .1-2 .2-3 .2-.5 0-1 .1-1.5 0-.5.1-1.1-.1-1.5.2-.1.1 0 .1 0 .2.6.4 1.5.1 2.2.2h5.4c.4 0 .8 0 1.1-.2.7-.4 1.1-1.1 1.4-1.9l.3-.9c.1-.5.6-.8 1-.9.1.7-.1 1.5-.2 2.2-.1.5-.4.9-.2 1.4 0 .2.3.2.5.3 1.7 0 3.3-.1 5.1 0 .3.1.6.2.9.1l.1-.1c0-.2-.2-.4-.3-.4 0-.1-.2-.1-.2-.1-.9-.5-1.9-.2-3-.2-.5.1-1.1.2-1.5-.2-.2-.3-.1-1.1-.1-1.1 0-.3.8-2.6.9-2.7 0-.2.1-.4.1-.7.1-.3.1-.7.1-1 .1-.5.3-.9.4-1.3.1-.2.2-.4.2-.7.1-.3.1-.5.3-.7.4.3.9.3 1.1.8l.2 1.2c0 .1.1.2.2.1.4-.2.2-.8.2-1.1.1-.4-.2-.7-.3-1-.1-.1-.3-.4-.3-.4-.1-.3-.7-.5-.6-.9.1-.3.2-.6.5-.8l.1.1.2-.1V8.4c.4 0 1.1.1 1.6.1.1 0 .2.1.4.2l.1-.2 1.1-.2c-.5 0-.8-.5-1.3-.5"/><path class="st0" d="M907.5-24.2h-1200"/><path class="st2" d="M20.9 8.3h.1-.1zm-12 3.9c0 .2-.1.3-.2.3s-.2-.1-.3-.2c-.1-.2.1-.3.2-.3.1.1.2.1.3.2m-.9 0c.1.1.1.2.1.3-.1.1-.2.2-.3 0-.1-.1-.2-.2-.1-.3 0 0 .2-.1.3 0m29.6.4c.1.2-.1.3-.2.3s-.3-.1-.3-.3c0-.1.1-.2.2-.2.2.1.3.2.3.2m.8 0c0 .1.1.2 0 .3-.1 0-.1.1-.1.1-.2 0-.3 0-.3-.2s.1-.2.2-.3c0 0 .1.1.2.1m-33.9.2c0 .2-.2.2-.4.2 0 0-.1-.1-.1-.2s0-.2.2-.2.3 0 .3.2m4.7.2c0 .1-.1.2-.2.3-.1 0-.2-.1-.3-.2 0-.1.1-.3.2-.3 0 0 .2.1.3.2m-.9-.1s.1.2 0 .2c-.1.1-.2.2-.3.1 0 0-.1-.1-.1-.2l.2-.2c.1 0 .2.1.2.1m32.2.2c0 .1-.1.2-.2.3-.1 0-.2 0-.3-.1-.1 0-.1-.1-.1-.2.1-.1.2-.2.3-.2.1 0 .2.1.3.2m.8.1c0 .1-.1.2-.3.3-.1 0-.2 0-.2-.2 0-.1.1-.2.1-.2.2-.1.4 0 .4.1m-35.2.2c0 .2 0 .3-.2.3-.1.1-.2 0-.3-.1-.1-.1-.1-.2-.1-.3 0-.1.2-.1.2-.2.3.2.3.2.4.3m.7.1c0 .1-.1.2-.1.2-.1 0-.2.1-.2 0-.1-.1-.2-.2-.1-.3 0-.1.3 0 .4.1m32.8 0c0 .1-.1.2-.2.3-.1 0-.2-.1-.3-.2 0-.1.1-.2.2-.3.2 0 .3.1.3.2m1.2.2c0 .1 0 .3-.2.4-.1 0-.2 0-.3-.1-.1-.1-.1-.2-.1-.3.1-.1.2-.2.3-.2.2.1.2.2.3.2M5.6 14c.1.1-.1.1-.1.2-.1.1-.2 0-.3 0-.1-.1-.1-.2 0-.3.1-.2.3-.1.4.1m34.3.3c.1 0 0 .1 0 .1-.3.2-.8.2-1.1-.1-.2-.1-.4-.2-.5-.3.1-.2.3-.2.5-.2.4.1.7.5 1.1.5m-33.7-.2c0 .1-.1.2-.1.2-.1.1-.2.1-.2 0-.1-.1-.2-.2-.1-.4.2 0 .3.1.4.2m1.2.1c.1.1 0 .2-.1.3-.1.1-.2 0-.3 0 0-.1-.2-.2 0-.3.1-.2.3-.1.4 0m16 .6c0 .3-.5 0-.4.3.1.3.1.6.3.8.1.2.1.5.1.7-.1.2-.3.4-.5.5-.4 0-1 .2-1.2-.3-.1-.2-.2-.4-.2-.7l.1-.1c0-.1-.1-.1-.1-.2.4-.1-.2-.5.2-.5.3.3.8.2 1.1.6l.2.2c-.1-.3-.2-.7-.3-1 0-.2 0-.4.2-.5.1-.2.3.1.5.2m-14.7-.1c0 .1-.1.2-.2.3-.1.1-.2-.1-.2-.2s.1-.2.1-.3c.1.1.2.1.3.2m8.4.2c.2.6.1 1.1-.2 1.6 0 .1 0 .3-.1.3-.4-.5-.1-1.3.1-1.8 0-.2.2-.3.2-.1m11.8.3c.2.4.2.9 0 1.3l-.1.1c-.1-.3-.3-.7-.3-1 .1-.3.2-.5.2-.8.2 0 .2.2.2.4m-19.2.1c-.1.2-.3.2-.5.3-.3.3-.8.3-1.2.2.4-.5.9-.8 1.6-.7 0 .2.1.1.1.2m-5.6.5c.5.4.6.9.9 1.4 0 .1.2.1.1.2s-.2-.1-.4-.1c-.5-.2-.9-.8-.8-1.5h.2m24.3.5c0 .1 0 .3-.1.3-.2 0-.3 0-.3-.2 0-.1 0-.2.1-.2 0-.1.2-.1.3.1"/><path class="st2" d="M34.2 17c0-.3.1-.5.1-.8 0-.1.1-.2.1-.3.3-.5 1-.3 1.5-.3.2.1.5.1.7.2.1-.1.2-.1.3-.1.4-.2.2-.8.2-1.2l-.2-.4c0-.1-.1-.2-.1-.3-.1-.1-.1-.3-.2-.4-.2-.6-.7-1-1.1-1.5-.7-.9-1.8-1.5-2.9-1.8-1.1-.4-2.2.1-3.2.5-.3-.1-.5-.3-.5-.6 0-.5.1-1 .3-1.5 0-.4.3-.6.4-1 .2-.8.5-1.6.6-2.4 0-.5-.4-.9-.7-1.1-.4 0-.7 0-.9.2-.2.4-.6.6-.9.8 0 .2.3.1.4.2.3.1.6 0 .9.2 0 .6-.3 1-.6 1.5-.5.7-1 1.4-1.3 2.2V9l.1 3.5c.4.7 1 1.6 1.8 1.9.4.4 1 .8 1.6.5.3-.1.3.4.5.5.2.5-.2.9-.2 1.4l-.4.8c-.4.8-.8 1.7-1.4 2.4-.2 0-.3.2-.5.2-.1.2-.3 0-.5.1-.4.2-1 .1-1.3.5l.1.1c.8 0 1.8.1 2.7 0 .1 0 .2-.1.2-.3-.1-.2 0-.5.2-.6.1-.3.3-.6.4-.9.3-.6.6-1.1.9-1.7l.4-.7c.1-.2.3-.5.4-.8.1-.1.2-.2.2-.4 0-.1-.1-.2-.1-.3.1-.1.2-.1.4-.1.3.2.7.6.8.9l.1.4.1.2v.5l.1.4c.1.7-.1 1.4-.1 2.1-.2.8-1.2.7-1.8.9-.2.1-.5.1-.5.3.8.2 1.7.1 2.6.1.1-.1.2-.2.2-.3 0-.2.2-.3.2-.5-.2-.2 0-.5-.1-.8V19c.1-.4.1-.9.2-1.3l-.2-.7zm6.8-.5c-.4.6-.9 1.4-1.7 1.6h-.1c.5-.5.7-1.3 1.4-1.5.1-.1.3-.2.4-.1m-37.6.6c-.1.1 0 .2-.1.2-.1.1-.2 0-.3-.1-.1-.1.1-.3.2-.3.1.1.2.1.2.2m4 .2c0 .1-.1.1-.2.2-.6.2-1.2 0-1.6-.4 0-.1 0-.1.1-.1.5.1 1.2 0 1.7.3m-3.3-.1v.2c-.1.1-.2.2-.3.1-.1 0-.1-.1-.2-.2 0-.1.1-.2.2-.3.2.1.3.1.3.2m12.9 0c0 .1-.1.2-.2.3-.1 0-.2 0-.3-.1 0-.1 0-.2.1-.3.2 0 .4 0 .4.1m24.5.1c0 .1-.1.2-.2.3H41c0-.1-.1-.1-.1-.2.1-.1.2-.2.3-.2.2 0 .2 0 .3.1m.9-.1c.1.1 0 .2-.1.3-.1.1-.2.1-.2.1-.1-.1-.2-.1-.2-.3 0-.1.1-.2.2-.2s.2.1.3.1m-39.6.4c0 .1-.1.2-.1.2-.1 0-.1.1-.2.1s-.2-.1-.2-.2.1-.2.2-.3c.1.1.3.1.3.2"/><path class="st2" d="M31.8 17.6v.2c-.1.1-.2.2-.3.1-.1-.1-.2-.2-.1-.3.1-.1.3-.1.4 0M5 17.9c0 .1 0 .2-.2.2-.1 0-.2-.1-.2-.2s0-.3.1-.3c.2-.1.3.1.3.3m-1.3 0c0 .1-.1.2-.1.3-.2.1-.3-.1-.4-.2 0-.1.1-.3.2-.3.2 0 .2.1.3.2m29 0c0 .1 0 .3-.2.3-.2.1-.3-.1-.4-.2.1-.1.1-.3.2-.3.3 0 .3.1.4.2m-28.3 0c0 .1 0 .1-.1.2-.1 0-.1.1-.2.1-.1-.1-.2-.1-.2-.2s.1-.2.2-.3c.1 0 .2.1.3.2m36.3.1c0 .1-.1.2-.2.2s-.2-.1-.3-.1c-.1-.1 0-.2 0-.3.2-.2.5 0 .5.2m1.1.1c0 .2-.2.2-.3.2-.1-.1-.3-.2-.2-.3.1-.1.1-.1.2-.1.1-.1.2 0 .3.2m-6.6.1c.1.2-.1.2-.2.3-.1 0-.2-.1-.3-.1 0-.2 0-.3.2-.4.2 0 .3.1.3.2m-3.7.2c.1 0 0 .1 0 .2-.1.1-.2.2-.3.1-.1-.1-.2-.1-.1-.3 0-.2.3-.2.4 0m.7.1c0 .1 0 .2-.1.2-.1.1-.2 0-.3 0 0-.1-.1-.1 0-.2 0-.1.1-.1.2-.1.1-.1.2-.1.2.1m-23.3 0c.1.1 0 .2 0 .3-.1.1-.2.2-.3.1-.1-.1-.1-.2-.1-.4.1 0 .1-.1.2-.1 0-.1.1 0 .2.1m27.8 0c0 .1-.1.2-.2.2-.2.1-.2-.1-.3-.2 0-.1.1-.1.1-.2.2 0 .3.1.4.2m-.7 0c.1.1-.1.2-.2.3-.1 0-.2 0-.3-.1-.1 0-.1-.1-.1-.2.1-.1.1-.2.2-.2.2.1.3.1.4.2m6.2.2c0 .2-.2.1-.3.2-.6.4-1.3.1-1.9-.1 0-.2.2-.1.4-.2.5-.4 1.1 0 1.8.1zm-37.7-.2c-.6.4-1.2.6-1.8.4l-.1-.1c.5-.3 1.2-.4 1.9-.3zm33.6.1c0 .1-.1.2-.1.3-.1 0-.3 0-.4-.2 0-.1.1-.2.2-.3.1.1.3.1.3.2M7 18.7c-.1.1 0 .2-.2.3-.1.1-.3-.1-.3-.2 0-.2.1-.2.1-.3.2-.1.3.1.4.2m-1 .1c0 .1 0 .2-.1.2-.1.1-.2.1-.3 0-.1-.1-.2-.2-.2-.3l.2-.2c.2.1.4.1.4.3m33.1.3c0 .1-.1.2-.2.3-.1 0-.2-.1-.3-.1 0-.1 0-.2.1-.3 0 0 .1 0 .2-.1.1 0 .2.1.2.2M5 18.9c0 .1-.1.2-.1.2 0 .2-.2.4-.3.6-.3.3-.6.3-1 .4l-.1-.1c.4-.4.9-.8 1.5-1.1zm33.4.3c0 .2-.1.2-.2.3-.1 0-.2-.1-.3-.2 0-.2.1-.2.2-.3.1 0 .3.1.3.2m-31.8 0c0 .2-.1.3-.2.3s-.2 0-.3-.1c-.1-.1 0-.3.1-.3.2 0 .3 0 .4.1m34.3.5c.1 0 .2-.2.3-.2.1 0 .3.1.3.2.1.2-.1.3-.2.3-.1.1-.3-.1-.3.1.1.1.2.2.2.3 0 .1-.1 0-.2 0-.4-.2-.8-.5-1-.9-.1-.1-.3-.2-.2-.3.6-.1.9.2 1.1.5m1.4-.5c.1.1 0 .2 0 .3-.1.1-.3.1-.4.1-.1-.1-.1-.1-.1-.3l.2-.2c.1 0 .2.1.3.1m-5 .8l.3.6h-.1c-.5-.3-1.1-.6-1.3-1.1 0-.1-.2-.1-.1-.2.4-.1.7.2 1 .4 0 .1.1.1.2.3m-31.5-.6c.1.1-.1.2-.1.3-.2 0-.2 0-.3-.1-.1-.2.1-.3.2-.3 0 0 .1.1.2.1m33.2.4c0 .1-.1.1-.1.2-.1 0-.2.1-.3 0 0-.1-.1-.2 0-.3.1-.2.3-.1.4.1m3.4.2c0 .2-.1.3-.2.4-.1 0-.2-.1-.3-.1-.1-.1 0-.2 0-.3.1-.1.2-.2.4-.1l.1.1m-9.5 1.9c0 .2-.3.1-.4.3-.4.2-.9.2-1.4.2v-.1c.4-.4 1.1-.6 1.8-.4m-20.1.6c0 .1-.1.2-.2.2s-.2-.1-.2-.1c-.1-.2.1-.2.2-.3.1 0 .2.1.2.2m19.8.2c0 .1-.1.3-.2.3s-.2 0-.3-.1c-.1-.1 0-.2 0-.2.1-.3.4-.3.5 0m2.8.1c-.3.2-.7.5-1.2.5h-.7l-.1-.1c.4-.6 1.3-.6 2-.4zM9 23.1c0 .1-.1.2-.2.3-.1 0-.2 0-.3-.1-.1-.1 0-.3.1-.3.2-.2.4 0 .4.1m.7.1c0 .1 0 .1-.1.2-.1 0-.2.1-.3 0-.1-.1-.1-.2-.1-.2 0-.1.1-.1.2-.1.2 0 .3 0 .3.1m-5.3 1.5c-.1.2-.4 0-.5-.1-.5-.3-.5-.8-1-1.2.1-.2.2 0 .3 0 .1.1.2.1.3.2.5.2.6.6.9 1.1"/><path class="st2" d="M22.7 24.4c-.1.2-.2.3-.1.5h-.1c0-.2-.2-.3-.1-.6-.1-.2-.1-.4-.2-.6-.1-.2.1-.3.2-.5.2.1.3.3.4.4 0 .4-.1.6-.1.8m21.9-5.2c-.2-.4-.6-.6-1-.6s-.6.3-.8.6c-.1.3 0 .6.3.8.1 0 .2 0 .3-.1.1-.2-.1-.2-.1-.3-.1-.2 0-.4.1-.5.1-.1.4-.1.5-.1.2.1.3.2.4.4.1.2.1.5 0 .8-.2.4-.5.6-.9.7-1.1.1-13.7.1-13.7.1-1.5.1-3.2-.3-4.4.5-.6.3-.9.9-1 1.5-.4.3-.8.7-1.1 1.1.1-.3.2-.6.3-1 .2-.3.2-.7.4-1 .5-.9 1-1.7 1.8-2.4.3-.5.9-.4 1.5-.4.6.3 1.2.4 1.9.3v-.1c-.2-.2-.5-.3-.7-.4-.5-.3-1.1.1-1.7 0V19c.5-.4 1.1-.7 1.7-.9.5-.3 1-.4 1.5-.6.2 0 .4-.2.6-.1l.7-.2s.1.1.1 0c.6-.2 1.4 0 2.1 0l.1.1.7.2c.2 0 .4.3.6.3.1-.2-.2-.3-.2-.4.3-.1.6 0 .9.1l-.1.2c-.1.2 0 .3.2.3.1 0 .2 0 .2-.1.2-.1 0-.3 0-.4 1 .2 2 .4 2.9.9.3.1.5.3.8.3-.3-.3-.7-.4-1-.6-.2-.1-.6-.2-.7-.4 0-.1.1 0 .2-.1.5-.1.9-.4 1.2-.8 0-.1.2-.1.2-.2-.1-.1-.3 0-.5 0-.6.1-.8.8-1.4.9-.7-.2-1.4-.3-2.1-.5-.3-.1-.7-.1-1-.2l-.8-.1H32v-.1c.5-.1.9-.4 1.4-.6l3.7-1.7c.4-.4.7-.8 1-1.2 0-.1-.1-.2-.1-.3-.1 0-.2 0-.3.1-.2.1 0 .3 0 .4l-.6.6c-.1 0-3.8 1.7-3.8 1.7-.5.2-1.1.5-1.7.6l-.8.1c-.1.2-.2.3-.3.3-.2 0-.4.2-.6.2-1.8.7-3.6 1.5-5.1 2.9.1-.2.1-.4.1-.6 0-.2 0-.5-.2-.6 0-.1-.1-.3-.1-.4l-.2.1c-.1.3-.2.9-.1 1.2 0 .3.2.6.1.8-.7.8-1 1.8-1.5 2.8-.2 0-.2-.2-.3-.3.5-.6.8-1.3 1-2.1.1-.1 0-.3.1-.3 0-.2.1-.5 0-.6.1-.3-.4-.6-.1-.8l-.3.1c-.6.8.3 2-.4 2.8v.1c-.2.3-.3.5-.6.7-.3-.1-.5-.5-.6-.8-.3-.3-.3-.9-.1-1.3.1-.4-.1-.8-.1-1.1l-.1-.1c-.3.4-.5 1.1-.2 1.7.1.3.2.6.4.8.1.4.4.7.6 1 .1.1-.1.2-.2.2-.2-.1-.1-.3-.3-.4-.5-1-1-1.8-1.8-2.6 0-.1-.2-.2-.1-.4.3-.3.3-.8.2-1.1 0-.1-.1-.2-.1-.2l-.2-.2c0 .5-.3.9-.2 1.5-1.4-1.1-3-2.1-4.6-2.8l-.1.4c.4.1 1.5.8 1.5.8.5.2.9.5 1.4.8 1.9 1.1 3.1 2.8 4 4.8 0 .2.2.3.1.5-.3-.5-.7-.7-1-1.1-.1-.7-.5-1.3-1-1.6-.2-.3-.6-.3-1-.4h-5c-4.2 0-7.9.2-11.9.1-.6-.1-1.3-.3-1.4-.9-.1-.2-.1-.6 0-.8.2-.3.4-.4.7-.4.2 0 .4.2.5.4 0 .2-.2.4-.2.5 0 .1.1.2.2.1.2-.1.3-.3.4-.5 0-.1.1-.2 0-.3-.1-.3-.4-.5-.6-.6-.3 0-.7.1-.9.3-.6.5-.6 1-.5 1.4.2.6.9 1 1.5 1.1l13.4.1c1.3.1 2.8-.2 4.1.1.5.2 1 .5 1.1 1.1h-.1c-1.1-.7-2.5-1-3.9-.8-.6 0-1 .2-1.5.3-.3.1-.5-.1-.7-.2-.5-.5-1.4-.4-2-.3v.1c.7-.1 1.1.5 1.7.6.1 0 .2-.1.4 0-.6.3-1.2.7-1.9.9-.2 0-.3-.2-.5-.4-.3-.3-.7-.2-1.1-.2-.1 0-.2-.1-.3 0 .1.2.4.4.6.5.3.2.7 0 1.1.2-.1.1-.2.1-.3.2-.6.3-1.2.9-1.9.8-.8.1-1.5-.1-2-.7-.2-.6-.8-.8-1.4-.8 0 0-.1 0-.1.1.3.2.5.6.8.8.2.2.6 0 .7.3.3.2.6.3.9.4.2.1.5.1.7.2l-.1.1c-1.3.4-2.7.5-4.1.4-.4 0-.8-.1-1.2-.1 0-.1.1 0 .2.1-.1.1-.2.1-.4.1s-.4.1-.5.1c-.2 0-.4.1-.6.1-.2.3-.5.5-.8.7 0 .1 0 .1.1.1.3-.1.6 0 .9-.1.5 0 .7-.6 1.1-.8.4-.3.9-.2 1.4-.2.3.1 0 .2.1.4.1.1.2.2.4.2l.1-.1c.1-.1.1-.2 0-.4.2-.1.5 0 .7-.1.5 0 1-.1 1.6-.1.1 0 .2-.1.3 0 0 .1-.2.1-.1.3 0 .1.2.2.3.2.1-.1.3-.2.2-.3 0-.1-.1-.1-.2-.2 0-.1.3-.1.6-.3.2 0 .4-.1.6-.2.2 0 .3-.2.5-.1-.1.2-.2.5-.3.7-.2.8-.4 1.7 0 2.5h.1c-.3-.8-.1-1.6.1-2.3.2-1.2 1.4-1.6 2.3-2v.1c-.2.6-.6 1.2-.5 2 0 .1-.1.3 0 .3.2-.1.4-.4.5-.7.1-.6-.3-1.4.4-1.9 1.1-.5 2.2-1 3.5-1.1 0 0 .1 0 .2.1-.3.3-.7.6-.8 1-.4.6-.4 1.7-.2 2.5.1.4-.2.7-.4 1-.1.1-.1.3-.2.5h.3c.2-.3.5-.6.5-.9 0 .1.2.3.3.3.1-.2-.1-.3-.1-.4.2-.1.3.2.5.2.3.1.5.2.8.2l.1-.1c-.3-.5-.9-.6-1.4-.6-.3-.5-.3-1.1-.2-1.6.1-.3.1-.6.3-.9.1-.2.3-.4.4-.5.2-.2.6-.4.9-.5-.4.3-.4.7-.6 1.1-.2.4-.3.8-.1 1.2.1.2 0 .5.2.6.2-.3.2-.6.3-.9 0-.5-.3-.9-.1-1.4.1-.4.4-.5.7-.6.8-.1 1.4.3 2.1.6.1.1.4.2.4.4 0 .4-.2.8-.5 1-.4.2-.9.3-1.3 0-.2-.2-.3-.6-.2-.9.2-.2.4-.3.6-.2.1.1.3.2.4.1.1 0 .1-.2.1-.2-.2-.1-.2-.3-.4-.3-.3 0-.6 0-.8.2-.3.3-.4.6-.3 1 .1.5.4.8.9.9.6.2 1.3 0 1.7-.6.2-.2.2-.4.3-.6.7.4 1.2 1.1 1.4 1.9 0 .2.1.5 0 .7h.5v-.3c.2-.9.7-1.7 1.4-2.3.2-.1.2.2.2.3.2.5.7.9 1.2 1.1.6.1 1.1 0 1.5-.5.2-.3.4-.8.1-1.2-.2-.2-.5-.4-.8-.4-.4 0-.6.3-.8.5 0 .1 0 .2.1.3.1 0 .2 0 .2-.1 0-.2.2-.3.4-.4.2-.1.3 0 .4.1.2.1.2.3.2.6s-.2.6-.5.7c-.4.2-1 .1-1.3-.1-.2-.2-.3-.4-.4-.6 0-.2-.1-.4 0-.7.6-.4 1.2-.6 2-.7.3.1.5.3.7.5.6.7-.1 1.6.3 2.4.2 0 .2-.3.2-.4.2-.5-.1-1.1-.2-1.6-.2-.3-.3-.6-.5-.8h.2c.3.2.6.4.8.7.4.7.6 1.5.5 2.3-.1.4-.5.6-.9.8-.1.1-.3.3-.4.5.2.1.4 0 .6-.1.3-.1.4-.4.6-.6v.1c0 .2-.1.4.1.4.1-.2.1-.5.1-.7.2.2.2.5.3.7.1.3.3.6.7.6.1-.1 0-.3 0-.4 0-.4-.3-.5-.5-.8-.5-.7-.3-1.7-.6-2.5-.1-.4-.4-.7-.7-1.1l.1-.1c.7 0 1.2.2 1.9.3.5.1 1.6.1 1.9 1.1.2.6.4 1.1.8 1.5.1-.1.1-.4 0-.5-.1-.7-.7-.9-1-1.5v-.1c.3.1.7.2 1 .3 1.1.3 1.9 1.4 2 2.6 0 .9-.2 1.7-.5 2.4 0 .1-.2.2-.1.3.2-.1.2-.3.3-.4.5-.8.7-1.9.5-2.9 0-.2-.2-.3-.1-.5.1.1.2.1.2.1.1-.1.2-.1.3-.2 0-.1.1-.2 0-.3-.1-.1-.3-.1-.4-.1-.1.1-.2.2-.2.3-.1-.2-.3-.6-.5-.8.6.2 1.2.5 1.8.7.1.1.3.2.5.2.5.2 1.1.3 1.7.4.4 0 .8.2 1.2.1-.2-.2-.5 0-.7-.2-1-.1-1.9-.4-2.7-.7h.1c.1-.1.2-.2.2-.4-.1-.1-.2-.2-.3-.2-.1 0-.2.1-.2.2s.1.2.2.3H36c-.4-.2-.8-.4-1.3-.6-.2 0-.3-.2-.4-.2-.3-.2-.6-.3-1-.4-.9-.5-1.9-.7-2.8-1.1-.2-.1-.4-.1-.6-.2-.3-.1-.7-.2-1-.3-1.2-.3-2.7-.3-3.8.3-.2-.1-.3.2-.3 0 .3-.8 1.1-1 1.9-1.1 5.5-.1 10.7-.1 16.1-.2.6 0 1.3-.2 1.6-.8.3.1.3-.5.2-.8"/><path class="st2" d="M37.6 23.5l.1.1c-.5.4-1.2.6-1.8.6-.1 0-.1.1-.2 0v-.1c.4-.5 1.2-.8 1.9-.6m-2.2.2c.1.2-.1.3-.2.4-.2 0-.2-.1-.3-.2 0-.1.1-.2.1-.2.1-.2.3-.2.4 0m-26.2.1c0 .1 0 .2-.1.3-.1.1-.2.1-.2.1-.1 0-.2-.1-.2-.2s.1-.2.2-.3c.1-.1.2-.1.3.1m-2.4.9c-.3.2-.6.1-.9-.1-.2-.3-.4-.6-.7-.7 0 0-.1-.1 0-.1.6-.1 1 .5 1.6.9m32.9-1c-.3.5-.6 1.1-1.2 1.3-.1 0-.2.1-.3 0 .2-.5.7-1.1 1.2-1.3h.3m-29.7.2c0 .2-.1.2-.2.3-.1 0-.2-.1-.2-.2-.1-.1.1-.2.1-.3.1 0 .3.1.3.2m31.4.1c-.1.2-.1.5-.2.7-.3.3-.5.7-1 .8-.1-.1.1-.3.2-.4.3-.5.5-1 1-1.1zm-38.9.1c0 .1.1.2 0 .3-.1.1-.2.1-.3.1-.1-.1-.2-.2-.1-.3.1-.2.3-.2.4-.1m-.8.2c0 .1.1.1 0 .2 0 .1-.1.2-.2.2-.2 0-.2-.1-.3-.2 0-.1 0-.2.1-.3.2-.1.3 0 .4.1m1.6.1c0 .1.1.3-.1.3-.2.1-.3-.1-.4-.2 0-.1.1-.2.2-.3.1.1.2.1.3.2m2.3.2c0 .1 0 .2-.1.3-.1.1-.2 0-.3 0 0-.1-.2-.2-.1-.3l.2-.2c.1.1.2.1.3.2m37.2.1c0 .1-.1.2-.2.2s-.2 0-.3-.2c-.1-.2.1-.2.2-.3.1.1.2.1.3.3m-2.6 0c0 .1-.1.2-.2.2-.2.1-.4-.1-.4-.2s.1-.2.2-.3c.3.1.4.2.4.3m1.7 0c0 .1-.1.2-.1.2-.1 0-.2 0-.3-.1-.1-.1 0-.2.1-.3.1 0 .3 0 .3.2M2.1 25c0 .2 0 .3-.2.4-.1 0-.3-.1-.3-.2s0-.3.1-.3c.2-.1.4 0 .4.1m37.5.1c0 .2 0 .3-.2.4-.1 0-.2 0-.3-.1-.1-.1-.1-.2 0-.3.1-.2.4-.1.5 0m-30.1.2c.1.2-.1.2-.2.3h-.2c-.1-.1-.2-.2-.1-.3.1-.1.1-.1.2-.1.2-.2.3 0 .3.1m33 .1c0 .1-.1.1-.1.2-.1.1-.2.1-.3.1-.1-.1-.1-.3-.1-.4l.2-.2c.1.1.3.1.3.3m-.8 0c.1.2-.1.3-.2.3s-.1 0-.2.1c.4.2.6.5.9.8v.1c-.5 0-1-.1-1.4-.5-.1-.1-.3-.1-.4-.2.2-.2.5-.1.8-.1.2-.2-.2-.3 0-.5.1 0 .1-.1.2-.1.1-.1.2 0 .3.1m-5.7 0c0 .1-.1.2-.1.2-.1.1-.2.1-.3.1-.1-.1-.2-.2-.1-.3.1-.2.5-.2.5 0m-30.8.5c0 .1-.1.2-.2.2s-.2-.1-.2-.2.1-.2.1-.2c.1-.1.4 0 .3.2m1.2-.2c0 .2-.2.3-.3.5-.2.5-.6.9-1.1.9-.1-.1.2-.3.2-.4.2-.4.7-.7 1.2-1zm29.3.2c0 .2-.1.3-.2.3s-.2-.1-.3-.1c-.1-.1 0-.2 0-.3.2-.2.4 0 .5.1m.9.1c0 .2-.1.3-.2.3h-.1c-.1-.1-.2-.1-.2-.3.1-.1.1-.2.2-.2 0 0 .2.1.3.2M8.5 26c0 .2-.1.2-.2.3-.1 0-.2-.1-.3-.2 0-.1.1-.2.2-.3.2 0 .2.1.3.2m.9.1c0 .1-.1.2-.3.2-.1 0-.2-.1-.2-.2s.1-.2.2-.3c.2.1.3.1.3.3m30.1 1c.1.1.2.1.2.2-.2.1-.4-.2-.6-.2-.3-.3-.6-.7-.7-1.1.1-.1.3 0 .4.1.2.2.5.6.7 1m.5-1v.3c-.1.1-.3.1-.4.1-.1-.1-.2-.2-.1-.3 0-.1.2-.1.3-.2.1-.1.1 0 .2.1m-29.3.3c0 .1 0 .3-.1.4-.1 0-.3 0-.3-.2-.1-.2.1-.2.2-.3.1 0 .1.1.2.1m25.8 1c.2.3.3.6.4 1 0 .1.1.2 0 .3h-.1c-.6-.5-.8-1.1-1-1.7-.1 0-.1-.1-.1-.1.1-.1.2.1.4.2l.4.3zm-24-.5c-.5.4-1.3.7-1.9.3 0 0 0-.1.1-.1.4-.1.8-.3 1.2-.3l.6.1zm-3.1.1c-.5.3-.9.9-1.5 1-.1 0-.2.2-.3.1.2-.8 1.1-1.2 1.8-1.2v.1zm26.3.6c0 .1 0 .3-.1.3-.1.1-.2.1-.3 0-.1-.1-.1-.2-.1-.3 0-.1.1-.1.2-.2.1.1.2.1.3.2m-1.1.1c-.1.2-.3.3-.5.4-.5.2-.9-.1-1.3-.2 0-.1.2-.1.2-.1.5-.1.9-.2 1.4-.1 0-.1.1-.1.2 0m-25.2.4c0 .1-.1.2-.2.2s-.2 0-.3-.1c0-.1-.1-.2-.1-.3 0-.1.1-.1.2-.2.2.1.3.2.4.4m.8.1c0 .1-.1.2-.2.3-.1 0-.2 0-.3-.1 0-.1-.1-.2 0-.3 0-.1.1-.1.2-.1.1-.1.2.1.3.2m25.2.1c0 .1 0 .2-.1.3-.1.1-.2.1-.3.1-.1 0-.1-.1-.2-.2s.1-.2.1-.3c.2-.1.5-.1.5.1m.6 0c0 .1.1.1 0 .2s-.1.3-.3.2c-.1 0-.1-.1-.2-.1-.1-.1 0-.4.2-.4s.3.1.3.1m-26.3.4c0 .2 0 .3-.1.4-.2 0-.3 0-.4-.2 0-.1 0-.3.2-.4 0 0 .2.1.3.2m.8 0c0 .4-.1.9-.5 1.1-.2 0-.4.3-.7.1v-.1c.3-.4.8-.7 1.2-1.1m22.8.3c.1.1 0 .2-.1.2-.1.1-.2.1-.3 0-.1 0-.1-.2-.1-.3 0-.1.1-.1.2-.2l.3.3m-21.5.6c.2.3.1.8.2 1.1-.2 0-.3-.2-.5-.4-.3-.4-.3-1-.4-1.5h.1c.2.1.4.4.5.6 0 .2.2.2.1.2m22.2-.5c0 .1-.1.1-.2.2-.1 0-.2-.1-.3-.1 0-.1.1-.2.1-.3.2 0 .3.1.4.2m1.6 1.3s0 .1 0 0l-.1.1c-.4-.4-.8-.8-.7-1.3h.1c.3.2.7.6.7 1.2m-1-.5c0 .1-.1.2-.1.3-.2 0-.4 0-.4-.2 0-.1.1-.2.2-.3.1 0 .2.1.3.2m-.9.3c-.2.5-.7.8-1.1 1.2-.1 0 0-.2 0-.2.1-.5.6-1.1 1.1-1.3.1 0-.1.2 0 .3m1 .4c0 .1-.1.2-.2.3-.1 0-.2 0-.3-.2 0-.1.1-.2.2-.3.1.1.2.1.3.2M24.5 5h-.2c-.4 0-.1.5.2.5.2 0 .3-.5 0-.5m-1.3.5c.4 0 0-.5-.2-.5h-.4c-.4 0 0 .5.2.5h.4zm-1.6 0c.4 0 0-.5-.2-.5H21c-.4 0 0 .5.2.5h.4zm2.9-.6c.2 0 .3.2.3.4s-.2.4-.3.4h-4.1c-.2 0-.3-.2-.3-.4s.2-.4.3-.4h4.1zm0 6.5c0 .2.2.1.4.1s.4.1.4-.1c0-.3-.2-.2-.4-.2s-.4-.1-.4.2m.7.4c.2 0 .2-.2.2-.5 0-.5-.4 0-.6-.5-.1.4-.5 0-.5.4 0 .3 0 .5.3.5h.6zm-1.1-2.1l.8.3.8-.3-.3 1.2.6-.1-.2.7.2.7-.6-.2.2 1.3-.8-.3-.8.3.3-1.3-.6.2.2-.7-.2-.7.6.1-.2-1.2z"/><path class="st0" d="M907.5-24.2h-1200"/><path class="st2" d="M22.3 11h-.1v.1l-.1.1.2.1v.1l.1-.1.1.1v-.1l.1-.1-.1-.1.1-.1h-.1l-.1-.1zm-.6.8h-.1v.1l-.1.1.2.1v.1l.1-.1.1.1v-.1l.1-.1-.1-.1.1-.1h-.1l-.1-.1zm1-.1h-.1l.1.1-.1.1.1.1v.1l.1-.1.1.1V12l.2-.1-.1-.1v-.1h-.1l-.1-.1zm.1.8l-.1.1h.1v.1l.1-.1.1.1v-.2h-.1v-.1zm-.9.2h-.2l.1.2-.2.2h.3v.3l.2-.2.2.2v-.3h.2l-.2-.2.1-.2h-.2l-.1-.2zM22.3 0l.5 1.2 1.3-.3-.7 1.1 1.1.8-1.3.2.1 1.3-1-.9-.9.9.1-1.3-1.3-.2 1.1-.8-.7-1.2 1.3.4m-4 26.2c-.1.1-.2.1-.2.3l.2.7v.5c-.1.2-.3.3-.5.3-.1 0-.4.1-.6 0-.1-.1-.2-.1-.3-.4l-.2-.8c0-.2-.1-.2-.3-.2v-.1l.9-.2v.1c-.2.1-.3.1-.2.3l.2.8c0 .1.1.5.5.4.5-.1.4-.5.4-.6l-.2-.7c0-.1-.1-.2-.3-.2v-.1l.6-.1zm1.4.1c-.1-.2-.3-.4-.6-.3-.1 0-.3.1-.2.3 0 .1.1.2.3.2l.4.1c.1 0 .3.1.4.4 0 .2-.1.5-.6.6-.3.1-.4 0-.5 0-.1 0-.1.1-.1.1h-.1l-.1-.6h.1c.1.2.3.5.7.4.3-.1.3-.3.3-.3 0-.2-.2-.2-.4-.2h-.2c-.5-.1-.6-.3-.6-.4 0-.1 0-.5.5-.6h.4c.1 0 .1-.1.1-.1h.1l.1.4zm1.8.9l-1 .1v-.1c.2 0 .3 0 .3-.2l-.2-1.2c-.2 0-.5.1-.5.5h-.1V27l1.7-.2v.5h-.1c-.1-.4-.4-.4-.6-.4l.1 1.3c.1.2.2.2.4.2zm1.1-.8c.4 0 .5 0 .5-.4 0-.2-.1-.3-.3-.4-.2 0-.2 0-.2.1v.7zm1.2.8h-.6l-.6-.8h-.1v.5c0 .2.1.2.2.2v.1h-.9v-.1c.2 0 .2 0 .3-.2V27c0-.2-.1-.2-.2-.2v-.1h.9c.2 0 .8 0 .8.4 0 .3-.3.4-.4.4l.5.7c0 .2.1.2.1.2z"/><path class="st2" d="M24.5 28l-.2-.6-.3.5.5.1zm.8.7l-.9-.1v-.1c.2 0 .2 0 .2-.1s-.1-.3-.1-.3l-.6-.1c-.1.2-.2.3-.2.3 0 .1.1.1.2.1v.1l-.6-.1v-.1c.2 0 .2-.1.3-.2l.8-1.2h.1l.5 1.3c.1.3.1.4.3.5z"/><path class="st2" d="M26.9 29l-1.6-.3v-.1c.2 0 .2 0 .3-.1l.2-1.1c0-.2-.1-.2-.2-.2v-.1l1 .2v.1c-.2 0-.3 0-.3.2l-.3 1c0 .1 0 .1.2.2.4.1.6-.1.8-.3h.1l-.2.5zm1.1.3l-1-.2V29c.2 0 .3 0 .3-.1l.2-1.1c0-.2-.1-.2-.2-.2v-.1l1 .2v.1c-.1 0-.3 0-.3.1l-.3 1.1c0 .1.1.2.3.3z"/><path class="st2" d="M29.1 28.9l-.2-.6-.3.6h.5zm.8.6l-.9-.1v-.1c.2 0 .2 0 .2-.1s-.1-.3-.1-.3l-.6-.1c-.1.2-.1.3-.2.3 0 .1.1.1.2.1v.1H28v-.1c.2 0 .2-.1.3-.2l.8-1.2h.1l.5 1.3c0 .3.1.4.2.4zm-7.7-19.3c-.2 0-.4.1-.4-.1 0-.3.2-.2.4-.2s.4-.1.4.2c0 .2-.2.1-.4.1m.5-.1c0-.6-.3 0-.5-.5-.1.4-.5.1-.5.5 0 .2 0 .3.1.3v.2s0 .1.1.1h.6l.1-.1v-.2c.1-.1.1-.2.1-.3m5 7.1c.1 0 .3-.1.3-.2s-.1-.2-.3-.2c-.1 0-.3.1-.3.2s.1.2.3.2m-1.3-8.6l-.1.2c0 .1.1.1.1.1.1 0 .1-.1.1-.1l-.1-.2zm-8.3 0l-.1.2c0 .1.1.2.1.2.1 0 .1-.1.1-.1l-.1-.3zm2.1 0l-.1.2c0 .1.1.1.1.1.1 0 .1-.1.1-.1l-.1-.2zm2.1 0l-.1.2c0 .1.1.1.1.1.1 0 .1-.1.1-.1l-.1-.2zm2.1 0l-.1.2c0 .1.1.1.1.1.1 0 .1-.1.1-.1l-.1-.2zm-6.3 2.9l.1.2c0 .1-.1.1-.1.1-.1 0-.1-.1-.1-.1l.1-.2zm0 2.9l.1.2c0 .1-.1.1-.1.1-.1 0-.1-.1-.1-.1l.1-.2zm.4 2.2l.1.2c0 .1-.1.1-.1.1-.1 0-.1-.1-.1-.1l.1-.2zm1.7 1.2l.1.2c0 .1-.1.1-.1.1-.1 0-.1-.1-.1-.1l.1-.2zm6.3-6.3l-.1.2c0 .1.1.1.1.1.1 0 .1-.1.1-.1l-.1-.2zm0 2.9l-.1.2c0 .1.1.1.1.1.1 0 .1-.1.1-.1l-.1-.2zm-.3 2.2l-.1.2c0 .1.1.1.1.1.1 0 .1-.1.1-.1l-.1-.2zm-1.7 1.2l-.2.2c0 .1.1.1.1.1.1 0 .1-.1.1-.1v-.2zm-2.2 1.3l-.1.2c0 .1.1.1.1.1.1 0 .1-.1.1-.1l-.1-.2zm3.4-4.3s.1.1.2 0l.1-.2-.1-.1c-.2.1-.5.1-.6.3 0 .1.1.3.2.4.1 0 .1.1.1.1 0 .1 0 .1-.1.1-.2-.2-.4.1-.6-.1.1-.2.2-.4 0-.6v-.1c-.1-.2-.3 0-.4 0-.2 0-.4.1-.5.2 0 .1 0 .1.1.2.1 0 .1 0 .1.1V15s0 .1.1.1c-.1 0-.2-.1-.2-.2s0-.3-.1-.3h-.1s-.1.1-.1.2.1.2.1.2.4.3.5.5c-.1.2-.1.6-.4.7-.1.1-.1.1-.1.2l.1.1c.2-.1.5-.1.5-.4.1-.1.1-.3.2-.4.1 0 .2 0 .3.1 0 .2-.2.3-.4.4v.1c.1.1.2.1.3 0 .2-.1.3-.4.5-.5 0 .1-.3.2-.1.3.1 0 .3 0 .4-.1-.1-.2.3-.3.1-.5 0-.2.2-.3.2-.5-.1-.2-.3-.2-.4-.4-.1.2 0 .2.1.2m-9.5 2.5c.1 0 .3-.1.3-.2s-.1-.2-.3-.2c-.1 0-.3.1-.3.2s.1.2.3.2m-13.5 8c.1 0 .3-.1.3-.3 0-.1-.1-.2-.3-.2-.1 0-.3.1-.3.2 0 .2.2.3.3.3"/><path class="st0" d="M907.5-24.2h-1200"/><path class="st2" d="M11.2 27.3zm0-.1zm.1 0v.1-.1.1-.1zm.1 0v.1-.1h-.1.1v.1h-.1v-.1.1h.1v-.1zm0 .1zm0 0zm0 0zm.1 0zm-.1-.1zm15.5-11.3c-.1.6-.2 1-.6 1.3l-3.6 2.4c-.1.1-.2.1-.3.1-.1 0-.2 0-.3-.1l-3.6-2.3c-.4-.3-.6-.7-.6-1.3V8.5H27v7.4zm.2-7.6h-9.6v7.5c0 .8.3 1.4.8 1.6l3.7 2.4c.1.1.2.2.3.2.1 0 .2 0 .3-.1l3.7-2.4c.4-.2.8-.9.8-1.6V8.3z"/><path class="st2" d="M23.6 19.2l.1-.1c0 .1 0 .1-.1.1M15.5 29l-.3-.5-.3.5h.6zm.9.4l-.9.1v-.1c.2 0 .2 0 .2-.1s-.1-.2-.2-.3l-.6.1c-.1.2-.1.3-.1.3 0 .1.1.1.2.1v.1l-.6.1v-.1c.1 0 .2-.1.2-.3l.5-1.4h.1l.8 1.2c.2.2.2.3.4.3z"/><path class="st2" d="M31.9 26.5c-.1.3-.3.4-.6.5 0-.3.3-.6.2-1-.2-.3-.5-.4-.9-.3-.1.1-.1.2-.1.4l-.1.5c-.3 0-.3-.3-.4-.5 0-.3.1-.6.4-.7.2-.1.6-.1.8 0 .2 0 .4.1.5.3.3.2.3.5.2.8m-1.1.1c.2-.2 0-1 .4-.5 0 .1 0 .3-.1.4-.1.1-.2.2-.3.1m.1.4c0 .2-.2.2-.3.3h-.3c-.1-.1 0-.3 0-.4.2 0 .4 0 .6.1m.4 1.7c-.1.1 0 .4-.2.5 0 .3-.2.4-.4.5-1.6.4-3.2-.2-4.8-.5-2.2-.5-4.8-.6-7.1-.1-1.1.2-2.1.5-3.1.8-.6.1-1.3.2-1.9 0-.5-.2-.3-.9-.4-1.3 0-.4-.1-.6-.1-1 0-.1-.1-.3-.1-.4.2 0 .4.2.6.2 1.2.2 2.2-.2 3.3-.4 1-.2 2.1-.4 3.2-.5 1.2 0 2.5-.1 3.7.1.4 0 .7.1 1.1.1.8.1 1.5.3 2.3.4.1 0 .3 0 .4.1 1.2.2 2.6.6 3.8 0 0 .5-.2 1-.3 1.5m-7 1c.1.2.2.4.1.6-.1.3-.4.3-.7.3-.1 0-.2 0-.3-.1 0-.1 0-.1-.1-.1 0-.2-.3-.4-.1-.5.4-.2.9-.7 1.1-.2m.3.1c.2 0 .2.2.2.4 0 .3-.2.6-.5.7-.2.1-.4.1-.5.1.3 0 .7-.1.8-.5v-.7zm.4 1.9c-.4.1-.7-.2-1-.4v-.1c.4 0 .7.3 1 .5m-.5 1.3h-.1c-.4-.5-.6-1.1-.9-1.7h.1c.3.5.6 1.1.9 1.7m-.7-.4c-.1 0-.1-.2-.1-.3.1.1.2.2.1.3m-.4-.8c0 .1.2.2.1.3 0 0-.1-.2-.1-.3m-.1-.9zm-.8 2c-.3 0-.7.2-.9-.1 0-.1-.1-.2-.1-.3.2-.1.4.2.6 0h1c.2 0 .4-.3.4 0-.1.6-.6.3-1 .4m-.6-1.7l.1-.1c-.1.3-.3.7-.5 1 0-.3.3-.6.4-.9m.4-.2c.2-.2.3.1.4.3.2.3.7.6.5 1-.3.2-.7 0-1 .2-.2 0-.4 0-.5-.1.3-.5.4-1 .6-1.4m0-.6zm.3.1c.1-.1.1-.2.2-.2 0 .1-.1.1-.2.2m.2.2h.1-.1zm.4.4l-.4-.1c.2-.1.3 0 .4.1m-.1-.8zm.6-.9c-.2.1-.3.3-.5.3.1-.2.3-.3.5-.3m-.7-.2c0-.1.1 0 .2-.1h.4c-.2 0-.5.5-.6.1m-1 .4c.1-.2.1-.4.2-.5.1 0 .3 0 .4.1 0 .3.4.7 0 .9-.1.1-.3.2-.4.1-.2-.3-.3-.4-.2-.6m-.2.9v-.2c.1-.1.1.1.2.1 0 0-.1.1-.2.1m0-.7v-.2.2zm-.2-.4c-.2 0-.3-.3-.5-.3.2-.1.3 0 .5 0 .2.1 0 .2 0 .3m-.1 1.1c0-.2.1-.4.2-.6 0 .2-.1.5-.2.6m-.3 0c-.2 0-.5-.1-.7-.2-.1-.1 0-.3 0-.5.2-.3.7-.5 1-.2 0 .4-.1.7-.3.9m.1.4zm-.3.8c-.2.5-.4.9-.7 1.3 0 .1-.1.1-.2.1 0-.2.2-.4.3-.5.3-.4.4-.8.7-1.2 0 .2-.1.2-.1.3m-1.4-.1c.3-.1.7-.4 1-.3-.2.2-.6.3-1 .3m.5-1c-.1-.5.1-.9.4-1.3.2 0 .4-.1.6 0-.4.1-.8.2-.9.7v.4c.2.3.5.2.7.4 0 .1-.1.2-.1.2-.1-.1-.4-.2-.7-.4m-6.4-4.5c0-.1 0-.3.2-.3.1 0 .2 0 .3.1 0 .2 0 .3-.1.5-.3 0-.4-.2-.4-.3m0 .4c.2.2.5.1.7.1 0 .2 0 .4-.1.5-.2-.1-.5 0-.7-.3.2 0 .1-.1.1-.3m-.6-.4c0-.3.1-.5.3-.7.3-.2.8-.1 1.1 0 .1.1.2.1.2.3.1.2 0 .5-.2.6h-.1c0-.2 0-.5.1-.6 0-.2-.2-.2-.3-.3-.2-.1-.4 0-.6.1-.1.2-.3.4-.2.6.1.2 0 .4.1.5v.1c-.2 0-.5-.2-.4-.6M26 32.2c.3.2 1 .3 1.5.4 0 .2-.4 0-.3.3-.4-.2-.9-.3-1.2-.6-.1-.1-.1-.1 0-.1m-8.6.2l-.2-.2c.1-.1.3-.1.5-.1.4-.1.8-.3 1.2-.2-.5.3-1 .4-1.5.5m14.9-6.5c-.2-.4-.5-.7-.9-.9-.4-.1-.9 0-1.2.3-.6.5-.2 1.2-.2 1.7 0 .1 0 .2-.1.3-2-.2-3.9-.7-5.8-.9-.5-.1-.9-.1-1.3-.2l-.6-.1c-1.7.1-3.4.2-5.1.6-.3.1-.7.1-1.1.3-.2 0-.5.1-.7.1l-.5.1h-.2c-.2-.6.4-.9.2-1.5-.2-.3-.5-.6-.9-.6-.5-.1-.9.2-1.1.6-.3.7.1 1.4.2 2.1 0 .2.2.5 0 .7-.4-.3-1-.5-1.6-.3-.2.1-.5 0-.6.2.6.3 1.3.3 2 .3h.2c.1.4-.1.9.2 1.2.2.3.7.4 1.1.5 1.3 0 2.4-.4 3.6-.7.2 0 .3-.1.5-.1.6-.1 1.3-.3 2-.3-.3.4-.5.8-.6 1.3-.2.4.3.4.4.7-.4.1-.7.4-1.1.6-.9 0-1.6.3-2.5.4 0 .2.3.1.3.3 0 .1-.2.1-.3.2 0 .1 0 .1.1.1.1-.1.3 0 .3-.1.3 0 .5-.1.8-.1.2-.1.5-.1.7-.3.3-.1.5-.3.8-.4.4 0 .8-.1 1.2-.2v.1c-.3.5-.6 1.1-1 1.6-.1.1 0 .2.1.2.2.1.4 0 .5-.1.3-.5.6-1 .8-1.5.1-.5.4-.7.8-1.1.1 0 .1-.1.2 0-.3.3-.5.6-.7 1-.1.4-.1.9.2 1.2.2.1.4.1.6.1.5-.3 1.2.2 1.6-.4.2 0 .3.3.4.4.2.1.5.3.7.1 0-.2-.2-.3-.3-.4-.2-.3-.4-.5-.5-.8-.1-.2-.2-.3-.2-.5.2.1.5.3.7.3.2.1.5.1.7.2.2.2.5.4.7.5.3.2.7.2 1.1.3.1 0 .3.1.4 0l-.2-.2c0-.2.2-.1.3-.2 0-.1-.1-.1-.2-.1-.2-.1-.7-.1-.8-.2-.2 0-.3-.1-.5-.2-.8 0-1.3-.8-1.9-1 .2-.1.4-.3.5-.5.1-.2.2-.5 0-.8-.1-.4-.7-.4-1-.6.5 0 1 .1 1.5.2 1.3.2 2.5.7 3.9.7.8 0 1.7 0 2.1-.7.1-.4.2-.9.2-1.3.7-.7 1.1-1.4 1.1-2.2"/><path class="st0" d="M907.5-24.2h-1200"/><path class="st2" d="M48.6 20.7h145.9v.3H48.6zm3 7.9l-.8-1.9-.8 1.9h1.6zm.1.3h-1.9l-.2.5c-.1.2-.1.3-.1.4 0 .2.1.3.2.3s.2.1.5.1v.1h-1.8v-.1c.2 0 .3-.1.5-.2.1-.1.3-.4.5-.8l1.9-4.3h.1l1.9 4.5c.2.4.3.7.5.8.1.1.2.1.4.1v.1h-2.6v-.1h.1c.2 0 .4 0 .4-.1.1 0 .1-.1.1-.2v-.1s0-.1-.1-.3l-.4-.7zm5.7-2.2v2.9c0 .3 0 .5.1.5.1.1.2.1.3.1v.1h-1.5v-.5l-.5.5c-.2.1-.4.1-.6.1-.2 0-.4-.1-.6-.2-.2-.1-.3-.3-.3-.5-.1-.2-.1-.5-.1-.9v-1.5c0-.3 0-.5-.1-.5-.1-.1-.2-.1-.3-.1v-.1h1.5v3.1c0 .1.1.1.1.2.1 0 .1.1.2.1s.2 0 .3-.1l.4-.4v-2c0-.3 0-.5-.1-.5-.1-.1-.2-.1-.3-.1v-.1h1.5zm3.1-.1l.1 1.3h-.1c-.2-.4-.3-.6-.5-.8-.2-.1-.3-.2-.5-.2-.1 0-.2 0-.3.1-.1.1-.1.2-.1.3 0 .1 0 .1.1.2s.3.3.7.6c.4.3.6.5.8.7.1.2.2.4.2.6 0 .2 0 .4-.2.6-.1.2-.2.4-.4.5-.2.1-.4.2-.6.2-.2 0-.4-.1-.7-.2h-.2c-.1 0-.2.1-.2.2h-.1l-.1-1.3h.1c.1.4.3.6.5.8.2.2.4.3.6.3.1 0 .2 0 .3-.1.1-.1.1-.2.1-.3 0-.1 0-.2-.1-.3-.1-.1-.3-.2-.5-.4-.4-.3-.7-.5-.8-.7-.2-.2-.3-.5-.3-.7 0-.3.1-.6.3-.8.2-.2.5-.4.8-.4.2 0 .4 0 .6.1.1 0 .1.1.2.1h.1s.1-.1.1-.2h.1zm2.2-1.3v1.4h.9v.4h-.9v2.7c0 .1.1.1.1.2l.1.1c.2 0 .3-.1.5-.4l.1.1c-.2.5-.6.8-1 .8-.2 0-.4-.1-.6-.2-.2-.1-.3-.3-.3-.4v-2.7h-.5v-.1c.3-.2.6-.5.8-.8l.6-.9h.2zm2.6 1.4v.9c.2-.4.5-.6.6-.8.2-.1.4-.2.5-.2.1 0 .3 0 .4.1.1.1.1.2.1.4s0 .3-.1.4c-.1.1-.2.1-.3.1-.1 0-.3 0-.4-.1-.1-.1-.2-.1-.2-.2h-.1c-.1 0-.1 0-.2.1s-.2.2-.2.4c-.1.3-.1.5-.1.9v1.4c0 .1.1.1.1.2.1 0 .2.1.3.1v.1h-2v-.1c.2 0 .3-.1.3-.1.1-.1.1-.3.1-.6v-2.5c0-.1-.1-.1-.1-.2 0 0-.1-.1-.3-.1v-.1h1.6zm3.9 2.9v-1.3c-.3.2-.6.4-.7.6-.1.1-.2.3-.2.4 0 .1 0 .2.1.3.1.1.2.1.3.1.2.1.3 0 .5-.1m0 .3c-.4.4-.8.6-1.2.6-.2 0-.4-.1-.5-.2-.1-.1-.2-.3-.2-.5 0-.3.1-.5.4-.8.2-.2.8-.5 1.6-.9v-.9c0-.1-.1-.1-.2-.2s-.2-.1-.3-.1c-.2 0-.3 0-.4.1-.1 0-.1.1-.1.2s0 .1.1.2.1.2.1.3c0 .1 0 .2-.1.3-.1.1-.2.1-.4.1s-.3-.1-.4-.2c-.1-.1-.2-.2-.2-.4s.1-.4.2-.6c.1-.2.4-.3.6-.4.3-.1.5-.1.8-.1.3 0 .6.1.8.2.2.2.3.3.4.5 0 .1.1.4.1.8v1.8s0 .1.1.1h.1c.1 0 .1 0 .2-.1l.1.1c-.1.2-.3.3-.4.4-.1.1-.3.1-.5.1s-.4 0-.5-.2c-.1.1-.2 0-.2-.2m3.3-4.9v4.7c0 .3 0 .4.1.5.1.1.2.1.4.1v.1h-2v-.1c.2 0 .3-.1.4-.1.1-.1.1-.2.1-.5v-3.9c0-.3 0-.4-.1-.5-.1-.1-.2-.1-.3-.1V25h1.4zm1.5-.1c.2 0 .3.1.4.2.1.1.2.3.2.4 0 .2-.1.3-.2.4-.1.1-.3.2-.4.2-.2 0-.3-.1-.4-.2s-.2-.3-.2-.4c0-.2.1-.3.2-.4.1-.2.3-.2.4-.2m.6 1.8v3c0 .3 0 .4.1.5.1.1.2.1.4.1v.1h-2v-.1c.2 0 .3-.1.4-.1.1-.1.1-.2.1-.5v-2.2c0-.3 0-.4-.1-.5-.1-.1-.2-.1-.4-.1v-.1h1.5zm2.7 2.9v-1.3c-.3.2-.6.4-.7.6-.1.1-.2.3-.2.4 0 .1 0 .2.1.3.1.1.2.1.3.1.1.1.3 0 .5-.1m0 .3c-.4.4-.9.6-1.2.6-.2 0-.4-.1-.5-.2s-.2-.3-.2-.5c0-.3.1-.5.4-.8.2-.2.8-.5 1.6-.9v-.9c0-.1-.1-.1-.2-.2s-.2-.1-.3-.1c-.2 0-.3 0-.4.1-.1 0-.1.1-.1.2s0 .1.1.2.1.2.1.3c0 .1 0 .2-.1.3-.1.1-.2.1-.4.1s-.3-.1-.4-.2c-.1-.1-.2-.2-.2-.4s.1-.4.2-.6c.1-.2.4-.3.6-.4.3-.1.5-.1.8-.1.3 0 .6.1.8.2s.3.3.4.5c0 .1.1.4.1.8v1.8s0 .1.1.1h.1c.1 0 .1 0 .2-.1l.1.1c-.1.2-.3.3-.4.4-.1.1-.3.1-.5.1s-.4 0-.5-.2c-.1.1-.2 0-.2-.2m3.3-3.2v.5l.5-.5c.2-.1.4-.1.6-.1.2 0 .4.1.6.2.2.1.3.3.3.5s.1.4.1.9v1.5c0 .3 0 .5.1.5.1.1.2.1.3.1v.1h-1.9v-.1c.1 0 .2-.1.3-.2 0-.1.1-.2.1-.5v-2.3c0-.1-.1-.1-.1-.2-.1 0-.1-.1-.2-.1-.2 0-.4.2-.6.5v2c0 .3 0 .5.1.5.1.1.1.1.3.1v.1h-1.9v-.1c.2 0 .3-.1.3-.2s.1-.2.1-.5v-2.1c0-.3 0-.5-.1-.5-.1-.1-.2-.1-.3-.1v-.1h1.4zm6.7-1.4v2.2h.2c.2 0 .4 0 .6-.1.1-.1.3-.2.4-.4.1-.2.2-.4.2-.7h.1V29h-.1c0-.5-.2-.9-.4-1-.2-.2-.5-.2-.8-.2h-.2V30c0 .1.1.1.2.2s.2.1.4.1h.1v.1h-2.8v-.1h.2c.2 0 .3 0 .4-.1.1 0 .1-.1.2-.2v-4.6c0-.1-.1-.1-.2-.2s-.2-.1-.4-.1h-.2V25h4.5v1.6h-.2c0-.4-.1-.6-.3-.8-.1-.2-.4-.3-.7-.4-.2 0-.4-.1-.9-.1h-.3zm3.7-.4c.2 0 .3.1.4.2.1.1.2.3.2.4 0 .2-.1.3-.2.4-.1.1-.3.2-.4.2-.2 0-.3-.1-.4-.2s-.2-.3-.2-.4c0-.2.1-.3.2-.4.1-.2.2-.2.4-.2m.5 1.8v3c0 .3 0 .4.1.5.1.1.2.1.4.1v.1h-2v-.1c.2 0 .3-.1.4-.1.1-.1.1-.2.1-.5v-2.2c0-.3 0-.4-.1-.5-.1-.1-.2-.1-.4-.1v-.1h1.5zm3-.1l.1 1.3h-.1c-.2-.4-.3-.6-.5-.8-.2-.1-.3-.2-.5-.2-.1 0-.2 0-.3.1-.1.1-.1.2-.1.3 0 .1 0 .1.1.2s.3.3.7.6c.4.3.6.5.8.7.1.2.2.4.2.6 0 .2 0 .4-.2.6-.1.2-.2.4-.4.5-.2.1-.4.2-.6.2-.2 0-.4-.1-.7-.2h-.2c-.1 0-.2.1-.2.2h-.1l-.1-1.3h.1c.1.4.3.6.5.8.2.2.4.3.6.3.1 0 .2 0 .3-.1.1-.1.1-.2.1-.3 0-.1 0-.2-.1-.3-.1-.1-.3-.2-.5-.4-.4-.3-.7-.5-.8-.7-.2-.2-.3-.5-.3-.7 0-.3.1-.6.3-.8.2-.2.5-.4.8-.4.2 0 .4 0 .6.1.1 0 .1.1.2.1h.1s.1-.1.1-.2h.1zm2.2-1.6v2.2c.2-.2.4-.4.6-.5.2-.1.3-.1.5-.1s.4.1.6.2c.2.1.3.3.3.5.1.2.1.5.1.9v1.5c0 .3 0 .5.1.5.1.1.2.1.3.1v.1h-1.9v-.1c.1 0 .2-.1.3-.2 0-.1.1-.2.1-.5v-2.3c0-.1-.1-.1-.1-.2-.1 0-.1-.1-.2-.1s-.2 0-.3.1c-.1.1-.2.2-.3.4v2c0 .3 0 .4.1.5 0 .1.2.1.3.2v.1h-1.9v-.1c.2 0 .3-.1.3-.2s.1-.2.1-.5v-3.8c0-.3 0-.5-.1-.5-.1-.1-.2-.1-.3-.1V25h1.4zm4.9 3.2c0-.4 0-.7-.1-.9 0-.2-.1-.3-.2-.4-.1 0-.1-.1-.2-.1s-.2.1-.3.2c-.2.2-.2.6-.2 1v.1h1zm1 .2h-2c0 .5.2.9.4 1.2.2.2.4.3.7.3.2 0 .3 0 .4-.1.1-.1.3-.3.4-.5l.1.1c-.2.4-.4.7-.7.9-.2.2-.5.3-.8.3-.5 0-1-.2-1.2-.6-.2-.3-.3-.8-.3-1.3 0-.6.2-1.1.5-1.5.3-.4.7-.6 1.2-.6.4 0 .7.2 1 .5.1.3.3.7.3 1.3m1.8-1.7v.9c.2-.4.5-.6.6-.8.2-.1.4-.2.5-.2.1 0 .3 0 .4.1.1.1.1.2.1.4s0 .3-.1.4c-.1.1-.2.1-.3.1-.1 0-.3 0-.4-.1-.1-.1-.2-.1-.2-.2h-.1c-.1 0-.1 0-.2.1s-.2.2-.2.4c-.1.3-.1.5-.1.9v1.4c0 .1.1.1.1.2.1 0 .2.1.3.1v.1h-2v-.1c.2 0 .3-.1.3-.1.1-.1.1-.3.1-.6v-2.5c0-.1-.1-.1-.1-.2 0 0-.1-.1-.3-.1v-.1h1.6zm2.8-1.8c.2 0 .3.1.4.2.1.1.2.3.2.4 0 .2-.1.3-.2.4-.1.1-.3.2-.4.2-.2 0-.3-.1-.4-.2-.1-.1-.2-.3-.2-.4 0-.2.1-.3.2-.4.1-.2.3-.2.4-.2m.6 1.8v3c0 .3 0 .4.1.5.1.1.2.1.4.1v.1h-2v-.1c.2 0 .3-.1.4-.1.1-.1.1-.2.1-.5v-2.2c0-.3 0-.4-.1-.5-.1-.1-.2-.1-.3-.1v-.1h1.4zm2.8 1.5c0-.4 0-.7-.1-.9 0-.2-.1-.3-.2-.4-.1 0-.1-.1-.2-.1s-.2.1-.3.2c-.2.2-.2.6-.2 1v.1h1zm1 .2h-2c0 .5.2.9.4 1.2.2.2.4.3.7.3.2 0 .3 0 .4-.1.1-.1.3-.3.4-.5l.1.1c-.2.4-.4.7-.7.9-.2.2-.5.3-.8.3-.5 0-1-.2-1.2-.6-.2-.3-.3-.8-.3-1.3 0-.6.2-1.1.5-1.5s.7-.6 1.2-.6c.4 0 .7.2 1 .5.1.3.2.7.3 1.3m2.6-1.8l.1 1.3h-.1c-.2-.4-.3-.6-.5-.8-.2-.1-.3-.2-.5-.2-.1 0-.2 0-.3.1-.1.1-.1.2-.1.3 0 .1 0 .1.1.2s.3.3.7.6c.4.3.6.5.8.7.1.2.2.4.2.6 0 .2-.1.4-.2.6-.1.2-.2.4-.4.5-.2.1-.4.2-.6.2-.2 0-.4-.1-.7-.2h-.2c-.1 0-.2.1-.2.2h-.3l-.1-1.3h.1c.1.4.3.6.5.8.2.2.4.3.6.3.1 0 .2 0 .3-.1.1-.1.1-.2.1-.3 0-.1 0-.2-.1-.3-.1-.1-.3-.2-.5-.4-.4-.3-.7-.5-.8-.7-.2-.2-.3-.5-.3-.7 0-.3.1-.6.3-.8.2-.2.5-.4.8-.4.2 0 .4 0 .6.1.1 0 .1.1.2.1h.1s.1-.1.1-.2h.3zm6.1 2l1.4-3.6h2.2v.1h-.2c-.2 0-.3 0-.4.1-.1 0-.1.1-.2.2V30c0 .1.1.1.2.2s.2.1.4.1h.2v.1h-2.8v-.1h.2c.2 0 .3 0 .4-.1.1 0 .1-.1.2-.2v-4.5l-2 5h-.1l-2.1-4.9v4.3c0 .1.1.2.2.3.1.1.3.1.5.1v.1h-1.8v-.1h.1c.1 0 .2 0 .3-.1.1 0 .2-.1.2-.2.1-.1.1-.2.1-.3v-4.3c0-.1-.1-.1-.2-.2s-.2-.1-.4-.1h-.2V25h2.2l1.6 3.6zm5.9 1v-1.3c-.3.2-.6.4-.7.6-.1.1-.2.3-.2.4 0 .1 0 .2.1.3.1.1.2.1.3.1.2.1.3 0 .5-.1m0 .3c-.4.4-.9.6-1.2.6-.2 0-.4-.1-.5-.2-.1-.1-.2-.3-.2-.5 0-.3.1-.5.4-.8.2-.2.8-.5 1.6-.9v-.9c0-.1-.1-.1-.2-.2s-.2-.1-.3-.1c-.2 0-.3 0-.4.1-.1 0-.1.1-.1.2s0 .1.1.2.1.2.1.3c0 .1 0 .2-.1.3-.1.1-.2.1-.4.1s-.3-.1-.4-.2c-.1-.1-.2-.2-.2-.4s.1-.4.2-.6c.1-.2.4-.3.6-.4.3-.1.5-.1.8-.1.3 0 .6.1.8.2s.3.3.4.5c0 .1.1.4.1.8v1.8s0 .1.1.1h.1c.1 0 .1 0 .2-.1l.1.1c-.1.2-.3.3-.4.4-.1.1-.3.1-.5.1s-.4 0-.5-.2c-.1.1-.2 0-.2-.2m3.3-3.2v.5l.5-.5c.2-.1.4-.1.6-.1.2 0 .4.1.6.2.2.1.3.3.3.5s.1.4.1.9v1.5c0 .3 0 .5.1.5.1.1.2.1.3.1v.1h-1.9v-.1c.1 0 .2-.1.3-.2 0-.1.1-.2.1-.5v-2.3c0-.1-.1-.1-.1-.2-.1 0-.1-.1-.2-.1-.2 0-.4.2-.6.5v2c0 .3 0 .5.1.5.1.1.1.1.3.1v.1h-1.9v-.1c.2 0 .3-.1.3-.2s.1-.2.1-.5v-2.1c0-.3 0-.5-.1-.5-.1-.1-.2-.1-.3-.1v-.1h1.4zm4.9 2.9v-1.3c-.3.2-.6.4-.7.6-.1.1-.2.3-.2.4 0 .1 0 .2.1.3.1.1.2.1.3.1.2.1.3 0 .5-.1m0 .3c-.4.4-.8.6-1.2.6-.2 0-.4-.1-.5-.2s-.2-.3-.2-.5c0-.3.1-.5.4-.8.2-.2.8-.5 1.6-.9v-.9c0-.1-.1-.1-.2-.2s-.2-.1-.3-.1c-.2 0-.3 0-.4.1-.1 0-.1.1-.1.2s0 .1.1.2.1.2.1.3c0 .1 0 .2-.1.3-.1.1-.2.1-.4.1s-.3-.1-.4-.2c-.1-.1-.2-.2-.2-.4s.1-.4.2-.6c.1-.2.4-.3.6-.4.3-.1.5-.1.8-.1.3 0 .6.1.8.2s.3.3.4.5c0 .1.1.4.1.8v1.8s0 .1.1.1h.1c.1 0 .1 0 .2-.1l.1.1c-.1.2-.3.3-.4.4-.1.1-.3.1-.5.1s-.4 0-.5-.2c-.1.1-.2 0-.2-.2m3.5-3.1c-.2 0-.3.1-.4.2-.1.2-.2.5-.2 1 0 .4.1.7.2.8.1.1.2.2.4.2s.3-.1.4-.2c.1-.1.2-.4.2-.9s-.1-.8-.2-1c-.1 0-.2-.1-.4-.1m-.2 4.2c-.3 0-.4 0-.5.1-.1.1-.2.2-.2.3 0 .1.1.3.2.4.2.1.4.2.9.2.4 0 .6 0 .9-.1.2-.1.3-.2.3-.4 0-.1 0-.1-.1-.2s-.2-.1-.3-.2c-.2-.1-.6-.1-1.2-.1m.9-4.3h1.2v.4h-.7c.1.1.2.2.3.4.1.1.1.3.1.5 0 .3-.1.5-.2.7-.1.2-.3.4-.6.5-.2.1-.5.2-.7.2h-.5c-.1 0-.2 0-.3.1-.1.1-.1.2-.1.3 0 .1 0 .2.1.2.1.1.2.1.4.1h.7c.5 0 .9.1 1.1.2.3.2.4.4.4.8 0 .2-.1.4-.2.6-.1.2-.3.3-.5.4-.3.1-.7.2-1.2.2-.3 0-.6 0-.9-.1-.3-.1-.5-.2-.6-.3-.1-.1-.2-.2-.2-.4 0-.1 0-.2.1-.3.1-.1.3-.2.5-.2-.3-.2-.5-.4-.5-.7 0-.2.1-.4.2-.5.1-.2.4-.3.7-.5-.4-.1-.6-.3-.8-.5-.2-.2-.2-.5-.2-.7 0-.4.1-.7.4-1 .3-.3.7-.4 1.1-.4.4-.1.6-.1.9 0m3.7 1.5c0-.4 0-.7-.1-.9 0-.2-.1-.3-.2-.4-.1 0-.1-.1-.2-.1s-.2.1-.3.2c-.2.2-.2.6-.2 1v.1h1zm.9.2h-2c0 .5.2.9.4 1.2.2.2.4.3.7.3.2 0 .3 0 .4-.1.1-.1.3-.3.4-.5l.1.1c-.2.4-.4.7-.7.9-.2.2-.5.3-.8.3-.5 0-1-.2-1.2-.6-.2-.3-.3-.8-.3-1.3 0-.6.2-1.1.5-1.5.3-.4.7-.6 1.2-.6.4 0 .7.2 1 .5.2.3.3.7.3 1.3m1.9-1.7v.5c.2-.2.4-.4.6-.5.2-.1.4-.1.6-.1.2 0 .4.1.6.2.2.1.3.3.4.5.2-.2.4-.4.6-.5.2-.1.4-.2.6-.2.3 0 .5.1.6.2.1.1.3.3.3.5.1.2.1.5.1.9v1.5c0 .3 0 .5.1.5 0 .1.2.1.3.1v.1H148v-.1c.1 0 .3-.1.3-.2s.1-.2.1-.5v-2.2c0-.1-.1-.2-.1-.2-.1 0-.1-.1-.2-.1s-.2 0-.3.1c-.1.1-.2.2-.3.4v2c0 .3 0 .4.1.5.1.1.2.2.3.2v.1H146v-.1c.1 0 .2 0 .2-.1.1 0 .1-.1.1-.2v-2.6c0-.1-.1-.2-.1-.2-.1 0-.1-.1-.2-.1s-.2 0-.3.1c-.1.1-.3.2-.4.4v2c0 .3 0 .4.1.5 0 .1.2.1.3.2v.1h-1.9v-.1c.2 0 .3-.1.3-.2s.1-.2.1-.5v-2.1c0-.3 0-.5-.1-.5-.1-.1-.2-.1-.3-.1v-.1h1.3zm7.1 1.5c0-.4 0-.7-.1-.9 0-.2-.1-.3-.2-.4-.1 0-.1-.1-.2-.1s-.2.1-.3.2c-.2.2-.2.6-.2 1v.1h1zm1 .2h-2c0 .5.2.9.4 1.2.2.2.4.3.7.3.2 0 .3 0 .4-.1.1-.1.3-.3.4-.5l.1.1c-.2.4-.4.7-.7.9-.2.2-.5.3-.8.3-.5 0-1-.2-1.2-.6-.2-.3-.3-.8-.3-1.3 0-.6.2-1.1.5-1.5s.7-.6 1.2-.6c.4 0 .7.2 1 .5.1.3.3.7.3 1.3m1.8-1.7v.5l.5-.5c.2-.1.4-.1.6-.1.2 0 .4.1.6.2.2.1.3.3.3.5s.1.4.1.9v1.5c0 .3 0 .5.1.5.1.1.2.1.3.1v.1h-1.9v-.1c.1 0 .2-.1.3-.2 0-.1.1-.2.1-.5v-2.3c0-.1-.1-.1-.1-.2-.1 0-.1-.1-.2-.1-.2 0-.4.2-.6.5v2c0 .3 0 .5.1.5.1.1.1.1.3.1v.1h-1.9v-.1c.2 0 .3-.1.3-.2s.1-.2.1-.5v-2.1c0-.3 0-.5-.1-.5-.1-.1-.2-.1-.3-.1v-.1h1.4zm4.3-1.4v1.4h.9v.4h-.9v2.7c0 .1.1.1.1.2.1 0 .1.1.1.1.2 0 .3-.1.5-.4l.1.1c-.2.5-.6.8-1 .8-.2 0-.4-.1-.6-.2-.2-.1-.3-.3-.3-.4v-2.7h-.5v-.1c.3-.2.6-.5.8-.8l.6-.9h.2zm5.5 3.3l-.8-1.9-.8 1.9h1.6zm.1.3H163l-.2.5c-.1.2-.1.3-.1.4 0 .2.1.3.2.3s.2.1.5.1v.1h-1.8v-.1c.2 0 .3-.1.5-.2.1-.1.3-.4.5-.8l1.9-4.3h.1l1.9 4.5c.2.4.3.7.5.8.1.1.2.1.4.1v.1h-2.6v-.1h.1c.2 0 .4 0 .4-.1.1 0 .1-.1.1-.2v-.1s0-.1-.1-.3l-.4-.7zm5.7-2.2v2.9c0 .3 0 .5.1.5.1.1.2.1.3.1v.1h-1.5v-.5c-.2.2-.3.4-.5.5-.2.1-.4.1-.6.1-.2 0-.4-.1-.5-.2-.2-.1-.3-.3-.3-.5-.1-.2-.1-.5-.1-.9v-1.5c0-.3 0-.5-.1-.5-.1-.1-.2-.1-.3-.1v-.1h1.5v3.1c0 .1.1.1.1.2.1 0 .1.1.2.1s.2 0 .3-.1l.4-.4v-2c0-.3 0-.5-.1-.5-.1-.1-.2-.1-.3-.1v-.1h1.4zm2.2-1.4v1.4h.9v.4h-.9v2.7c0 .1.1.1.1.2.1 0 .1.1.1.1.2 0 .3-.1.5-.4l.1.1c-.2.5-.6.8-1 .8-.2 0-.4-.1-.6-.2-.2-.1-.3-.3-.3-.4v-2.7h-.5v-.1c.3-.2.6-.5.8-.8l.6-.9h.2zm2.6-.3v2.2c.2-.2.4-.4.6-.5.2-.1.3-.1.5-.1s.4.1.6.2c.2.1.3.3.3.5.1.2.1.5.1.9v1.5c0 .3 0 .5.1.5.1.1.2.1.3.1v.1H176v-.1c.1 0 .2-.1.3-.2 0-.1.1-.2.1-.5v-2.3c0-.1-.1-.1-.1-.2-.1 0-.1-.1-.2-.1s-.2 0-.3.1c-.1.1-.2.2-.3.4v2c0 .3 0 .4.1.5 0 .1.2.1.3.2v.1H174v-.1c.2 0 .3-.1.3-.2s.1-.2.1-.5v-3.8c0-.3 0-.5-.1-.5 0-.1-.2-.1-.3-.1V25h1.4zm4.6 1.9c-.1 0-.2.1-.3.2-.1.1-.2.3-.2.6V29c0 .3 0 .6.1.8 0 .2.1.3.2.4s.2.1.3.1c.1 0 .2 0 .3-.1.1-.1.2-.2.2-.4.1-.3.1-.8.1-1.5 0-.5 0-.8-.1-.9 0-.2-.1-.3-.2-.4-.2-.1-.3-.1-.4-.1m0-.3c.3 0 .6.1.9.3.3.2.5.4.6.7.1.3.2.7.2 1 0 .5-.1 1-.4 1.3-.3.4-.8.7-1.3.7-.6 0-1-.2-1.3-.6-.3-.4-.4-.9-.4-1.4 0-.5.2-1 .5-1.4.2-.4.6-.6 1.2-.6m3.6.1v.9c.2-.4.5-.6.6-.8.2-.1.4-.2.5-.2.1 0 .3 0 .4.1.1.1.1.2.1.4s0 .3-.1.4c-.1.1-.2.1-.3.1-.1 0-.3 0-.4-.1-.1-.1-.2-.1-.2-.2h-.1c-.1 0-.1 0-.2.1s-.2.2-.2.4c-.1.3-.1.5-.1.9v1.4c0 .1.1.1.1.2.1 0 .2.1.3.1v.1h-2v-.1c.2 0 .3-.1.3-.1.1-.1.1-.3.1-.6v-2.5c0-.1-.1-.1-.1-.2-.1 0-.1-.1-.3-.1v-.1h1.6zm2.8-1.8c.2 0 .3.1.4.2.1.1.2.3.2.4 0 .2-.1.3-.2.4-.1.1-.3.2-.4.2-.2 0-.3-.1-.4-.2-.1-.1-.2-.3-.2-.4 0-.2.1-.3.2-.4.1-.2.3-.2.4-.2m.6 1.8v3c0 .3 0 .4.1.5.1.1.2.1.4.1v.1h-2v-.1c.2 0 .3-.1.4-.1.1-.1.1-.2.1-.5v-2.2c0-.3 0-.4-.1-.5-.1-.1-.2-.1-.4-.1v-.1h1.5zm2.1-1.4v1.4h.9v.4h-.9v2.7c0 .1.1.1.1.2l.1.1c.2 0 .3-.1.5-.4l.1.1c-.2.5-.6.8-1 .8-.2 0-.4-.1-.6-.2-.2-.1-.3-.3-.3-.4v-2.7h-.5v-.1c.3-.2.6-.5.8-.8l.6-.9h.2zm2.8 5.3l-1.2-2.8c-.2-.4-.3-.7-.4-.8-.1-.1-.2-.2-.3-.2v-.1h2v.1c-.1 0-.2 0-.3.1-.1 0-.1.1-.1.2s.1.3.2.6l.6 1.5.4-1.1c.2-.4.2-.7.2-.8 0-.1 0-.2-.1-.2-.1-.1-.2-.1-.3-.1v-.1h1.2v.1c-.1 0-.2.1-.3.1-.1.1-.2.4-.4.8l-1 2.8c-.3.7-.5 1.1-.6 1.3-.2.2-.4.3-.7.3-.2 0-.4-.1-.5-.2-.1-.1-.2-.3-.2-.5s0-.3.1-.4c.1-.1.2-.2.3-.2.1 0 .2 0 .3.1.1.1.1.2.1.4v.2h.1c.1 0 .1 0 .2-.1s.2-.4.4-.8l.3-.2z"/><path class="st0" d="M907.5-24.2h-1200m1200 0h-1200m1200 0h-1200m1200 0h-1200m1200 0h-1200"/></svg>